<svg width="156" height="310" viewBox="0 0 156 310" fill="none" xmlns="http://www.w3.org/2000/svg">
<path d="M22.2222 20.9198C29.0867 16.6639 58.3082 -1.65281 70.7024 0.120511C117.896 6.87276 118.564 27.9446 122.375 33.9972C131.671 48.7604 135.936 67.3071 130.931 112.231C125.925 157.155 44.7672 142.082 32.2538 140.604C19.7405 139.126 12.4903 126.215 5.69736 117.644C-1.09562 109.073 0.0772793 76.4692 0.0772793 59.9183C0.0772793 43.3673 13.6416 26.2398 22.2222 20.9198Z" fill="#C0DEFF"/>
<path d="M42.062 274.043C48.7079 272.776 76.9986 267.325 88.998 267.853C134.688 269.862 135.335 276.134 139.025 277.935C148.025 282.329 158.927 285.21 154.081 298.58C149.235 311.95 63.8889 310.103 51.7741 309.663C39.6594 309.223 33.0834 301.131 26.5068 298.58C19.9302 296.029 20.6225 290.575 20.6225 285.649C20.6225 280.724 33.7548 275.626 42.062 274.043Z" fill="#EBECDD"/>
<path d="M82.7403 35.6128C92.7472 33.7904 99.4726 41.6875 101.584 45.8639C103.371 50.9081 90.3754 54.9758 87.9387 54.9758C85.5019 54.9758 85.9893 51.8843 75.9174 48.63C65.8455 45.3757 61.1345 47.491 58.6977 47.6537C56.261 47.8164 49.1132 49.769 51.2251 45.8639C53.3369 41.9588 70.2317 37.8908 82.7403 35.6128Z" fill="#FEB3BD"/>
<path d="M66.6102 27.1696C66.6102 29.1186 56.1614 44.1106 50.8557 45.0851L43.8717 40.1631L40.4609 30.8559C38.6201 28.0947 35.1335 15.491 40.4609 11.8528C45.7882 8.21466 48.4193 5.84332 65.1484 7.30496C66.6102 15.5883 66.6102 25.2205 66.6102 27.1696Z" fill="#011529"/>
<path d="M55.8171 285.366C56.9865 282.767 57.9285 273.022 58.2534 268.474C60.9062 268.474 65.9845 268.702 65.0749 269.611C63.938 270.748 65.0749 283.579 65.0749 289.426C65.0749 295.273 65.7246 304.044 65.0749 305.831C64.4253 307.617 58.2534 306.156 54.8426 305.831C51.4318 305.506 49.3203 299.984 49.3203 297.71C49.3203 295.436 54.3553 288.614 55.8171 285.366Z" fill="#ED8648"/>
<path d="M89.7621 277.57C90.1519 275.231 94.5805 260.137 96.7461 252.882L109.902 255.806C108.603 259.812 106.004 268.312 106.004 270.261C106.004 272.697 112.176 276.595 113.8 277.57C115.099 278.349 122.246 279.844 125.657 280.493C127.443 282.605 129.945 287.217 125.657 288.777C121.369 290.336 108.603 287.044 102.756 285.203L99.5072 286.828L89.7621 284.229C89.5997 282.984 89.3723 279.909 89.7621 277.57Z" fill="#ED8648"/>
<path d="M105.756 121.047L48.097 141.788C41.7301 160.238 50.2854 193.211 48.097 216.225C44.0365 232.358 40.3538 269.059 44.122 268.799C48.8321 268.474 54.0295 273.509 59.7142 276.108C65.3988 278.707 79.2044 275.458 80.0165 273.509C75.4688 261.003 84.5643 226.408 88.4623 212.927C91.5808 202.143 89.7617 179.193 88.4623 167.337L103.319 190.188L95.1984 219.636L84.5643 261.215H118.912C123.513 248.6 133.257 214.746 137.675 190.188C142.093 165.631 117.558 131.334 105.756 121.047Z" fill="#FEB3BD"/>
<path d="M83.2181 49.9371C109.465 59.8121 120.429 113.035 121.187 135.015C104.035 161.652 65.9103 161.652 47.611 159.703C44.7417 159.378 37.2487 149.402 29.5825 128.223C21.9163 107.044 25.9925 72.405 31.8938 57.7332C38.0657 51.0199 56.9712 40.062 83.2181 49.9371Z" fill="#88AEFF"/>
<path d="M52.584 38.5674L62.8981 39.058C62.4363 45.4361 69.2097 56.0662 68.44 58.8463C67.6703 61.6265 62.8981 61.463 59.2035 59.664C56.2478 58.2249 53.5589 51.6506 52.584 48.5433V38.5674Z" fill="#543421"/>
<path d="M45.3756 29.3098C45.863 21.676 46.5846 16.8084 50.0857 15.9914C59.8309 13.7175 64.541 12.7429 66.0028 25.5741C66.0028 24.9786 66.2952 24.0799 67.4646 25.2493C68.9264 26.7111 66.4901 29.6346 66.4901 30.4467C66.0028 38.5677 64.541 40.8415 63.7289 42.3033C62.9168 43.7651 58.2066 42.3033 54.3086 42.3033C49.9233 42.3033 49.1654 37.539 48.2992 35.3193C46.9998 35.211 44.5812 34.2789 44.0763 33.3703C43.2641 31.9085 42.452 30.2843 43.2641 29.3098C43.9138 28.5302 44.8884 28.985 45.3756 29.3098Z" fill="#603F2C"/>
<path d="M60.3519 23.3933C60.6016 22.275 61.7644 22.6042 62.0157 23.0057C62.8027 24.701 61.784 25.5781 61.1325 25.4325C60.3707 25.2623 60.1896 24.12 60.3519 23.3933Z" fill="#011429"/>
<path d="M51.217 25.1135C51.1768 23.9684 52.3851 23.994 52.7294 24.3191C53.9182 25.7615 53.1533 26.867 52.4862 26.8902C51.7061 26.9175 51.2431 25.8576 51.217 25.1135Z" fill="#011429"/>
<path d="M50.207 24.2459C50.8026 23.4879 52.351 22.2644 53.7802 23.4338" stroke="#011529" stroke-linecap="round"/>
<path d="M59.4648 22.1346C60.0604 21.3766 62.226 20.8353 63.3629 22.4596" stroke="#011529" stroke-linecap="round"/>
<path d="M57.6719 25.4106C59.1502 26.9055 61.6462 30.4026 59.8036 32.4318" stroke="#B28972" stroke-linecap="round"/>
<path d="M57.0312 34.8032C57.8433 35.4529 60.0198 36.4599 62.2287 35.2905" stroke="#B28972" stroke-linecap="round"/>
<path d="M91.6211 106.917L94.7071 102.856C94.7071 104.318 98.4427 108.054 100.554 109.84C102.666 111.627 100.717 112.926 100.067 113.414C99.4172 113.901 98.4427 115.038 98.1178 115.688C97.793 116.337 97.1433 118.449 95.844 120.398C94.5446 122.347 92.5956 122.184 92.1084 121.859C91.6211 121.535 91.6211 120.398 91.6211 119.261C91.6211 118.124 94.0574 112.764 94.0574 110.653C94.0574 108.963 92.4332 107.458 91.6211 106.917Z" fill="white"/>
<path d="M74.5682 129.169C74.7306 128.194 79.7656 125.108 80.2529 123.646C80.4704 122.994 80.2597 121.536 79.937 120.073L78.7911 116.987L83.1764 113.739C83.826 114.876 83.826 115.525 84.1509 116.987C85.9375 120.398 88.0489 125.108 87.2368 125.92C86.5872 126.57 84.2592 127.707 83.1764 128.194C81.8229 129.602 78.5962 132.417 76.5172 132.417C73.9185 132.417 74.4058 130.143 74.5682 129.169Z" fill="white"/>
<path d="M100.393 102.695C94.8055 110.88 88.4279 112.061 85.9375 111.628L75.7051 86.2902L89.0234 84.666L100.393 102.695Z" fill="#C3E471"/>
<path d="M107.863 86.4527C111.761 82.6846 109.487 74.3796 107.863 70.6981C81.0636 68.9975 67.6666 82.9123 60.7582 91.9747C52.6548 102.605 67.908 114.875 72.4554 123.647L81.0636 119.585L86.5858 113.901L81.0636 94.7361C88.3724 93.545 103.965 90.2208 107.863 86.4527Z" fill="#DDFC8F"/>
<path d="M112 62.3099C112.39 66.5977 110.95 70.3726 109.488 72.1592C103.804 77.6815 84.8002 78.0062 81.7144 75.57C78.6286 73.1337 77.0042 63.0637 76.8418 57.8663C76.6794 52.6689 79.9278 50.5575 81.7144 47.1467C83.501 43.7359 92.9279 37.2391 99.7462 40.0002C103.663 41.5865 111.513 56.95 112 62.3099Z" fill="#ED8648"/>
<path d="M91.2984 45.3608C94.157 43.4118 97.5418 44.2424 99.0577 44.4048C100.676 46.3465 100.999 45.3608 100.999 52.1824C100.999 59.0039 87.5627 71.023 82.5277 72.1599C77.4927 73.2968 62.5502 67.1249 60.4387 67.1249C58.3273 67.1249 55.9733 64.9118 53.8618 61.6634C51.7504 58.415 53.3076 54.6596 57.2057 52.7105C61.1037 50.7615 76.8431 54.1314 78.6297 54.1314C80.4164 54.1314 87.7252 47.7971 91.2984 45.3608Z" fill="#FEB3BD"/>
<path d="M32.2396 55.5879C35.814 51.5577 42.9841 49.9809 46.1223 49.6963C52.5052 49.6963 54.0211 62.8458 54.0211 67.2005C54.0211 71.5552 53.5424 84.7901 55.6966 87.0101C57.8508 89.2302 71.0155 94.7803 80.5898 88.6325C90.1641 82.4847 93.0149 87.8676 93.4138 92.1369C93.8127 96.4063 91.1567 98.2846 80.5898 111.302C66.6147 128.519 49.2359 126.732 43.5512 124.621C36.9694 122.176 22.7219 116.16 15.9401 103.181C9.1583 90.2027 20.1122 77.703 20.9898 71.726C21.8675 65.7489 27.7716 60.6257 32.2396 55.5879Z" fill="#AEC8FF"/>
<path d="M103.24 71.5101C103.24 69.4311 105.189 67.5038 106.163 66.8C107.842 65.663 111.523 63.3892 112.822 63.3892C114.447 63.3892 117.045 71.5101 117.045 75.8954C117.045 80.2807 108.599 85.803 105.351 82.2298C102.103 78.6565 103.24 74.1088 103.24 71.5101Z" fill="#AEC8FF"/>
<path d="M92.338 36.2937L94.4526 34.6334L95.8762 34.3016C96.6033 36.4669 98.0943 40.9558 98.2418 41.5885C94.8499 44.7806 92.7619 42.6435 92.1418 41.1759L92.338 36.2937Z" fill="#603F2C"/>
<path d="M86.6578 33.1791C86.0082 29.0212 90.1746 25.383 92.3402 24.2461C105.009 26.8448 100.461 35.1282 100.461 35.9403C100.461 36.7523 97.2127 38.8638 95.9134 39.3511C94.8739 39.7409 90.557 40.8128 88.6045 40.1631C87.6335 38.539 87.3075 37.3371 86.6578 33.1791Z" fill="#704B36"/>
<path d="M94.9437 20.8354L91.6953 24.5711C94.1316 24.5711 97.7048 25.3832 100.141 28.4691C102.013 30.8404 101.116 34.5328 100.141 36.4277L105.014 33.0169C105.284 32.313 105.761 30.1908 105.501 27.3322C105.241 24.4736 98.3545 21.81 94.9437 20.8354Z" fill="#011429"/>
<path d="M102.577 34.4785L100.791 33.9912L99.0039 36.7523C99.5994 36.5899 101.05 36.2001 102.09 35.9402C103.129 35.6804 102.848 34.8574 102.577 34.4785Z" fill="#704B36"/>
<path d="M89.5713 29.2591C89.9559 28.5237 90.7075 28.9723 90.8079 29.3003C91.0401 30.6339 90.1629 31.0562 89.7345 30.8321C89.2336 30.57 89.3214 29.7369 89.5713 29.2591Z" fill="#011429"/>
<path d="M94.9532 31.3641C95.5892 30.831 96.1129 31.5323 96.0806 31.8738C95.7867 33.1952 94.8147 33.251 94.5041 32.8804C94.141 32.4471 94.5399 31.7105 94.9532 31.3641Z" fill="#011429"/>
<path d="M89.5154 33.666C89.4071 33.9909 89.353 34.7055 90.0026 34.9654" stroke="#B28972" stroke-linecap="round"/>
<path d="M88.7368 35.7319C88.9889 36.5496 90.0283 37.8539 92.1694 36.5299" stroke="#B28972" stroke-linecap="round"/>
<path d="M97.2931 32.3007C97.6034 31.6961 97.716 30.3903 95.6838 30.0034" stroke="#011429" stroke-linecap="round"/>
<path d="M91.7417 28.3578C91.2907 27.9004 90.1397 27.2184 89.1436 28.1497" stroke="#011429" stroke-linecap="round"/>
<path d="M50.3048 45.6321C50.6613 45.3973 50.9083 45.2394 51.0358 45.1531C51.1012 45.1391 51.1687 45.1383 51.2395 45.1458C51.5369 45.1369 52.0761 45.0092 52.2863 45.1374C52.3206 45.1584 52.3523 45.1874 52.3758 45.2251C52.4699 45.376 52.5668 45.6321 52.6746 45.9973C52.7035 46.095 52.8904 47.1838 52.8904 47.3995C52.8904 47.4902 52.8706 47.5264 52.8904 47.6153C52.9087 47.6977 52.7752 47.9607 52.9076 48.3448C53.214 49.2332 53.6908 49.6708 53.7375 49.8307C53.8314 50.1517 53.9237 50.4053 53.8013 50.5609C53.7461 50.6312 53.6696 50.7141 53.5919 50.6916C53.5149 50.6693 53.1142 50.6625 52.6746 49.9982C52.4356 49.6369 52.0718 49.1712 51.893 48.9096C51.9895 49.1143 52.1098 49.3806 52.2493 49.7167C52.4516 50.204 52.6771 50.7941 52.7817 51.1412C52.9126 51.5756 52.9463 51.7279 52.8988 51.8109C52.8755 51.8517 52.8349 51.8879 52.7916 51.8962C52.7106 51.9116 52.5784 51.9111 52.4291 51.8408C52.1804 51.7237 51.7868 51.454 51.3685 50.5314C51.1767 50.1085 50.9019 49.4419 50.7538 49.0924C50.6057 48.7428 50.585 48.7112 50.5487 48.6812C50.5124 48.6513 50.4463 48.6225 50.451 48.6578C50.468 48.7847 50.5675 49.1121 50.8405 49.667C51.0095 50.0105 51.2662 50.4579 51.4638 50.8796C52.0321 52.092 52.1517 52.3678 52.0602 52.6365C52.0414 52.6915 52.0147 52.7319 51.9745 52.7445C51.8142 52.7946 51.5903 52.7835 51.4168 52.6889C51.1908 52.5656 50.6032 52.1478 50.3054 51.263C50.0767 50.5836 49.6208 50.0459 49.4678 49.7167C49.466 49.7129 49.4644 49.709 49.4629 49.7051C49.3613 49.4643 49.3163 49.3239 49.3012 49.2368C49.2809 49.1191 49.3176 49.1053 49.3855 49.1533C49.5685 49.2824 49.3998 49.5405 49.4629 49.7051C49.4986 49.7897 49.5413 49.8867 49.5921 49.9982C49.7877 50.4268 50.1097 51.0431 50.3215 51.5263C50.8481 52.7282 50.9722 53.0852 50.8219 53.2579C50.7496 53.341 50.6496 53.4302 50.5266 53.4554C50.4247 53.4762 50.3015 53.4979 50.1945 53.4445C50.1042 53.3995 49.9238 53.2395 49.722 52.9732C49.5707 52.7736 49.4144 52.4835 49.0479 51.8572C48.7921 51.4203 48.5647 50.6801 48.36 50.3119C48.1208 49.8818 48.0989 49.6075 48.183 49.2368C48.2919 48.7569 48.1856 48.3457 48.515 47.7531C48.7128 47.3973 48.9954 46.9502 49.3248 46.5603C49.6542 46.1704 50.0062 45.8288 50.3048 45.6321Z" fill="#704B36"/>
<path d="M59.3047 37.4018L59.7919 41.1374L62.0658 40.8126L60.4416 36.9146L59.3047 37.4018Z" fill="#011429"/>
<path d="M54.5951 33.1789L59.1428 32.5293C59.7925 32.4365 62.3371 32.4906 63.5281 32.5293L66.1268 35.2904L65.1523 37.5643L63.2033 34.6407C62.5536 34.4242 60.9944 33.991 59.9549 33.991C58.9154 33.991 56.5983 34.4242 55.5696 34.6407L54.1078 40.163L51.834 39.5133C52.1588 38.2681 52.8085 35.6802 52.8085 35.2904C52.8085 34.9006 53.9996 33.7203 54.5951 33.1789Z" fill="#011429"/>
<path d="M52.1581 39.5131L48.0977 35.4526C48.5308 37.0227 50.4365 43.8335 50.6964 44.8729C51.0212 46.1723 54.432 46.6595 55.8938 46.6595C57.9737 46.6595 65.3141 44.7105 67.1007 43.736C68.53 42.9564 68.8873 40.5959 68.8873 39.5131L66.451 30.5801C65.9096 33.2871 64.7294 38.7335 64.3395 38.8634C63.8523 39.0259 59.467 40.8125 58.6549 40.8125C58.0052 40.8125 54.053 39.9462 52.1581 39.5131Z" fill="#011429"/>
<path d="M51.146 50.2984C51.421 50.5813 52.0878 51.2833 52.9467 52.0333C52.9738 52.0325 53.0046 52.0306 53.0403 52.0275C53.7164 51.9118 54.1456 51.8377 54.2817 51.591C54.351 51.4654 54.4078 51.3402 54.4339 51.2135C54.5252 50.77 54.1725 49.3115 54.5059 48.751C54.5399 48.6938 54.5945 48.6171 54.6534 48.6373C54.9317 48.7327 55.2695 48.9787 55.6295 49.7623C55.7406 50.0042 55.7475 50.9335 56.0275 52.3628C56.2379 53.437 56.4409 54.1871 56.4214 54.6889C56.41 54.9837 56.3799 55.1668 56.2113 55.401C55.6017 56.2475 55.2798 57.0301 54.7586 57.2317C54.2853 57.4148 53.0461 57.6727 51.9367 57.3644C51.3273 57.1951 50.8241 56.9039 50.5804 56.6935C50.2636 56.42 49.8624 56.0995 49.6317 56.0069C49.3599 55.8977 49.0482 55.7512 48.8021 55.6024C48.3113 55.3057 47.0254 54.8661 46.9003 54.3631C46.8567 54.1878 46.8677 53.96 46.979 53.7199C47.0068 53.6598 47.0442 53.5836 47.1455 53.6082C47.4186 53.6743 47.8297 53.751 48.1979 53.9174C48.811 54.1945 49.4235 54.6873 49.7257 54.4558C49.7713 54.4209 49.7368 54.3682 49.6871 54.3271C49.5864 54.2437 48.8895 53.8736 47.9342 53.2766C47.4478 52.9727 47.2288 52.8248 47.1302 52.6607C46.9543 52.3679 46.5436 51.5479 46.87 51.4327C47.0089 51.3836 47.4807 51.1858 48.2539 51.8207C48.9282 52.3744 49.64 53.3235 50.2252 53.464C50.4069 53.5076 50.5665 53.5128 50.716 53.4799C50.7862 53.4645 50.8442 53.4443 50.816 53.39C50.7877 53.3358 50.6777 53.2486 50.2791 52.9647C49.2176 52.2087 48.3956 51.6515 48.2481 51.4112C48.0661 51.1146 47.6559 50.2348 48.0696 49.9781C48.1471 49.93 48.2867 49.8896 48.4168 49.9321C49.0387 50.1349 49.7099 50.488 50.0622 50.9851C50.4614 51.548 50.8593 52.0649 51.1864 52.0798C51.2562 52.0829 51.3474 52.0659 51.3304 52.0283C51.2337 51.8151 50.233 51.1263 50.0869 50.3773C50.0397 50.1351 50.0103 49.8952 50.1091 49.8192C50.1517 49.7864 50.2152 49.7897 50.2772 49.8092C50.5435 49.893 50.8803 50.0251 51.146 50.2984Z" fill="#8A6047"/>
<path d="M88.4138 85.9893C88.4725 85.8793 89.2253 84.8148 90.0378 82.937C90.2911 82.3515 90.3071 81.5231 90.3724 80.4573C90.4377 79.3915 90.4431 78.088 90.4871 77.2328C90.5502 76.0064 90.9428 75.0578 91.3429 74.1273C91.5507 73.6441 91.7162 73.4029 91.9095 73.2186C91.9926 73.1393 92.0967 73.1322 92.1848 73.1588C92.5984 73.2839 93.0425 73.9574 92.5094 75.9122C92.1858 77.0987 92.5094 77.5473 92.5094 78.2084C92.5094 78.5662 93.2882 78.2619 93.4316 78.2084C93.7987 78.0714 93.9564 77.9293 94.4139 77.5169L94.4331 77.4996C94.8665 77.109 95.2098 76.5134 95.8258 75.3001C96.2589 74.447 96.8381 73.0784 97.1904 72.2448C97.6518 71.1531 97.7157 70.7087 97.8269 69.5609C97.9224 68.5755 98.14 66.7751 98.263 65.8049C98.3861 64.8346 98.419 64.75 98.4768 64.6822C98.5346 64.6143 98.6162 64.5659 98.7098 64.541C98.8034 64.516 98.9065 64.5159 98.9801 64.5467C99.7656 64.8757 99.5999 66.4676 99.6867 67.6813C99.7542 68.6267 99.6924 69.4689 99.6143 70.1272C99.6669 69.8757 99.7154 69.6285 99.758 69.3906C100.019 67.9365 100.046 66.8838 100.047 66.2674C100.05 65.2575 99.9279 65.2558 99.9206 64.0358C99.9191 63.789 100.065 63.544 100.136 63.4964C100.46 63.2808 100.731 63.4204 100.891 63.4964C101.234 63.6592 101.3 64.1436 101.42 64.9062C101.451 65.1052 101.53 65.2482 101.534 65.9722C101.538 66.6179 101.49 67.8284 101.408 69.0066C101.355 69.7715 101.299 70.394 101.248 70.8695C101.264 70.7974 101.281 70.7217 101.3 70.6423C101.446 70.0166 101.681 69.17 101.807 68.2533C101.934 67.3366 101.944 66.3754 101.945 65.7349C101.945 65.0943 101.936 64.8034 101.984 64.6512C102.031 64.4991 102.095 64.3927 102.186 64.3594C102.401 64.2803 102.778 64.1436 103.153 65.2223C103.272 65.5632 103.384 65.9197 103.369 67.2717C103.364 67.7723 103.356 68.6204 103.369 69.2133C103.382 69.8063 103.22 71.2169 103.06 72.1522C102.951 72.7851 102.86 73.3511 102.765 73.8546C103.02 73.1587 103.219 72.1436 103.369 71.1402C103.669 69.1374 103.649 68.0082 103.699 67.8215C103.722 67.7357 103.763 67.6726 103.817 67.6188C103.871 67.565 103.942 67.5235 104.057 67.4997C104.173 67.4759 104.33 67.4711 104.446 67.5083C104.562 67.5454 104.631 67.6247 104.68 67.7109C104.777 67.8805 104.791 68.6676 104.805 70.0029C104.812 70.6518 104.817 71.2424 104.761 71.9064C104.642 73.2941 104.434 74.1047 104.372 74.2969C104.16 74.9568 103.657 76.5034 103.153 77.6067C102.682 78.637 101.814 79.5043 101.449 80.0376C101.256 80.3206 101.083 80.5896 100.707 81.0024C100.204 81.5544 99.3599 82.1926 98.2851 83.1285C96.8739 84.3574 96.0004 85.1668 95.7535 85.3213C95.1439 85.7027 94.6152 86.1465 94.1031 86.8365C93.4473 87.7204 92.8972 88.6798 92.5094 89.398C92.4019 89.3954 91.9704 89.3954 91.6468 89.3954C91.3232 89.3954 91.1412 89.3707 90.8917 89.2876C90.8001 89.257 90.5561 89.1982 90.4603 89.1797C89.9038 89.0725 89.9054 89.0196 89.2733 88.6404C88.734 88.3168 88.5187 88.101 88.4104 87.4538C88.3392 87.0283 88.4104 86.8066 88.4138 86.483C88.4146 86.4032 88.4667 86.1347 88.4138 85.9893Z" fill="#603F2C"/>
<path d="M101.767 74.9896C101.906 75.0611 102.03 75.1214 102.135 75.1687C102.54 75.2521 103.092 75.2278 103.898 75.0674C105 74.7906 105.726 74.7886 106.171 75.1546C106.544 75.4612 106.871 75.8374 107.036 76.5577C107.404 78.1729 107.44 78.8515 107.111 79.2817C106.853 79.6196 106.603 80.0162 104.337 80.8436C103.606 81.1105 102.848 81.3173 101.869 81.5333C100.89 81.7493 99.7252 81.9771 99.0146 82.0926C98.0608 82.2477 97.3417 82.4132 96.4932 82.2872C95.7367 82.1749 94.8394 81.8279 93.6815 81.5081C92.4754 81.1749 91.7694 81.0044 91.6083 80.9119C91.4263 80.8075 90.5176 80.1778 88.9697 78.894C88.1636 78.2254 87.3221 77.5155 86.7359 76.9005C85.7459 75.8621 85.1471 75.1644 84.915 74.6952C84.7823 74.4271 84.7691 74.1387 84.8837 73.82C84.9687 73.5836 85.0551 73.2599 85.239 73.3064C85.5276 73.3796 86.1925 73.5307 86.7854 73.933C86.6503 73.7625 86.5254 73.6034 86.4148 73.4608C85.537 72.3282 85.3543 72.0544 85.3886 71.8538C85.4326 71.5965 85.4901 71.3273 85.6521 71.304C85.7522 71.2896 85.9098 71.318 86.0276 71.3723C86.2133 71.4578 86.7517 72.107 87.6521 72.9764C86.7635 71.9856 86.3328 71.4423 86.1265 70.7048C86.0209 70.3273 86.0037 69.6956 86.2676 69.3125C86.3704 69.1632 86.5024 68.9069 86.7322 68.9312C87.0161 68.9613 87.2753 69.034 87.4126 69.178C87.7623 69.5447 87.9523 70.1055 88.5509 70.7826C88.799 71.0633 89.5239 71.5399 90.8212 72.7121C90.8647 72.7514 90.9087 72.7916 90.9533 72.8325C90.6028 72.2191 90.2603 71.5969 90.0125 71.279C89.3953 70.4872 89.4222 70.1344 89.3449 69.9674C89.1685 69.5866 88.9557 69.0867 89.0659 68.7523C89.0937 68.6681 89.1334 68.5552 89.2771 68.5795C89.669 68.6461 90.2461 68.6987 90.8964 69.5586C91.7051 70.6278 92.2774 71.4385 93.0631 72.1908C93.7267 72.8263 94.8089 74.0735 95.578 74.5191C97.022 75.3558 98.4046 75.8337 98.725 75.5723C98.7805 75.527 98.8148 75.4429 98.7896 75.3634C98.7373 75.1989 98.4983 74.8098 97.7968 73.9123C97.1339 73.0643 96.8413 72.4974 96.6686 72.1318C96.4722 71.7158 96.085 71.2087 96.2511 70.8325C96.2886 70.7475 96.3364 70.6607 96.458 70.6846C96.7783 70.7475 97.3922 70.9362 97.7637 71.279C98.1022 71.5913 98.433 72.5851 99.3136 73.3616C100.063 74.0228 101.088 74.6398 101.767 74.9896Z" fill="#704B36"/>
</svg>
