<svg width="178" height="257" viewBox="0 0 178 257" fill="none" xmlns="http://www.w3.org/2000/svg">
<path d="M85.5207 226H152.521C168.521 226 178.021 234 177.521 242C177.021 250 159.521 247 149.021 252.5C138.521 258 77.5207 253.5 56.0207 256C34.5207 258.5 -0.97932 248 0.0206796 242C1.02068 236 11.5207 239.5 12.5207 234C13.5207 228.5 77.0207 226 85.5207 226Z" fill="#EBECDD"/>
<path d="M47.9183 139.829C45.1166 139.066 43.2799 137.955 42.9264 136.476C42.6793 135.029 41.6541 134.484 42.3333 131.354C43.1823 127.442 45.7499 126.054 47.9183 124.924C50.9579 123.339 52.459 123.596 55.8196 124.253C59.1802 124.911 59.6325 126.844 61.189 129.77C62.7454 132.695 60.1085 137.057 58.4459 138.405C56.7833 139.753 51.4204 140.782 47.9183 139.829Z" fill="#011529"/>
<path d="M39.5529 128.267C39.0881 127.183 39.7803 126.105 40.1676 125.846C41.5862 124.031 43.91 125.459 44.7814 125.846C45.6528 126.234 44.975 127.977 44.7814 128.945C44.5877 129.913 43.0386 130.494 41.5862 130.494C40.1339 130.494 40.1338 129.623 39.5529 128.267Z" fill="#011529"/>
<path d="M45.2998 126.838C44.8479 126.838 44.3122 127.864 44.2347 128.484C44.1379 129.258 43.1697 130.42 42.6855 130.42" stroke="#FEB3BD" stroke-linecap="round"/>
<path d="M58.1491 124.893C57.6416 125.815 56.2764 125.541 55.8822 125.411C53.1103 125.931 53.3325 123.127 53.1265 122.302C52.9205 121.476 54.5182 120.484 55.3054 120.088C56.0926 119.693 57.3516 120.464 58.149 121.485C58.9463 122.506 58.7834 123.741 58.1491 124.893Z" fill="#011529"/>
<path d="M57.9829 125.289C57.8534 124.856 56.652 126.141 55.3686 125.096C54.7635 124.603 53.6677 124.456 53.529 123.992" stroke="#FF9657" stroke-linecap="round"/>
<path d="M43.4141 229.76L48.3434 230.116C48.154 232.733 48.1181 236.78 48.6353 238.763C49.2819 241.242 52.1273 240.938 53.68 241.33C56.4734 242.037 61.2922 242.019 59.2261 244.576C57.1599 247.134 54.6172 246.766 51.6961 246.555C48.775 246.344 47.1875 246.091 44.8042 246.056C42.8976 246.028 42.3829 244.856 42.3639 244.274L43.4141 229.76Z" fill="#011429"/>
<path d="M30.249 221.586L35.0539 222.73C33.6811 227.215 32.6286 230.509 34.1387 231.608C35.3002 232.452 41.6435 237.145 42.0096 238.151C42.3757 239.158 41.4678 240.028 40.1792 240.028C38.6233 240.028 35.0539 239.479 32.4456 237.053C31.0345 235.741 27.5796 234.063 27 233.896L30.249 221.586Z" fill="#011529"/>
<path d="M36.8457 181.364C39.3112 173.88 44.3604 173.084 46.5769 173.621L53.3966 177.888C51.5822 194.414 46.9775 227.728 43.0737 228.776C39.1699 229.825 32.1256 225.514 29.0914 223.227C30.6489 212.391 34.3802 188.847 36.8457 181.364Z" fill="#9BBBFF"/>
<path d="M36.8457 181.364C39.3112 173.88 44.3604 173.084 46.5769 173.621L53.3966 177.888C51.5822 194.414 46.9775 227.728 43.0737 228.776C39.1699 229.825 32.1256 225.514 29.0914 223.227C30.6489 212.391 34.3802 188.847 36.8457 181.364Z" fill="#88AEFF"/>
<path d="M38.5987 188.079C40.063 180.245 45.9509 178.622 48.7119 178.79L57.7268 181.901C58.8403 198.604 59.9508 232.431 55.4845 234.115C51.0183 235.799 41.7257 232.681 37.6377 230.911C37.3479 219.898 37.1343 195.913 38.5987 188.079Z" fill="#9BBBFF"/>
<path d="M38.5987 188.079C40.063 180.245 45.9509 178.622 48.7119 178.79L57.7268 181.901C58.8403 198.604 59.9508 232.431 55.4845 234.115C51.0183 235.799 41.7257 232.681 37.6377 230.911C37.3479 219.898 37.1343 195.913 38.5987 188.079Z" fill="#9BBBFF"/>
<path d="M34.7464 157.592C33.6681 159.497 31.7797 171.753 30.9219 176.057C32.8826 186.224 57.7357 191.307 60.8402 186.224C63.9446 181.141 57.6213 148.891 56.5592 146.693C52.2702 140.098 42.7924 144.583 41.1187 146.693C38.8944 149.497 36.0944 155.21 34.7464 157.592Z" fill="#FEB3BD"/>
<path d="M67.7478 154.078C68.5532 154.005 70.0054 155.329 70.6308 156C70.6308 168.813 64.5903 172.794 63.6751 173.847C62.8869 174.753 58.8702 177.645 49.3977 174.853C39.9251 172.062 42.8538 156.503 42.2132 154.581C41.5725 152.659 44.0436 148.266 47.5214 146.344C50.9993 144.422 55.6212 149.044 55.9872 149.914C56.3533 150.783 58.0465 152.797 59.6481 154.078C61.2498 155.359 66.7411 154.169 67.7478 154.078Z" fill="#FF9657"/>
<path d="M52.7839 139.801L52.372 144.377C50.8711 145.292 48.9857 144.545 48.2993 143.965L50.267 138.932L52.7839 139.801Z" fill="#694631"/>
<path d="M47.9747 131.077C49.9887 128.583 49.9567 128.935 52.3726 127.308C57.6931 127.72 59.1453 130.236 59.6029 130.053C60.0605 129.87 60.2436 130.099 60.4724 130.785C60.7012 131.472 59.6029 132.021 59.8317 133.028C60.0605 136.139 58.8192 139.628 54.5635 140.223C50.3077 140.818 47.705 137.558 47.4304 137.558C44.6847 136.551 44.8678 134.858 45.6 134.858C46.5681 133.028 47.1226 132.132 47.9747 131.077Z" fill="#704E3A"/>
<path d="M50.7096 134.047C50.5573 133.342 51.3143 133.222 51.5653 133.385C52.4675 134.145 52.113 134.916 51.6992 135.006C51.2154 135.11 50.8086 134.505 50.7096 134.047Z" fill="#011429"/>
<path d="M55.5597 132.308C55.4074 131.602 56.1644 131.483 56.4154 131.646C57.3176 132.406 56.9631 133.177 56.5493 133.266C56.0655 133.371 55.6587 132.766 55.5597 132.308Z" fill="#011429"/>
<path d="M51.451 132.678C51.0392 132.632 50.1606 132.742 49.9409 133.547" stroke="#011429" stroke-width="0.5" stroke-linecap="round"/>
<path d="M54.9153 136.419C55.3102 136.294 55.6966 136.019 55.57 135.194" stroke="#B28972" stroke-width="0.5" stroke-linecap="round"/>
<path d="M54.0162 137.813C54.9749 138.117 55.7071 137.934 56.119 137.252" stroke="#B28972" stroke-width="0.5" stroke-linecap="round"/>
<path d="M56.8972 131.167C56.5704 130.912 56.0735 130.572 55.387 131" stroke="#011429" stroke-width="0.5" stroke-linecap="round"/>
<path d="M68.4403 154.82C67.9746 154.591 67.3689 154.37 67.1816 154.366C67.3113 154.01 67.4715 153.611 67.5215 153.516C67.695 153.089 67.8741 152.601 67.9437 151.031C68.1266 150.384 68.3487 149.979 68.6811 149.54C69.3986 148.594 69.9788 148.014 70.0038 147.515C70.0225 147.144 70.0089 146.778 69.8262 146.687C69.6461 146.597 68.2935 147.011 68.0366 146.373C67.9931 146.265 68.0034 146.096 68.054 145.981C68.1046 145.865 68.1886 145.796 68.2972 145.755C68.7537 145.585 69.2231 145.339 69.9423 145.306C71.4376 145.237 71.834 144.685 72.1684 144.895C72.3327 144.998 72.486 145.169 72.5741 145.388C72.7491 145.823 72.7968 146.551 72.8942 147.171C73.0965 148.459 72.763 149.441 72.1684 150.27C71.7785 150.814 71.1908 151.454 70.8609 152.109C70.4994 152.827 70.5704 153.852 70.28 154.82C70.2289 154.991 70.0863 155.885 69.8927 155.885C69.699 155.885 68.9361 155.064 68.4403 154.82Z" fill="#704E3A"/>
<path d="M107.451 220.103H113.72V228.477L111.203 237.126C110.654 240.756 108.732 247.879 105.438 247.33C101.319 246.644 100.999 244.31 99.6717 241.473C98.3447 238.636 100.678 235.524 103.333 231.772C105.456 228.77 106.963 222.741 107.451 220.103Z" fill="#011429"/>
<path d="M135.09 218.684L141.36 220.285C140.225 228.266 145.28 231.756 147.949 232.503C151.305 233.373 157.614 235.862 156.003 238.864C154.392 241.866 152.663 242.388 149.551 242.388C145.387 241.198 140.627 238.489 139.346 238.269C137.745 237.995 133.489 234.517 133.489 233.785V229.346L135.09 218.684Z" fill="#011429"/>
<path d="M103.287 190.587L121.546 192.006C122.498 203.061 119.929 217.327 118.526 223.077C111.716 228.093 103.485 220.987 100.221 216.808L103.287 190.587Z" fill="#C0DEFF"/>
<path d="M127.677 195.85L148.041 192.326V221.888C146.195 223.108 141.772 225.549 138.843 225.549C135.914 225.549 131.308 222.498 129.37 220.973L127.677 195.85Z" fill="#C0DEFF"/>
<path d="M157.423 148.165V198.274C137.7 196.214 122.873 202.392 117.565 202.804C113.318 203.134 100.45 201.294 94.5469 200.333V161.299C94.5469 144.532 104.126 110.504 108.916 95.5859C121.927 96.2571 148.527 98.176 150.833 100.482C153.716 103.365 157.423 139.928 157.423 148.165Z" fill="#FF9657"/>
<path d="M77.769 126.066C77.9544 125.742 78.1065 125.474 78.2314 125.253C78.3021 125.147 78.3424 125.101 78.3843 125.043C78.4263 124.986 78.4733 124.925 78.5122 124.866C78.6601 124.631 78.9578 124.279 79.1903 123.782C79.538 123.038 80.347 121.889 81.3081 121.786C82.911 121.614 83.4867 121.555 83.8307 121.77C83.985 121.866 84.1588 122.006 84.5634 122.554C85.4472 123.751 86.0399 124.613 86.054 124.826C86.0684 125.043 86.0676 125.223 86.0092 125.391C85.9244 125.635 85.5229 126.479 84.3837 127.829C83.7256 128.61 82.8083 129.482 82.3689 130.017C81.6625 130.877 81.3328 131.411 80.908 132.573C80.5496 133.554 80.3547 134.195 80.3292 134.359C80.3058 134.509 80.5272 135.678 80.6621 137.491C80.7167 138.225 80.6726 138.609 80.5805 139.076C80.4885 139.543 80.3527 140.076 80.0664 140.851C79.7802 141.627 79.3363 142.607 79.1418 143.148C78.9223 143.759 78.8996 143.95 78.7208 144.322C78.3774 145.036 78.0679 145.864 77.7495 146.406C77.3813 147.033 76.892 147.751 76.4603 147.695C76.2539 147.669 76.0684 147.622 75.9472 147.517C75.8281 147.415 75.6967 147.293 75.6751 147.106C75.6183 146.613 75.7695 146.105 76.2519 144.49C76.4563 143.805 76.7169 142.846 76.8394 142.31C76.9848 141.675 76.9498 140.829 76.7285 139.709C76.6235 139.178 76.5763 138.883 76.4054 138.867L76.4048 138.867C76.2201 138.85 75.7852 138.809 75.0845 139.449C74.6354 139.86 74.6512 140.225 74.1142 141.944C73.8867 142.671 73.5177 143.636 73.1798 144.397C72.8418 145.158 72.5439 145.698 72.3612 146.016C72.1785 146.335 72.113 146.428 71.424 147.205C70.7351 147.981 69.3967 149.347 68.799 150.163C68.019 151.229 68.3579 151.541 67.9566 151.623C67.7357 151.669 67.9566 151.914 67.3756 152.01C67.0639 152.062 66.9782 151.81 66.6979 151.526C66.6018 151.429 65.8428 151.607 66.0207 150.364C66.111 149.734 65.9594 149.477 66.1169 148.912C66.4144 147.846 66.6705 147.471 67.0846 146.406C68.0089 144.028 67.6387 143.423 68.799 141.944C69.9592 140.465 70.573 137.232 72.6942 134.135C74.8154 131.038 76.7973 127.765 77.769 126.066Z" fill="#6A4732"/>
<path d="M107.364 18.7821C109.074 14.4744 111.163 11.7417 114.238 11.2305C133.796 7.97867 138.429 23.4453 136.604 29.3356C134.474 36.2103 134.861 36.5008 125.082 41.0512C119.757 43.5292 114.172 39.9708 112.302 38.8245C109.3 36.9849 107.093 36.103 106.008 30.207C104.923 24.3111 105.225 24.1669 107.364 18.7821Z" fill="#011429"/>
<path d="M177.694 89.4548C173.338 56.7631 151.839 45.4174 141.635 43.8311C139.713 60.366 136.528 94.2506 139.164 97.5088C142.458 101.581 177.694 96.4563 177.694 89.4548Z" fill="#FEB3BD"/>
<path d="M79.8653 126.45C84.0753 128.902 90.5621 128.86 93.0332 126.45C100.904 122.524 99.8546 119.455 101.319 111.466C102.661 110.962 106.719 109.507 112.21 107.713C119.074 105.471 137.333 109.818 145.112 109.956C151.336 110.065 156.949 107.317 158.978 105.929C155.82 102.954 144.334 46.302 141.543 43.4648C110.242 36.2345 96.0564 53.5322 94.0887 57.4677C92.121 61.4031 87.0873 74.0789 84.4789 82.4074C81.8704 90.736 86.2467 78.0728 77.7351 100.404C69.2236 122.736 74.6028 123.384 79.8653 126.45Z" fill="#FEB3BD"/>
<path d="M123.851 35.7764C125.242 35.7764 127.694 38.339 128.747 39.6203C129.296 40.2915 130.879 41.8717 132.82 42.8236C135.245 44.0134 138.86 43.4642 138.769 45.2031C138.677 46.9421 135.108 52.4791 131.401 53.852C127.694 55.2248 121.334 54.9502 117.032 52.4791C112.731 50.008 112.593 46.2099 113.692 46.0268C114.79 45.8438 118.13 43.6015 119.366 40.9016C120.602 38.2017 122.112 35.7764 123.851 35.7764Z" fill="#623F2B"/>
<path d="M112.427 24.5882C112.841 22.8066 113.299 20.8309 116.529 17.9297L116.555 17.9338C119.538 18.3926 125.416 19.2966 128.701 24.1073C129.128 24.7332 130.074 22.7803 130.669 27.1276C130.991 29.4851 129.662 29.5987 129.662 30.6969C129.662 35.8678 127.557 38.9339 125.406 40.6729C118.634 41.3135 115.522 35.9594 114.424 35.4561C113.325 34.9527 111.541 33.7172 111.037 32.3444C110.635 31.2461 111.449 31.0631 111.907 31.1089C111.907 27.7859 111.986 26.488 112.42 24.621L112.427 24.5882Z" fill="#6A4732"/>
<path d="M115.113 29.267C115.07 28.7038 115.321 27.7328 116.673 27.8368" stroke="#011429" stroke-width="0.5" stroke-linecap="round"/>
<path d="M122.264 25.6446C122.668 25.2499 123.692 24.9773 124.601 25.8871" stroke="#011429" stroke-width="0.5" stroke-linecap="round"/>
<path d="M125.118 36.3084C124.763 37.0581 123.631 38.0471 122.262 37.4842" stroke="#B28972" stroke-width="0.5" stroke-linecap="round"/>
<path d="M123.432 35.7649C122.912 35.7649 121.742 37.0645 120.053 31.9934" stroke="#B28972" stroke-width="0.5" stroke-linecap="round"/>
<path d="M122.731 27.4713C122.556 26.5713 123.514 26.4397 123.827 26.6535C124.948 27.644 124.482 28.6137 123.958 28.716C123.345 28.8355 122.846 28.0561 122.731 27.4713Z" fill="#011429"/>
<path d="M115.91 29.9518C115.735 29.0518 116.693 28.9202 117.006 29.1339C118.126 30.1244 117.661 31.0942 117.137 31.1964C116.523 31.316 116.024 30.5365 115.91 29.9518Z" fill="#011429"/>
<path d="M162.861 77.6574C162.861 80.8057 158.681 82.7826 156.592 83.3775C154.075 87.1299 146.204 88.5485 136.182 93.2161C126.161 97.8838 118.29 92.1636 115.224 88.5485C112.158 84.9334 116.322 81.5928 118.29 77.6574C120.257 73.7219 130.462 71.022 136.182 67.6357C141.902 64.2494 151.428 63.5077 159.109 65.8053C165.309 67.66 162.861 73.7219 162.861 77.6574Z" fill="#DFFC8E"/>
<path d="M150.247 66.6626C152.961 66.4063 154.275 67.1964 154.911 67.9441C157.666 70.4004 155.317 73.9718 154.487 75.4203C153.679 76.83 149.498 76.0051 146.99 74.1655C144.085 72.0354 145.284 69.8084 145.902 68.4782C146.409 67.3878 146.856 66.983 150.247 66.6626Z" fill="#704E3A"/>
<path d="M148.61 68.8397C149.094 68.6138 149.772 68.6461 149.965 69.4206" stroke="#011429" stroke-width="0.5" stroke-linecap="round"/>
<path d="M149.191 70.2917C149.578 70.195 149.869 70.2918 149.965 70.6789M147.642 71.7441C147.932 72.325 148.319 72.6155 149.191 72.8091" stroke="#B28972" stroke-width="0.5" stroke-linecap="round"/>
<path d="M152.096 70.4857C152.58 70.2598 153.354 70.5822 153.548 71.3571" stroke="#011429" stroke-width="0.5" stroke-linecap="round"/>
<path d="M154.129 67.4844C154.323 67.3105 155.391 67.3346 155.581 67.9685C155.872 68.9367 157.175 68.3144 157.324 68.0653C157.615 67.581 157.13 66.8516 156.588 67.3944C156.2 67.7817 156.781 68.3627 156.878 68.3628C157.015 68.3628 157.905 68.9365 158.486 68.0653" stroke="#011429" stroke-width="0.5" stroke-linecap="round"/>
<path d="M158.52 80.669C162.877 79.168 168.511 80.7452 170.784 81.7215C172.34 81.7215 177.923 86.0688 177.923 88.9518C177.923 91.8347 177.648 90.0043 173.576 96.4108C169.503 102.817 156.598 100.85 146.988 103.183C137.379 105.517 135.319 99.7971 133.306 97.8752C131.292 95.9532 134.908 90.5534 137.653 90.0043C140.399 89.4551 142.092 87.4416 145.112 85.2909C148.132 83.1401 153.075 82.5452 158.52 80.669Z" fill="#FEB3BD"/>
<path d="M136.068 94.6636C135.926 95.2725 136.023 94.7883 135.926 95.2725C135.895 95.4249 135.698 95.6938 135.635 95.7566C135.539 95.8534 135.539 95.8534 135.248 95.8534C134.757 95.8534 135.083 95.8278 134.482 95.7699C133.21 95.6471 131.854 96.0776 130.764 95.9674C129.967 95.8866 129.377 95.7859 126.156 95.6109C125.126 95.5549 124.695 95.3789 124.232 95.1212C123.488 94.7078 122.753 94.3067 121.994 93.7624C121.52 93.4221 120.958 92.9921 120.504 92.2263C120.238 91.7777 120.021 91.3378 120.127 90.8497C120.151 90.7372 120.19 90.6342 120.31 90.5866C120.591 90.4752 120.92 90.3934 121.069 90.5566C121.547 91.0812 122.133 91.8864 122.85 92.2399C122.777 92.1924 122.707 92.1446 122.641 92.0964C122.279 91.8333 121.914 91.4826 120.399 89.7355C119.507 88.7074 118.794 87.6519 118.981 86.9945C119.005 86.9072 119.052 86.8183 119.139 86.7782C119.319 86.6948 119.545 86.6304 119.725 86.7229C119.893 86.8097 120.035 86.9682 120.19 87.1537C120.49 87.5115 120.522 88.0181 121.348 88.6834C122.435 89.5598 125.431 92.0294 124.913 91.5729C123.97 90.7427 123.324 90.0299 122.606 89.2871C121.955 88.6137 121.225 87.9059 120.892 87.1771C120.557 86.4461 119.932 85.1854 120.029 84.5826C120.045 84.4839 120.091 84.3926 120.16 84.332C120.23 84.2713 120.325 84.2241 120.412 84.2512C120.587 84.3064 121.008 84.6445 121.468 85.2177C121.974 85.847 122.267 87.0578 123.286 87.9785C123.881 88.5164 128.585 92.2108 126.503 90.5589C126.269 90.3731 124.996 88.8638 123.738 87.4666C122.771 86.3913 122.124 85.6357 121.989 85.3849C121.653 84.7585 121.353 84.1022 121.513 83.7673C121.552 83.687 121.62 83.6031 121.703 83.6058C121.873 83.6114 122.229 83.7938 122.561 84.133C123.293 84.8824 124.288 86.0867 125.653 87.1488C127.342 88.4619 128.561 89.4519 128.969 89.6451C129.227 89.7672 129.472 89.8429 129.745 89.8104C130.247 89.7506 130.897 89.7993 131.348 89.5434C131.445 89.4883 131.524 89.4014 131.539 89.3069C131.554 89.2125 131.518 89.1025 131.404 88.9994C130.914 88.5578 130.098 87.8877 129.138 86.9159C128.54 86.3105 128.07 86.1831 127.822 85.8339C127.758 85.7453 127.729 85.6255 127.726 85.5098C127.724 85.394 127.732 85.2628 127.829 85.2101C128.042 85.0939 128.278 84.9801 128.477 85.0245C129.408 85.2327 131.274 85.7614 132.331 86.6131C133.225 87.3327 133.723 87.8863 134.785 88.9421C135.278 89.4314 136.211 89.7598 136.707 90.2362C137.054 90.5693 137.278 90.9326 137.331 91.3313C137.388 91.7555 137.296 92.1709 137.039 92.6143C136.559 93.4449 136.203 94.0886 136.068 94.6636Z" fill="#6A4732"/>
<path d="M114.647 13.6009L119.088 13.233C121.326 15.9659 133.018 17.4391 132.883 9.38404C132.83 6.19156 125.734 3.00184 121.902 2.70518C120.38 2.58735 113.517 3.9562 111.173 6.79143C109.297 9.0596 113.226 13.1601 114.647 13.6009Z" fill="#011429"/>
</svg>
