<svg width="114" height="184" viewBox="0 0 114 184" fill="none" xmlns="http://www.w3.org/2000/svg">
<path d="M56.6282 161.992C61.8537 155.528 74.0463 153.014 76.2236 155.109H85.1307C88.3966 155.109 93.7408 159.149 99.0851 161.244C104.429 163.339 103.093 164.087 102.648 167.828C102.203 171.569 108.289 175.31 91.069 179.799C73.8487 184.288 58.8551 184.737 54.1047 176.956C49.3543 169.175 50.0964 170.073 56.6282 161.992Z" fill="#E8E8E7"/>
<path d="M3.58801 163.996C6.94725 160.062 14.7853 158.531 16.185 159.806H21.911C24.0105 159.806 27.4461 162.266 30.8817 163.541C34.3173 164.816 33.4584 165.271 33.1721 167.549C32.8858 169.826 36.7987 172.103 25.7285 174.835C14.6583 177.568 5.01959 177.841 1.96574 173.105C-1.08811 168.368 -0.611035 168.915 3.58801 163.996Z" fill="#E8E8E7"/>
<path d="M32.2504 88.1451C33.0383 89.2745 33.4815 93.3942 33.6046 95.3128C33.7315 96.8332 32.8659 96.073 32.2504 97.4848C31.6349 98.8966 28.5572 99.2224 25.4796 99.5482H25.4796C22.4019 99.874 21.294 98.6794 18.5856 98.6794C15.8773 98.6794 14.0307 96.1816 12.6765 92.8149C11.3224 89.4483 16.4928 90.6429 16.9852 84.2354C17.4777 77.8279 23.1406 82.8236 27.08 82.172C31.0194 81.5204 31.2656 86.7333 32.2504 88.1451Z" fill="#011429" stroke="black"/>
<path d="M40.3195 91.0353L45.6484 95.5943C45.0011 96.0673 43.3907 97.1008 42.1269 97.4499C40.5472 97.8864 41.6056 100.41 40.3134 101.06C39.0212 101.711 39.2679 101.824 37.9426 104.49C36.6174 107.156 35.9924 107.286 35.4969 108.758C35.0013 110.23 33.8112 109.99 32.9624 109.501C32.1137 109.012 32.0878 106.289 31.9983 103.971C31.9266 102.118 34.8684 97.6414 36.3483 95.635L40.3195 91.0353Z" fill="#B97756"/>
<path d="M34.1184 114.208L31.6745 112.117C31.9714 111.901 32.7099 111.427 33.2895 111.266C34.014 111.066 33.5286 109.909 34.1212 109.611C34.7138 109.312 34.6007 109.26 35.2085 108.038C35.8162 106.815 36.1028 106.755 36.3301 106.08C36.5573 105.405 37.1031 105.515 37.4924 105.74C37.8816 105.964 37.8935 107.213 37.9346 108.276C37.9674 109.126 36.6183 111.179 35.9396 112.099L34.1184 114.208Z" fill="#E49F7C"/>
<path d="M68.9547 161.327C70.7814 159.063 66.1509 155.475 64.852 154.451L61.4422 156.21C60.9689 158.546 57.0037 163.964 56.4603 166.043C55.9169 168.122 60.7365 170.939 64.852 168.711C68.2261 166.884 66.6713 164.157 68.9547 161.327Z" fill="#011429"/>
<path d="M13.4744 167.32C14.4881 166.063 11.9186 164.072 11.1978 163.504L9.3057 164.48C9.04308 165.776 6.84278 168.783 6.54125 169.936C6.23971 171.09 8.91414 172.653 11.1978 171.417C13.0701 170.403 12.2074 168.89 13.4744 167.32Z" fill="#011429"/>
<path d="M81.6275 161.05C79.5671 159.58 82.6421 155.536 83.5006 154.387L86.7786 155.076C87.7152 156.914 94.6707 161.765 95.6073 163.373C96.5439 164.981 94.9736 168.862 90.9932 167.943C87.7299 167.19 84.2031 162.888 81.6275 161.05Z" fill="#011429"/>
<path d="M17.8368 164.247C16.6348 163.445 18.4286 161.239 18.9294 160.612L20.8416 160.988C21.3879 161.991 25.4453 164.637 25.9916 165.514C26.538 166.391 25.622 168.508 23.3 168.007C21.3965 167.596 19.3392 165.25 17.8368 164.247Z" fill="#011429"/>
<path d="M78.594 155.852L77.1934 122.016H92.134C91.5822 124.259 92.134 154.57 92.134 155.852C92.134 157.134 88.1442 159.032 85.3853 159.352C83.1781 159.609 79.2378 156.493 78.594 155.852Z" fill="#C0DEFF"/>
<path d="M17.951 160.648L22.1992 142.881L30.3781 145.218C29.7435 146.296 25.5531 162.101 25.3631 162.766C25.173 163.431 22.7077 163.791 21.1499 163.526C19.9036 163.313 18.2084 161.081 17.951 160.648Z" fill="#C0DEFF"/>
<path d="M57.9685 154.159L59.4141 121.662L74.8733 123.045C74.1104 125.14 72.0881 154.186 71.9785 155.412C71.8688 156.639 67.5781 158.085 64.696 158.136C62.3903 158.177 58.5798 154.832 57.9685 154.159Z" fill="#C0DEFF"/>
<path d="M7.37755 163.343L8.17969 145.31L16.7581 146.077C16.3348 147.239 15.2126 163.357 15.1517 164.038C15.0909 164.718 12.71 165.521 11.1107 165.549C9.83122 165.572 7.71674 163.716 7.37755 163.343Z" fill="#C0DEFF"/>
<path d="M100.85 88.0383C100.85 77.3612 94.0245 58.431 94.9237 54.7822L57.1056 65.4685C57.1056 66.4204 52.2925 91.0274 52.2925 109.827C52.2925 128.626 54.8035 129.385 55.0043 135.232C55.0736 137.248 58.2514 140.043 60.1614 141.079C64.2952 143.321 69.4591 140.483 80.4948 140.245C91.5306 140.007 100.85 138.103 100.85 132.868V100.743C100.85 92.4138 100.85 103.328 100.85 88.0383Z" fill="#FF7A4D"/>
<path d="M50.8032 40.3834C56.1438 22.2225 74.9975 26.3645 78.7198 23.6562C81.3091 23.6562 93.5277 26.476 100.325 32.0198C108.821 38.9496 115.522 55.4514 112.609 59.5137C109.872 63.3302 94.3146 72.0264 70.7804 61.7426C67.4106 63.7046 64.6979 65.3158 63.5547 66.191C62.5762 66.9402 59.5684 73.4303 56.0649 80.3063C52.5259 90.6622 48.5498 100.389 43.8117 97.4715C38.3563 97.1218 40.2786 99.6342 35.7626 97.4715C26.7807 93.1703 48.7781 47.2695 50.8032 40.3834Z" fill="#FFB2BD"/>
<path d="M63.3511 32.5379C60.8183 30.6346 60.8346 26.5107 61.1593 24.6867C62.6205 23.0213 61.1593 13.2668 61.1593 10.4118C61.1593 7.55682 63.3511 2.5606 66.7607 1.37103C70.1702 0.181453 72.1185 -1.95978 78.694 3.98809C85.2695 9.93596 81.1294 18.7388 84.2954 23.0213C87.4614 27.3038 87.9484 33.0137 86.0001 33.0137C84.0518 33.0137 79.6682 32.7758 76.0151 33.0137C73.0926 33.204 70.8196 34.5998 69.9267 36.1066C68.7901 35.7101 65.8839 34.4412 63.3511 32.5379Z" fill="#88AEFF"/>
<path d="M69.258 32.5185C68.252 32.9461 67.0782 35.9033 65.9883 38.13C66.4913 44.2758 67.4974 42.4053 70.0126 47.2151C72.5278 52.0248 80.0162 48.2219 84.6008 50.4215C92.3979 54.1624 96.1707 51.4904 99.189 49.3527C102.207 47.215 105.98 48.0167 100.698 38.13C95.4162 28.2433 81.0795 31.1825 77.8097 30.1137C74.54 29.0449 70.5157 31.9841 69.258 32.5185Z" fill="#DFFC8E"/>
<circle cx="74.0813" cy="18.0529" r="5.60275" fill="#B97756"/>
<ellipse cx="76.5716" cy="38.5965" rx="3.11264" ry="3.73517" fill="#B97756"/>
<circle cx="26.1453" cy="89.6443" r="3.73517" fill="#E49F7C"/>
<path d="M7.52428 127.647C5.23975 130.14 4.88828 138.769 4.99812 142.773V144.749C4.99812 146.725 9.83077 150.146 15.9814 150.526C22.1321 150.906 24.3287 150.526 29.9302 148.017C35.5317 145.509 29.7106 136.458 29.9302 129.085C30.1499 121.712 21.5829 128.939 15.9814 123.998C10.3799 119.058 10.3799 124.53 7.52428 127.647Z" fill="#88AEFF"/>
<path d="M16.2423 98.3788C17.5203 95.0802 20.6086 95.7281 21.993 96.4644C31.0982 98.9678 29.8203 110.454 29.8203 114.577C29.8203 118.701 30.2995 124.444 28.5424 127.095C26.7852 129.745 23.5904 126.947 17.68 127.095C11.7696 127.242 12.0891 123.855 8.73451 121.204C5.37995 118.553 9.69295 112.958 10.3319 108.54C10.9709 104.122 14.6449 102.502 16.2423 98.3788Z" fill="#FF7A4D"/>
<path d="M29.4595 108.78L26.4865 104.581C25.6056 103.337 23.8108 102.56 22.7702 104.581C21.7297 106.603 23.2162 110.491 23.8108 113.912C24.4054 117.333 27.0811 116.089 28.5676 117.333C30.0541 118.578 31.2433 118.422 32.8784 119.355C34.5136 120.288 34.365 117.178 34.8109 115.156C35.2569 113.135 32.5811 111.268 31.8379 109.869C31.2433 108.749 30.0045 108.677 29.4595 108.78Z" fill="#D9D9D9"/>
</svg>
