<svg width="29" height="28" viewBox="0 0 29 28" fill="none" xmlns="http://www.w3.org/2000/svg">
<path d="M1.75095 16.9418C0.67017 15.104 0.67017 12.8248 1.75095 10.987C2.08853 10.413 2.65387 10.0092 3.30636 9.87606L5.84576 9.35789C5.87773 9.35137 5.89372 9.3481 5.90909 9.34409C6.0192 9.31535 6.11861 9.25528 6.19525 9.17116C6.20595 9.15942 6.21627 9.14678 6.23691 9.12151L12.0183 2.04327C12.7147 1.1907 13.0629 0.764415 13.3753 0.875799C13.6878 0.987182 13.6878 1.53759 13.6878 2.63841L13.6878 25.2904C13.6878 26.3912 13.6878 26.9416 13.3753 27.053C13.0629 27.1644 12.7147 26.7381 12.0183 25.8855L6.23691 18.8073C6.21627 18.782 6.20595 18.7694 6.19525 18.7576C6.11861 18.6735 6.0192 18.6135 5.90909 18.5847C5.89372 18.5807 5.87773 18.5774 5.84576 18.5709L3.30637 18.0527C2.65387 17.9196 2.08853 17.5158 1.75095 16.9418Z" fill="#011429" stroke="#011429" stroke-width="1.18"/>
<path d="M17.8035 8.54944C19.2506 9.97825 20.0672 11.9138 20.0752 13.9345C20.0833 15.9551 19.2822 17.897 17.8465 19.337" stroke="#011429" stroke-width="1.176" stroke-linecap="round"/>
<path d="M24.545 5.36425C26.9285 7.63353 28.2734 10.7077 28.2867 13.9169C28.3 17.1262 26.9806 20.2103 24.6159 22.4974" stroke="#011429" stroke-width="1.176" stroke-linecap="round"/>
</svg>
