<svg width="21" height="22" viewBox="0 0 21 22" fill="none" xmlns="http://www.w3.org/2000/svg">
<path d="M16.5603 0.75V2.78999M4.32031 0.75V2.78999" stroke="#011429" stroke-width="1.5" stroke-linecap="round" stroke-linejoin="round"/>
<path d="M10.4348 11.9697H10.4439M10.4348 16.0497H10.4439M14.5102 11.9697H14.5193M6.35938 11.9697H6.36853M6.35938 16.0497H6.36853" stroke="#011429" stroke-width="2" stroke-linecap="round" stroke-linejoin="round"/>
<path d="M1.76953 6.87012H19.1094" stroke="#011429" stroke-width="1.5" stroke-linecap="round" stroke-linejoin="round"/>
<path d="M0.75 11.1976C0.75 6.75316 0.75 4.53095 2.02715 3.15024C3.30431 1.76953 5.35986 1.76953 9.47096 1.76953H11.4089C15.52 1.76953 17.5756 1.76953 18.8528 3.15024C20.1299 4.53095 20.1299 6.75316 20.1299 11.1976V11.7214C20.1299 16.1658 20.1299 18.388 18.8528 19.7687C17.5756 21.1494 15.52 21.1494 11.4089 21.1494H9.47096C5.35986 21.1494 3.30431 21.1494 2.02715 19.7687C0.75 18.388 0.75 16.1658 0.75 11.7214V11.1976Z" stroke="#011429" stroke-width="1.5" stroke-linecap="round" stroke-linejoin="round"/>
<path d="M1.26172 6.87012H19.6216" stroke="#011429" stroke-width="1.5" stroke-linecap="round" stroke-linejoin="round"/>
</svg>
