<svg width="280" height="256" viewBox="0 0 280 256" fill="none" xmlns="http://www.w3.org/2000/svg">
<path d="M87.3392 43.7605C96.8213 30.9685 118.626 22.5446 131.736 18.7237C159.268 7.86441 170.087 8.45057 212.101 20.5165C254.114 32.5824 246.453 87.3503 246.453 101.677C246.453 120.773 248.82 145.317 235.303 161.351C215.251 185.137 175.148 183.082 139.118 185.725C93.4927 189.071 80.7256 160.88 73.9497 156.653C65.4885 151.374 65.2898 125.507 62.3101 96.2471C59.3305 66.9873 78.5851 55.5704 87.3392 43.7605Z" fill="#E6F2FF"/>
<path d="M237.637 204.318L240.518 195.907C241.319 198.326 249.549 202.46 254.022 204.26C258.496 206.059 255.982 209.278 255.174 210.44C254.366 211.603 253.377 214.018 253.195 215.271C253.014 216.525 253.096 220.375 252.014 224.312C250.932 228.25 247.618 229.049 246.633 228.779C245.649 228.508 245.026 226.627 244.402 224.745C243.779 222.864 244.873 212.659 243.716 209.165C242.79 206.369 239.277 204.769 237.637 204.318Z" fill="#FCFFFD"/>
<path d="M224.366 249.881C224.101 248.179 230.742 240.313 230.747 237.627C230.749 236.428 229.601 234.13 228.265 231.887L224.678 227.408L230.154 219.628C231.853 221.154 232.209 222.229 233.547 224.47C238.374 229.135 244.449 235.773 243.551 237.562C242.832 238.993 239.602 242.15 238.077 243.55C236.609 246.621 232.812 253.049 229.372 254.188C225.071 255.613 224.631 251.583 224.366 249.881Z" fill="#FCFFFD"/>
<path d="M249.836 192.523C245.077 209.132 235.17 214.581 230.811 215.229L199.99 178.907L221.14 168.919L249.836 192.523Z" fill="#C3E471"/>
<path d="M256.053 160.944C260.438 152.571 252.123 140.074 247.417 134.872C202.136 146.746 187.593 177.116 181.127 195.9C173.544 217.933 205.511 229.879 217.844 241.902L229.864 230.463L235.887 218.03L217.844 195.9C229.287 189.923 251.667 169.316 256.053 160.944Z" fill="#DDFC8F"/>
<path d="M181.048 118.874C197.286 125.487 199.878 124.205 207.917 122.217C216.794 118.812 208.206 97.1019 205.549 93.901C202.891 90.7002 199.176 94.8657 183.722 85.3464C168.267 75.8271 174.725 71.1379 172.291 67.7515C169.857 64.3651 157.498 59.4092 154.438 66.6364C151.378 73.8636 146.457 104.786 181.048 118.874Z" fill="#FEB3BD"/>
<path d="M249.674 118.72C252.619 125.619 252.49 132.594 251.239 136.289C245.591 148.301 216.77 158.443 210.726 155.971C204.681 153.499 196.683 137.655 193.587 129.136C190.49 120.617 194.29 115.481 195.147 108.934C196.004 102.386 206.828 86.8704 218.746 87.9936C225.593 88.6389 245.993 110.096 249.674 118.72Z" fill="#ED8648"/>
<path d="M202.865 86.4457L205.454 82.5391L207.628 81.2096C210.018 84.3944 214.946 91.0057 215.537 91.9719C211.674 99.1137 207.047 96.7214 205.216 94.6326L202.865 86.4457Z" fill="#603F2C"/>
<path d="M191.762 84.4043C188.408 77.8795 193.308 69.5751 196.269 66.5066C218.659 63.8633 215.673 80.064 216.118 81.4079C216.563 82.7518 212.345 88.0265 210.461 89.545C208.955 90.7598 202.398 94.8999 198.811 94.8949C196.314 92.7393 195.116 90.929 191.762 84.4043Z" fill="#704B36"/>
<path d="M198.707 59.4361L195.379 67.3986C199.41 66.0632 205.769 65.4486 211.492 69.2202C215.89 72.1182 216.428 78.7206 215.854 82.3905L222.048 74.0754C222.11 72.7623 221.735 68.9891 219.739 64.4009C217.742 59.8128 204.885 59.1793 198.707 59.4361Z" fill="#011429"/>
<path d="M218.817 77.8298L215.593 78.0027L214.15 83.5512C215.047 82.956 217.234 81.5157 218.812 80.5159C220.39 79.5161 219.473 78.3086 218.817 77.8298Z" fill="#704B36"/>
<path d="M194.432 76.3215C194.665 74.8937 196.155 75.2241 196.501 75.7118C197.616 77.7915 196.396 78.9712 195.564 78.8351C194.591 78.6759 194.28 77.2492 194.432 76.3215Z" fill="#011429"/>
<path d="M204.493 76.854C205.253 75.6231 206.504 76.4967 206.638 77.0795C206.876 79.4273 205.298 80.0524 204.581 79.6094C203.742 79.0913 203.999 77.6537 204.493 76.854Z" fill="#011429"/>
<path d="M196.753 83.6456C196.752 84.2425 197.054 85.4549 198.272 85.5288" stroke="#B28972" stroke-linecap="round"/>
<path d="M196.601 87.4889C197.467 88.7039 199.902 90.2927 202.719 86.9281" stroke="#B28972" stroke-linecap="round"/>
<path d="M208.881 77.1209C209.064 75.9503 208.534 73.7276 204.959 74.2011" stroke="#011429" stroke-linecap="round"/>
<path d="M197.53 73.6407C196.533 73.131 194.254 72.6333 193.116 74.7204" stroke="#011429" stroke-linecap="round"/>
<path d="M169.825 60.3638C168.577 61.695 167.232 63.3296 166.691 64.0428C166.535 64.4834 166.387 64.8673 166.169 65.252L166.167 65.2551C166.102 65.3682 166.028 65.4984 165.692 65.539C164.787 65.6483 162.061 65.2219 161.923 65.0242C161.491 64.4035 162.271 62.9698 162.108 61.6184C161.835 59.3539 162.221 59.5003 161.481 58.4352C161.125 57.9231 160.701 57.3501 160.511 56.52C160.183 55.0921 159.786 54.2035 159.68 52.8199C159.546 51.0763 159.341 50.3717 159.781 50.116C159.87 50.0647 160.002 50.074 160.127 50.1197C160.381 50.2126 160.68 50.3664 160.922 50.5988C161.299 50.9599 161.509 52.1653 161.937 53.0937C162.004 53.2396 162.115 53.3544 162.087 52.9376C161.995 51.5959 161.213 48.8249 161.947 47.7308C162.02 47.6212 162.138 47.5233 162.24 47.5556C162.454 47.6234 162.675 47.7675 162.784 47.9854C162.902 48.2216 162.97 48.8896 163.112 49.7826C163.379 51.4526 163.407 51.914 163.644 52.7684C163.779 52.3967 164.03 51.3018 164.271 49.6696C164.485 48.2146 164.587 47.421 164.719 47.1404C164.848 46.8666 165.04 46.5937 165.366 46.5021C165.53 46.4559 165.713 46.4552 165.866 46.4886C166.02 46.522 166.193 46.5796 166.203 46.7929C166.254 47.82 165.387 53.025 166.057 51.7977C166.188 51.557 166.52 50.9439 166.636 50.1649C166.791 49.1203 166.732 48.3286 167.191 47.6347C167.496 47.1748 167.711 46.6655 168.352 46.2358C168.496 46.1389 168.624 46.1089 168.702 46.4303C168.779 46.7517 168.839 47.4065 168.738 48.2961C168.512 50.2838 168.282 51.59 168.349 52.2868C168.581 54.7272 168.819 55.9974 169.38 56.2853C169.616 56.4064 169.943 56.5077 170.249 56.3899C170.522 56.2848 170.938 55.927 171.529 55.5558C172.18 55.1476 172.618 54.7986 173.1 54.5034C173.725 54.1201 174.498 53.5122 175.394 53.7001C175.586 53.7404 175.711 53.8443 175.645 54.0187C175.48 54.4571 174.739 55.5991 173.79 56.6009C172.907 57.5328 171.205 58.8918 169.825 60.3638Z" fill="#704E3A"/>
<path d="M215.272 92.7255C213.065 97.5032 214.959 102.553 215.507 104.856C218.631 106.971 217.282 107.66 227.083 106.341C236.883 105.022 251.366 82.0122 251.956 74.041C252.546 66.0697 240.583 44.259 240.146 41.0084C239.708 37.7578 236.041 34.5617 230.937 31.9392C225.832 29.3168 220.76 32.4403 218.767 38.8183C216.775 45.1962 224.878 68.7756 225.248 71.5261C225.618 74.2766 218.032 86.7534 215.272 92.7255Z" fill="#FEB3BD"/>
<path d="M227.667 33.9095C226.574 34.0161 224.394 34.4017 223.985 34.46L223.985 34.46C223.999 34.2787 224.012 34.1027 224.024 33.9041C224.036 33.7054 224.046 33.4904 224.061 33.2941C224.132 32.5797 224.187 31.9379 224.26 31.3035C224.363 30.3932 224.373 29.32 223.5 28.0223C222.987 27.2605 222.813 26.4954 221.9 25.0951C221.335 24.229 220.33 23.9284 220.07 23.0026C219.988 22.7115 220.004 22.284 220.063 22.0083C220.123 21.7326 220.223 21.6124 220.349 21.5781C220.475 21.5437 220.628 21.5834 220.76 21.6642C221.406 22.0571 222.966 24.3304 224.573 24.4337C225.241 24.4766 225.978 24.4213 226.361 23.8934C226.72 23.3999 226.32 19.2724 226.952 16.9505C227.041 16.6256 227.194 16.2786 227.497 16.1899C227.638 16.1486 227.783 16.1837 227.905 16.2638C228.028 16.3439 228.169 16.4627 228.162 16.7662C228.127 18.3268 227.489 24.1471 228.14 22.7862C228.509 22.0154 228.434 19.9645 229.305 17.7151C229.69 16.7215 229.672 15.8649 230.378 15.4353C230.545 15.3334 230.86 15.7376 230.879 16.0156C230.934 16.8463 230.754 17.9005 230.495 19.2754C230.358 20.0047 230.227 20.8533 230.102 21.6986C230.267 21.0725 230.491 20.4437 230.787 19.7765C231.13 19.0014 231.415 18.124 232.007 18.2721C232.18 18.3155 232.278 18.3851 232.379 18.4572L232.383 18.4602C232.597 18.6133 232.643 18.9414 232.383 19.9645C232.079 21.1565 231.389 23.2331 231.593 24.4621C231.594 24.4599 231.595 24.4578 231.596 24.4558C232.139 23.5821 232.976 21.2535 233.699 21.5781C233.8 21.6231 233.917 21.8351 233.887 22.0083C233.824 22.3815 233.716 23.2482 233.511 23.7253C233.056 24.7836 232.825 26.1863 231.614 28.7512C230.916 30.2305 230.429 30.8315 229.919 31.6935C229.058 33.1492 228.446 33.8337 227.667 33.9095Z" fill="#704E3A"/>
<path d="M124.497 22.7373C124.835 21.2075 127.172 18.9371 128.298 17.9931C143.489 22.2855 145.019 34.9084 145.784 36.9715C146.442 38.7482 147.749 47.2239 139.437 63.9924C131.126 80.7608 114.226 70.0751 111.609 70.6285C108.992 71.182 105.089 65.092 104.646 57.9483C104.204 50.8046 112.125 43.715 113.349 43.322C114.573 42.9291 117.854 40.4392 120.219 37.8751C122.584 35.311 124.073 24.6495 124.497 22.7373Z" fill="#FF9657"/>
<path d="M97.2529 176.698L95.9866 186.212C90.9357 185.54 83.0941 184.998 79.19 185.769C74.3099 186.734 74.5674 192.285 73.6247 195.25C71.9287 200.583 71.4023 209.926 66.6854 205.623C61.9684 201.319 62.9774 196.432 63.7279 190.794C64.4783 185.156 65.153 182.108 65.4984 177.492C65.7747 173.799 68.1069 172.938 69.2384 172.969L97.2529 176.698Z" fill="#011429"/>
<path d="M104.767 162.938L101.988 172.12C93.4547 168.935 87.1901 166.511 84.8849 169.31C83.1118 171.463 73.2754 183.213 71.281 183.806C69.2866 184.398 67.707 182.536 67.8573 180.038C68.0387 177.022 69.5196 170.167 74.5256 165.393C77.2336 162.81 80.8889 156.308 81.2818 155.204L104.767 162.938Z" fill="#011529"/>
<path d="M96.2191 129.158C96.4706 118.18 105.293 114.2 109.673 113.582L124.645 115.011C130.76 137.123 141.348 182.254 134.774 185.882C128.2 189.51 112.791 188.157 105.908 187.028C102.574 172.312 95.9676 140.137 96.2191 129.158Z" fill="#9BBBFF"/>
<path d="M96.2191 129.158C96.4706 118.18 105.293 114.2 109.673 113.582L124.645 115.011C130.76 137.123 141.348 182.254 134.774 185.882C128.2 189.51 112.791 188.157 105.908 187.028C102.574 172.312 95.9676 140.137 96.2191 129.158Z" fill="#88AEFF"/>
<path d="M142.182 158.082C151.051 160.687 152.626 170.158 152.305 174.568L148.331 188.88C129.221 190.101 90.5749 190.741 88.8637 183.542C87.1524 176.343 91.1468 161.587 93.3579 155.108C105.937 155.014 133.312 155.478 142.182 158.082Z" fill="#9BBBFF"/>
<path d="M142.182 158.082C151.051 160.687 152.626 170.158 152.305 174.568L148.331 188.88C129.221 190.101 90.5749 190.741 88.8637 183.542C87.1524 176.343 91.1468 161.587 93.3579 155.108C105.937 155.014 133.312 155.478 142.182 158.082Z" fill="#88AEFF"/>
<path d="M104.527 138.505C103.675 128.413 113.236 122.694 118.124 121.096L138.865 117.225C148.067 135.988 163.738 188.033 156.682 192.9C149.626 197.766 122.988 201.896 115.091 202.487C109.798 189.827 105.379 148.596 104.527 138.505Z" fill="#9BBBFF"/>
<path d="M104.527 138.505C103.675 128.413 113.236 122.694 118.124 121.096L138.865 117.225C148.067 135.988 163.738 188.033 156.682 192.9C149.626 197.766 122.988 201.896 115.091 202.487C109.798 189.827 105.379 148.596 104.527 138.505Z" fill="#9BBBFF"/>
<path d="M142.424 161.924C152.957 163.363 152.588 158.092 153.093 163.437L140.079 197.985C118.73 203.071 90.5499 210.845 87.1989 202.543C83.8478 194.242 85.4547 175.802 86.677 167.62C100.87 165.122 131.89 160.485 142.424 161.924Z" fill="#9BBBFF"/>
<path d="M142.424 161.924C152.957 163.363 152.588 158.092 153.093 163.437L140.079 197.985C118.73 203.071 90.5499 210.845 87.1989 202.543C83.8478 194.242 85.4547 175.802 86.677 167.62C100.87 165.122 131.89 160.485 142.424 161.924Z" fill="#9BBBFF"/>
<path d="M77.2757 92.4375C76.6049 96.6357 81.4786 120.221 82.8364 128.636C93.2981 145.809 141.975 138.207 144.178 126.852C146.381 115.496 113.006 61.0921 109.582 57.8118C97.3052 48.719 83.0973 63.3065 81.4822 68.2816C79.3357 74.8933 78.1141 87.1898 77.2757 92.4375Z" fill="#FEB3BD"/>
<path d="M54.1673 55.4208C52.939 54.4421 49.1695 55.0395 47.4383 55.4605C33.7572 76.2466 39.3054 89.1548 39.6663 91.8395C39.9772 94.1515 43.4057 103.131 61.7531 108.717C80.1005 114.303 91.9621 85.9358 95.0536 83.5019C98.1451 81.0681 98.827 71.3029 95.2372 64.4716C91.6474 57.6402 79.2146 60.2031 77.6923 61.2227C76.1701 62.2423 71.2735 63.7008 67.3071 64.0692C63.3408 64.4376 55.7028 56.6442 54.1673 55.4208Z" fill="#FF9657"/>
<path d="M89.2036 51.1803C83.5876 51.692 79.4917 50.9155 77.8452 48.4629C76.4147 45.998 74.1793 45.7008 73.2931 39.5445C72.1854 31.8492 75.9171 27.5823 79.0968 24.0546C83.5541 19.1095 86.4599 18.5586 93.0217 17.4765C99.5834 16.3944 101.717 19.6059 106.534 23.8752C111.35 28.1446 109.509 37.8701 107.397 41.4505C105.285 45.0308 96.2234 50.5407 89.2036 51.1803Z" fill="#011529"/>
<path d="M66.1401 35.8111C64.559 34.1528 65.0878 31.7216 65.6175 30.9891C66.968 26.7226 72.1656 27.7467 74.0141 27.8607C75.8626 27.9746 75.8109 31.6059 76.115 33.4993C76.4191 35.3927 73.9937 37.5004 71.3506 38.4852C68.7075 39.47 68.1165 37.8841 66.1401 35.8111Z" fill="#011529"/>
<path d="M75.6287 29.315C74.8064 29.6214 74.5273 31.8525 74.8065 33.0327C75.1555 34.508 74.1813 37.2791 73.3002 37.6073" stroke="#FEB3BD" stroke-linecap="round"/>
<path d="M97.698 17.0615C97.3997 19.0838 94.7293 19.5104 93.9234 19.54C89.2314 22.3662 87.7348 17.1131 86.8001 15.7506C85.8655 14.388 88.1002 11.4987 89.2648 10.2454C90.4294 8.99208 93.2432 9.54067 95.3868 10.8588C97.5304 12.177 98.0708 14.5335 97.698 17.0615Z" fill="#011529"/>
<path d="M97.6636 17.8955C97.1345 17.1954 95.8194 20.3485 92.7747 19.3157C91.339 18.8287 89.2452 19.3044 88.6783 18.5543" stroke="#FF9657" stroke-linecap="round"/>
<path d="M98.0391 47.8288L100.392 56.4361C98.2815 59.1195 94.3435 59.0376 92.7013 58.4482L92.8691 47.9531L98.0391 47.8288Z" fill="#694631"/>
<path d="M83.3703 35.214C85.3448 29.3104 85.5251 29.9721 88.8183 25.3725C98.7807 22.5155 103.13 26.1101 103.838 25.4666C104.547 24.8232 105.035 25.1155 105.917 26.2096C106.799 27.3036 105.173 29.0477 106.272 30.7247C108.798 36.2326 108.905 43.4233 101.563 47.3916C94.2214 51.36 87.2744 47.1922 86.7746 47.3784C81.0951 47.408 80.2802 44.2025 81.6126 43.7061C82.1333 39.7184 82.5349 37.7117 83.3703 35.214Z" fill="#704E3A"/>
<path d="M90.3602 38.7654C89.6048 37.5853 90.9011 36.854 91.4684 36.9802C93.626 37.7524 93.5037 39.3958 92.8111 39.8389C92.0014 40.3571 90.851 39.5321 90.3602 38.7654Z" fill="#011429"/>
<path d="M98.0096 32.3115C97.2542 31.1314 98.5505 30.4002 99.1178 30.5264C101.275 31.2985 101.153 32.9419 100.461 33.3851C99.6509 33.9032 98.5004 33.0782 98.0096 32.3115Z" fill="#011429"/>
<path d="M90.7825 35.7694C90.002 35.9654 88.4775 36.761 88.6239 38.3757" stroke="#011429" stroke-linecap="round"/>
<path d="M99.6244 40.2317C100.258 39.7354 100.775 38.9727 99.9846 37.5569" stroke="#B28972" stroke-linecap="round"/>
<path d="M98.9324 43.377C100.884 43.2813 102.092 42.4517 102.379 40.9319" stroke="#B28972" stroke-linecap="round"/>
<path d="M99.6693 29.3279C98.9018 29.0857 97.7669 28.8037 96.8076 30.0477" stroke="#011429" stroke-linecap="round"/>
<path d="M51.8613 50.9266C52.0302 53.1725 52.3954 55.7862 52.5938 56.8911C52.8667 57.4363 53.0946 57.9205 53.2631 58.4604L53.2644 58.4647C53.314 58.6235 53.371 58.8061 53.1244 59.1044C52.4612 59.9063 49.7686 61.5941 49.471 61.5093C48.5364 61.2428 47.8785 59.2583 46.5001 58.0795C44.1903 56.1042 44.6508 55.9481 43.048 55.4902C42.2774 55.27 41.3939 55.0431 40.4708 54.3886C38.8831 53.2629 37.7327 52.7104 36.3728 51.4566C34.6591 49.8766 33.8385 49.355 33.9757 48.7689C34.0032 48.6513 34.1233 48.5585 34.2708 48.5063C34.571 48.4 34.9645 48.3183 35.3821 48.3561C36.0313 48.4149 37.3155 49.4166 38.5289 49.9831C38.7197 50.0722 38.9188 50.0975 38.5122 49.717C37.2032 48.4923 33.9991 46.4198 33.6136 44.7992C33.5749 44.6367 33.5848 44.4514 33.7003 44.4042C33.9428 44.3051 34.2622 44.2735 34.5542 44.4C34.8707 44.537 35.541 45.1299 36.4812 45.8821C38.2395 47.2887 38.6864 47.7128 39.6708 48.355C39.4436 47.8923 38.6504 46.6419 37.3552 44.881C36.2005 43.3113 35.5573 42.4674 35.4115 42.0946C35.2692 41.7308 35.1805 41.3197 35.3713 40.9804C35.4675 40.8094 35.6216 40.6676 35.7815 40.5819C35.9415 40.4963 36.1404 40.4186 36.3451 40.6163C37.3312 41.5684 41.378 47.2602 40.8162 45.56C40.7061 45.2266 40.4238 44.3788 39.8061 43.5379C38.9778 42.4104 38.201 41.6918 37.9517 40.6682C37.7865 39.9899 37.5008 39.3324 37.6472 38.4241C37.6802 38.2192 37.7606 38.0918 38.1211 38.3424C38.4817 38.5929 39.1329 39.1792 39.8644 40.1156C41.4989 42.208 42.504 43.6458 43.1999 44.2673C45.6368 46.4436 47.0037 47.4865 47.7414 47.3325C48.0517 47.2678 48.4209 47.1136 48.5711 46.7642C48.7051 46.4525 48.7273 45.7871 48.8858 44.9734C49.0601 44.0785 49.1097 43.404 49.245 42.7483C49.4207 41.8971 49.515 40.7151 50.4438 40.2066C50.6429 40.0976 50.8436 40.1017 50.9482 40.3207C51.2112 40.8712 51.6342 42.544 51.7531 44.2416C51.8636 45.8208 51.6746 48.4432 51.8613 50.9266Z" fill="#704E3A"/>
<path d="M130.001 19.495C129.761 20.4771 129.75 20.6464 129.75 20.6598C129.942 20.9754 130.293 21.3671 130.397 21.4366C130.962 21.8127 130.905 21.786 132.09 22.1717C133.301 22.5402 134.648 22.5616 134.98 22.1717C135.131 21.9937 135.208 21.7628 135.426 21.0833C135.925 19.5216 136.213 17.3867 136.72 15.7732C137.096 14.5761 137.518 13.5819 138.331 13.1587C140.246 12.1625 142.364 11.4276 142.906 10.3237C143.146 9.83417 143.324 9.26014 143.244 8.81918C143.211 8.63695 143.147 8.54007 143.051 8.49178C142.955 8.44349 142.826 8.41744 142.703 8.45363C141.853 8.70398 139.548 10.8279 138.252 10.78C137.62 10.7566 136.758 10.8129 136.538 10.1085C136.319 9.40982 136.32 8.1152 136.894 6.60249C137.209 5.77311 137.649 4.58623 137.709 2.98874C137.771 1.31316 137.755 0.292209 137.554 0.197982C137.449 0.148412 137.289 0.134488 137.166 0.193829C136.931 0.307397 136.595 0.726193 136.109 2.06156C135.756 3.02709 135.248 4.55938 134.395 6.76397C133.541 8.96855 132.377 11.7608 131.549 14.1617C130.72 16.5626 130.241 18.5129 130.001 19.495Z" fill="#704E3A"/>
<path d="M136.223 9.21401C136.223 9.19235 136.101 9.7778 137.631 2.75728C137.8 1.97912 139.773 0.705031 140.712 0.011736C140.795 -0.0490208 140.897 0.137968 140.925 0.300329C141.07 1.13918 140.027 1.95918 138.895 3.52697C138.039 4.71167 137.681 5.42211 137.631 5.52977C137.43 5.95901 138.476 4.72644 139.437 3.97961C140.368 3.25592 141.005 3.22182 141.716 3.22493C141.845 3.2255 141.851 3.40071 141.811 3.52697C141.596 4.20515 140.72 4.57883 139.388 5.89174C138.485 6.78109 138.524 6.83581 138.304 7.33251C138.714 6.78084 139.367 6.13656 140.238 5.89174C140.362 5.85708 140.571 5.97643 140.66 6.01731C140.749 6.05819 140.669 6.35134 140.66 6.48894C140.617 7.1286 139.835 7.59777 138.895 8.66211C138.347 9.28263 138.224 10.1328 138.112 10.7347C138.092 10.8599 138.071 10.9802 138.039 11.1023C138.007 11.2245 136.226 11.2825 136.223 9.21401Z" fill="#694631"/>
</svg>
