<svg width="210" height="233" viewBox="0 0 210 233" fill="none" xmlns="http://www.w3.org/2000/svg">
<path d="M124.497 22.7373C124.835 21.2075 127.172 18.9371 128.298 17.9931C143.489 22.2855 145.019 34.9084 145.784 36.9715C146.442 38.7482 147.749 47.2239 139.437 63.9924C131.126 80.7608 114.226 70.0751 111.609 70.6285C108.992 71.182 105.089 65.092 104.646 57.9483C104.204 50.8046 112.125 43.715 113.349 43.322C114.573 42.9291 117.854 40.4392 120.219 37.8751C122.584 35.311 124.073 24.6495 124.497 22.7373Z" fill="#FF9657"/>
<path d="M97.2539 176.698L95.9876 186.212C90.9367 185.54 83.0951 184.998 79.191 185.769C74.3109 186.734 74.5684 192.285 73.6257 195.25C71.9297 200.583 71.4033 209.926 66.6863 205.623C61.9694 201.319 62.9784 196.432 63.7288 190.794C64.4793 185.156 65.1539 182.108 65.4994 177.492C65.7757 173.799 68.1078 172.938 69.2394 172.969L97.2539 176.698Z" fill="#011429"/>
<path d="M104.767 162.938L101.988 172.12C93.4547 168.935 87.1901 166.511 84.8849 169.31C83.1118 171.463 73.2754 183.213 71.281 183.806C69.2866 184.398 67.707 182.536 67.8573 180.038C68.0387 177.022 69.5196 170.167 74.5256 165.393C77.2336 162.81 80.8889 156.308 81.2818 155.204L104.767 162.938Z" fill="#011529"/>
<path d="M96.2201 129.158C96.4716 118.18 105.294 114.2 109.674 113.582L124.646 115.011C130.761 137.123 141.349 182.254 134.775 185.882C128.201 189.51 112.792 188.157 105.909 187.028C102.575 172.312 95.9686 140.137 96.2201 129.158Z" fill="#9BBBFF"/>
<path d="M96.2201 129.158C96.4716 118.18 105.294 114.2 109.674 113.582L124.646 115.011C130.761 137.123 141.349 182.254 134.775 185.882C128.201 189.51 112.792 188.157 105.909 187.028C102.575 172.312 95.9686 140.137 96.2201 129.158Z" fill="#88AEFF"/>
<path d="M142.183 158.082C151.052 160.687 152.627 170.158 152.306 174.568L148.332 188.88C129.222 190.101 90.5759 190.741 88.8646 183.542C87.1534 176.343 91.1477 161.587 93.3588 155.108C105.938 155.014 133.313 155.478 142.183 158.082Z" fill="#9BBBFF"/>
<path d="M142.183 158.082C151.052 160.687 152.627 170.158 152.306 174.568L148.332 188.88C129.222 190.101 90.5759 190.741 88.8646 183.542C87.1534 176.343 91.1477 161.587 93.3588 155.108C105.938 155.014 133.313 155.478 142.183 158.082Z" fill="#88AEFF"/>
<path d="M104.528 138.505C103.676 128.413 113.237 122.694 118.125 121.096L138.866 117.225C148.068 135.988 163.739 188.033 156.683 192.9C149.627 197.766 122.989 201.896 115.092 202.487C109.799 189.827 105.38 148.596 104.528 138.505Z" fill="#9BBBFF"/>
<path d="M104.528 138.505C103.676 128.413 113.237 122.694 118.125 121.096L138.866 117.225C148.068 135.988 163.739 188.033 156.683 192.9C149.627 197.766 122.989 201.896 115.092 202.487C109.799 189.827 105.38 148.596 104.528 138.505Z" fill="#9BBBFF"/>
<path d="M142.425 161.924C152.958 163.363 152.589 158.092 153.094 163.437L140.08 197.985C118.731 203.071 90.5509 210.845 87.1998 202.543C83.8488 194.242 85.4556 175.802 86.678 167.62C100.871 165.122 131.891 160.485 142.425 161.924Z" fill="#9BBBFF"/>
<path d="M142.425 161.924C152.958 163.363 152.589 158.092 153.094 163.437L140.08 197.985C118.731 203.071 90.5509 210.845 87.1998 202.543C83.8488 194.242 85.4556 175.802 86.678 167.62C100.871 165.122 131.891 160.485 142.425 161.924Z" fill="#9BBBFF"/>
<path d="M77.2757 92.4375C76.6049 96.6357 81.4786 120.221 82.8364 128.636C93.2981 145.809 141.975 138.207 144.178 126.852C146.381 115.496 113.006 61.0921 109.582 57.8118C97.3052 48.719 83.0973 63.3065 81.4822 68.2816C79.3357 74.8933 78.1141 87.1898 77.2757 92.4375Z" fill="#FEB3BD"/>
<path d="M54.1673 55.4208C52.939 54.4421 49.1695 55.0395 47.4383 55.4605C33.7572 76.2466 39.3054 89.1548 39.6663 91.8395C39.9772 94.1515 43.4057 103.131 61.7531 108.717C80.1005 114.303 91.9621 85.9358 95.0536 83.5019C98.1451 81.0681 98.827 71.3029 95.2372 64.4716C91.6474 57.6402 79.2146 60.2031 77.6923 61.2227C76.1701 62.2423 71.2735 63.7008 67.3071 64.0692C63.3408 64.4376 55.7028 56.6442 54.1673 55.4208Z" fill="#FF9657"/>
<path d="M89.2026 51.1798C83.5867 51.6915 79.4907 50.915 77.8443 48.4624C76.4137 45.9975 74.1783 45.7003 73.2921 39.544C72.1844 31.8487 75.9161 27.5818 79.0959 24.0541C83.5531 19.109 86.4589 18.5581 93.0207 17.476C99.5824 16.3939 101.716 19.6054 106.533 23.8747C111.35 28.1441 109.508 37.8696 107.396 41.45C105.284 45.0303 96.2225 50.5402 89.2026 51.1798Z" fill="#011529"/>
<path d="M66.1401 35.8109C64.559 34.1525 65.0878 31.7213 65.6175 30.9888C66.968 26.7224 72.1656 27.7465 74.0141 27.8604C75.8626 27.9744 75.8109 31.6057 76.115 33.4991C76.4191 35.3925 73.9937 37.5001 71.3506 38.4849C68.7075 39.4697 68.1165 37.8839 66.1401 35.8109Z" fill="#011529"/>
<path d="M75.6287 29.3148C74.8064 29.6212 74.5273 31.8522 74.8065 33.0325C75.1555 34.5078 74.1813 37.2788 73.3002 37.6071" stroke="#FEB3BD" stroke-linecap="round"/>
<path d="M97.697 17.061C97.3987 19.0833 94.7284 19.5099 93.9224 19.5395C89.2304 22.3657 87.7338 17.1126 86.7992 15.7501C85.8645 14.3875 88.0992 11.4982 89.2638 10.2449C90.4284 8.99159 93.2422 9.54018 95.3858 10.8583C97.5294 12.1765 98.0698 14.533 97.697 17.061Z" fill="#011529"/>
<path d="M97.6626 17.895C97.1335 17.1949 95.8184 20.348 92.7737 19.3152C91.3381 18.8282 89.2442 19.3039 88.6773 18.5538" stroke="#FF9657" stroke-linecap="round"/>
<path d="M98.0391 47.8286L100.392 56.4359C98.2815 59.1192 94.3435 59.0374 92.7013 58.4479L92.8691 47.9529L98.0391 47.8286Z" fill="#694631"/>
<path d="M83.3703 35.2138C85.3448 29.3102 85.5251 29.9718 88.8183 25.3723C98.7807 22.5152 103.13 26.1098 103.838 25.4664C104.547 24.823 105.035 25.1153 105.917 26.2093C106.799 27.3034 105.173 29.0474 106.272 30.7245C108.798 36.2324 108.905 43.423 101.563 47.3914C94.2214 51.3597 87.2744 47.1919 86.7746 47.3782C81.0951 47.4078 80.2802 44.2023 81.6126 43.7058C82.1333 39.7182 82.5349 37.7115 83.3703 35.2138Z" fill="#704E3A"/>
<path d="M90.3602 38.7651C89.6048 37.585 90.9011 36.8538 91.4684 36.98C93.626 37.7521 93.5037 39.3956 92.8111 39.8387C92.0014 40.3568 90.851 39.5319 90.3602 38.7651Z" fill="#011429"/>
<path d="M98.0096 32.3113C97.2542 31.1312 98.5505 30.3999 99.1178 30.5261C101.275 31.2983 101.153 32.9417 100.461 33.3848C99.6509 33.903 98.5004 33.078 98.0096 32.3113Z" fill="#011429"/>
<path d="M90.7825 35.7692C90.002 35.9652 88.4775 36.7608 88.6239 38.3755" stroke="#011429" stroke-linecap="round"/>
<path d="M99.6244 40.2314C100.258 39.7351 100.775 38.9724 99.9846 37.5566" stroke="#B28972" stroke-linecap="round"/>
<path d="M98.9324 43.3768C100.884 43.281 102.092 42.4514 102.379 40.9317" stroke="#B28972" stroke-linecap="round"/>
<path d="M99.6693 29.3279C98.9018 29.0857 97.7669 28.8037 96.8076 30.0477" stroke="#011429" stroke-linecap="round"/>
<path d="M51.8613 50.9266C52.0302 53.1725 52.3954 55.7862 52.5938 56.8911C52.8667 57.4363 53.0946 57.9205 53.2631 58.4604L53.2644 58.4647C53.314 58.6235 53.371 58.8061 53.1244 59.1044C52.4612 59.9063 49.7686 61.5941 49.471 61.5093C48.5364 61.2428 47.8785 59.2583 46.5001 58.0795C44.1903 56.1042 44.6508 55.9481 43.048 55.4902C42.2774 55.27 41.3939 55.0431 40.4708 54.3886C38.8831 53.2629 37.7327 52.7104 36.3728 51.4566C34.6591 49.8766 33.8385 49.355 33.9757 48.7689C34.0032 48.6513 34.1233 48.5585 34.2708 48.5063C34.571 48.4 34.9645 48.3183 35.3821 48.3561C36.0313 48.4149 37.3155 49.4166 38.5289 49.9831C38.7197 50.0722 38.9188 50.0975 38.5122 49.717C37.2032 48.4923 33.9991 46.4198 33.6136 44.7992C33.5749 44.6367 33.5848 44.4514 33.7003 44.4042C33.9428 44.3051 34.2622 44.2735 34.5542 44.4C34.8707 44.537 35.541 45.1299 36.4812 45.8821C38.2395 47.2887 38.6864 47.7128 39.6708 48.355C39.4436 47.8923 38.6504 46.6419 37.3552 44.881C36.2005 43.3113 35.5573 42.4674 35.4115 42.0946C35.2692 41.7308 35.1805 41.3197 35.3713 40.9804C35.4675 40.8094 35.6216 40.6676 35.7815 40.5819C35.9415 40.4963 36.1404 40.4186 36.3451 40.6163C37.3312 41.5684 41.378 47.2602 40.8162 45.56C40.7061 45.2266 40.4238 44.3788 39.8061 43.5379C38.9778 42.4104 38.201 41.6918 37.9517 40.6682C37.7865 39.9899 37.5008 39.3324 37.6472 38.4241C37.6802 38.2192 37.7606 38.0918 38.1211 38.3424C38.4817 38.5929 39.1329 39.1792 39.8644 40.1156C41.4989 42.208 42.504 43.6458 43.1999 44.2673C45.6368 46.4436 47.0037 47.4865 47.7414 47.3325C48.0517 47.2678 48.4209 47.1136 48.5711 46.7642C48.7051 46.4525 48.7273 45.7871 48.8858 44.9734C49.0601 44.0785 49.1097 43.404 49.245 42.7483C49.4207 41.8971 49.515 40.7151 50.4438 40.2066C50.6429 40.0976 50.8436 40.1017 50.9482 40.3207C51.2112 40.8712 51.6342 42.544 51.7531 44.2416C51.8636 45.8208 51.6746 48.4432 51.8613 50.9266Z" fill="#704E3A"/>
<path d="M130.001 19.495C129.761 20.4771 129.75 20.6464 129.75 20.6598C129.942 20.9754 130.293 21.3671 130.397 21.4366C130.962 21.8127 130.905 21.786 132.09 22.1717C133.301 22.5402 134.648 22.5616 134.98 22.1717C135.131 21.9937 135.208 21.7628 135.426 21.0833C135.925 19.5216 136.213 17.3867 136.72 15.7732C137.096 14.5761 137.518 13.5819 138.331 13.1587C140.246 12.1625 142.364 11.4276 142.906 10.3237C143.146 9.83417 143.324 9.26014 143.244 8.81918C143.211 8.63695 143.147 8.54007 143.051 8.49178C142.955 8.44349 142.826 8.41744 142.703 8.45363C141.853 8.70398 139.548 10.8279 138.252 10.78C137.62 10.7566 136.758 10.8129 136.538 10.1085C136.319 9.40982 136.32 8.1152 136.894 6.60249C137.209 5.77311 137.649 4.58623 137.709 2.98874C137.771 1.31316 137.755 0.292209 137.554 0.197982C137.449 0.148412 137.289 0.134488 137.166 0.193829C136.931 0.307397 136.595 0.726193 136.109 2.06156C135.756 3.02709 135.248 4.55938 134.395 6.76397C133.541 8.96855 132.377 11.7608 131.549 14.1617C130.72 16.5626 130.241 18.5129 130.001 19.495Z" fill="#704E3A"/>
<path d="M136.223 9.21401C136.223 9.19235 136.101 9.7778 137.631 2.75728C137.8 1.97912 139.773 0.705031 140.712 0.011736C140.795 -0.0490208 140.897 0.137968 140.925 0.300329C141.07 1.13918 140.027 1.95918 138.895 3.52697C138.039 4.71167 137.681 5.42211 137.631 5.52977C137.43 5.95901 138.476 4.72644 139.437 3.97961C140.368 3.25592 141.005 3.22182 141.716 3.22493C141.845 3.2255 141.851 3.40071 141.811 3.52697C141.596 4.20515 140.72 4.57883 139.388 5.89174C138.485 6.78109 138.524 6.83581 138.304 7.33251C138.714 6.78084 139.367 6.13656 140.238 5.89174C140.362 5.85708 140.571 5.97643 140.66 6.01731C140.749 6.05819 140.669 6.35134 140.66 6.48894C140.617 7.1286 139.835 7.59777 138.895 8.66211C138.347 9.28263 138.224 10.1328 138.112 10.7347C138.092 10.8599 138.071 10.9802 138.039 11.1023C138.007 11.2245 136.226 11.2825 136.223 9.21401Z" fill="#694631"/>
</svg>
