<svg width="141" height="240" viewBox="0 0 141 240" fill="none" xmlns="http://www.w3.org/2000/svg">
<path d="M98.4853 188.899L101.367 180.488C102.168 182.907 110.397 187.041 114.871 188.841C119.344 190.64 116.831 193.858 116.023 195.021C115.215 196.183 114.225 198.599 114.044 199.852C113.862 201.105 113.945 204.956 112.863 208.893C111.781 212.831 108.466 213.63 107.482 213.36C106.497 213.089 105.874 211.208 105.251 209.326C104.628 207.445 105.722 197.24 104.565 193.745C103.639 190.95 100.126 189.35 98.4853 188.899Z" fill="#C0DEFF"/>
<path d="M85.2147 234.462C84.9493 232.76 91.5901 224.894 91.5953 222.207C91.5976 221.008 90.4498 218.711 89.1141 216.467L85.5262 211.989L91.0029 204.209C92.7012 205.735 93.0573 206.81 94.3961 209.051C99.2222 213.716 105.298 220.353 104.399 222.142C103.68 223.574 100.451 226.731 98.926 228.131C97.4577 231.202 93.6609 237.63 90.2205 238.769C85.92 240.194 85.48 236.164 85.2147 234.462Z" fill="#C0DEFF"/>
<path d="M110.685 177.103C105.925 193.713 96.0181 199.161 91.6594 199.81L60.8385 163.488L81.9885 153.5L110.685 177.103Z" fill="#C3E471"/>
<path d="M116.901 145.524C121.287 137.152 112.972 124.655 108.266 119.452C62.9847 131.327 48.4412 161.697 41.9759 180.481C34.3922 202.514 66.3598 214.46 78.6928 226.483L90.7124 215.044L96.7355 202.611L78.6928 180.481C90.1352 174.504 112.516 153.897 116.901 145.524Z" fill="#DDFC8F"/>
<path d="M41.8968 103.455C58.135 110.068 60.7267 108.786 68.7658 106.797C77.6425 103.393 69.0548 81.6827 66.3971 78.4818C63.7395 75.281 60.025 79.4465 44.5705 69.9273C29.116 60.408 35.5737 55.7187 33.1395 52.3323C30.7053 48.9459 18.3467 43.9901 15.2867 51.2172C12.2268 58.4444 7.30603 89.3672 41.8968 103.455Z" fill="#FEB3BD"/>
<path d="M110.523 103.301C113.468 110.199 113.339 117.174 112.088 120.87C106.44 132.882 77.6186 143.024 71.5743 140.552C65.53 138.08 57.5318 122.236 54.4352 113.717C51.3386 105.198 55.1384 100.062 55.9953 93.5146C56.8522 86.9672 67.6769 71.4512 79.595 72.5744C86.4418 73.2197 106.842 94.677 110.523 103.301Z" fill="#ED8648"/>
<path d="M63.7135 71.0265L66.3029 67.1199L68.4769 65.7904C70.867 68.9753 75.7949 75.5865 76.3858 76.5527C72.5223 83.6945 67.8954 81.3022 66.0648 79.2134L63.7135 71.0265Z" fill="#603F2C"/>
<path d="M52.6103 68.9851C49.2562 62.4603 54.1571 54.1559 57.1177 51.0874C79.5073 48.4441 76.5213 64.6448 76.9664 65.9887C77.4115 67.3326 73.1932 72.6073 71.31 74.1258C69.8034 75.3406 63.2471 79.4807 59.6598 79.4758C57.1627 77.3201 55.9645 75.5098 52.6103 68.9851Z" fill="#704B36"/>
<path d="M59.5554 44.0169L56.2272 51.9794C60.259 50.644 66.6173 50.0294 72.3405 53.801C76.7382 56.699 77.2767 63.3014 76.7026 66.9713L82.8966 58.6562C82.9588 57.3431 82.584 53.5699 80.5872 48.9817C78.5903 44.3936 65.7339 43.7601 59.5554 44.0169Z" fill="#011429"/>
<path d="M79.6657 62.4106L76.442 62.5835L74.9987 68.1321C75.8953 67.5369 78.0827 66.0965 79.6605 65.0967C81.2383 64.0969 80.3213 62.8894 79.6657 62.4106Z" fill="#704B36"/>
<path d="M55.2805 60.9023C55.5139 59.4745 57.0036 59.8049 57.3495 60.2926C58.4648 62.3723 57.2445 63.552 56.4127 63.4159C55.4401 63.2567 55.1288 61.83 55.2805 60.9023Z" fill="#011429"/>
<path d="M65.3415 61.4348C66.1018 60.2039 67.3529 61.0775 67.4866 61.6603C67.7244 64.0081 66.1465 64.6333 65.4295 64.1902C64.5911 63.6722 64.8475 62.2345 65.3415 61.4348Z" fill="#011429"/>
<path d="M57.6017 68.2264C57.6005 68.8233 57.9027 70.0357 59.1202 70.1096" stroke="#B28972" stroke-linecap="round"/>
<path d="M57.4498 72.0697C58.3151 73.2847 60.7502 74.8736 63.5678 71.5089" stroke="#B28972" stroke-linecap="round"/>
<path d="M69.7301 61.7017C69.9122 60.5311 69.3828 58.3084 65.8077 58.7819" stroke="#011429" stroke-linecap="round"/>
<path d="M58.3786 58.2215C57.3815 57.7118 55.1029 57.2141 53.965 59.3012" stroke="#011429" stroke-linecap="round"/>
<path d="M30.6736 44.9446C29.4256 46.2758 28.0802 47.9104 27.5394 48.6237C27.3836 49.0642 27.236 49.4481 27.0171 49.8328L27.0154 49.8359C26.951 49.949 26.877 50.0792 26.5406 50.1198C25.636 50.2291 22.9097 49.8027 22.772 49.605C22.34 48.9843 23.1201 47.5506 22.9569 46.1992C22.6835 43.9347 23.0698 44.0811 22.3294 43.016C21.9734 42.5039 21.5499 41.931 21.3592 41.1008C21.0313 39.6729 20.6349 38.7843 20.5287 37.4007C20.395 35.6571 20.1892 34.9525 20.6299 34.6968C20.7182 34.6455 20.8504 34.6548 20.9755 34.7005C21.23 34.7934 21.529 34.9472 21.7711 35.1796C22.1474 35.5407 22.3576 36.7462 22.7855 37.6745C22.8528 37.8204 22.9639 37.9352 22.9355 37.5184C22.8441 36.1767 22.062 33.4057 22.7953 32.3116C22.8688 32.202 22.9869 32.1041 23.0886 32.1364C23.3023 32.2042 23.5239 32.3483 23.6329 32.5662C23.7509 32.8024 23.8184 33.4704 23.961 34.3634C24.2276 36.0334 24.2552 36.4949 24.4923 37.3492C24.6273 36.9775 24.8786 35.8826 25.1194 34.2504C25.3341 32.7954 25.4352 32.0018 25.5676 31.7212C25.6969 31.4474 25.8887 31.1745 26.2144 31.0829C26.3786 31.0367 26.562 31.036 26.7151 31.0694C26.8683 31.1029 27.0413 31.1604 27.0519 31.3737C27.1029 32.4008 26.2357 37.6058 26.9052 36.3785C27.0365 36.1378 27.369 35.5247 27.4845 34.7457C27.6394 33.7011 27.5802 32.9094 28.0397 32.2155C28.3442 31.7556 28.5596 31.2464 29.2006 30.8166C29.3451 30.7197 29.473 30.6897 29.5505 31.0111C29.628 31.3325 29.6874 31.9873 29.5864 32.8769C29.3608 34.8646 29.1308 36.1708 29.1973 36.8677C29.43 39.308 29.6678 40.5782 30.2287 40.8661C30.4646 40.9872 30.7918 41.0885 31.0979 40.9707C31.3709 40.8657 31.7865 40.5078 32.378 40.1366C33.0285 39.7284 33.467 39.3794 33.9485 39.0842C34.5735 38.7009 35.3465 38.093 36.2425 38.281C36.4345 38.3212 36.5594 38.4251 36.4936 38.5995C36.3282 39.038 35.5873 40.1799 34.6384 41.1817C33.7557 42.1136 32.0535 43.4726 30.6736 44.9446Z" fill="#704E3A"/>
<path d="M76.1211 77.3063C73.9133 82.084 75.808 87.1343 76.3554 89.4366C79.4801 91.5521 78.1311 92.2409 87.9314 90.9218C97.7316 89.6028 112.215 66.593 112.805 58.6218C113.395 50.6505 101.432 28.8398 100.994 25.5892C100.557 22.3386 96.8895 19.1425 91.7852 16.5201C86.6809 13.8976 81.6083 17.0211 79.6159 23.3991C77.6235 29.777 85.7262 53.3564 86.0964 56.1069C86.4666 58.8574 78.8808 71.3342 76.1211 77.3063Z" fill="#FEB3BD"/>
<path d="M88.5159 18.4903C87.4226 18.5969 85.2422 18.9825 84.8334 19.0408L84.8334 19.0408C84.8473 18.8595 84.8609 18.6836 84.8728 18.4849C84.8847 18.2862 84.8947 18.0713 84.9101 17.8749C84.9803 17.1605 85.0361 16.5187 85.1082 15.8843C85.2116 14.974 85.2214 13.9008 84.3484 12.6031C83.8359 11.8413 83.662 11.0762 82.7487 9.67588C82.1838 8.80982 81.1786 8.50926 80.9186 7.58338C80.8368 7.29233 80.8526 6.8648 80.912 6.58912C80.9714 6.31344 81.0714 6.19324 81.1973 6.15889C81.3232 6.12453 81.4763 6.16423 81.6091 6.245C82.255 6.63793 83.8144 8.91122 85.422 9.0145C86.0894 9.05738 86.8262 9.00216 87.2097 8.47424C87.5682 7.98069 87.1682 3.85323 87.8009 1.53127C87.8894 1.20637 88.0428 0.859365 88.3455 0.770663C88.4862 0.729426 88.6321 0.764539 88.7541 0.84461C88.8762 0.924681 89.0176 1.04355 89.0108 1.34703C88.9757 2.90762 88.3376 8.72787 88.9889 7.36698C89.3579 6.59622 89.2826 4.54532 90.1536 2.29592C90.5384 1.30231 90.521 0.445662 91.2268 0.0160821C91.3941 -0.0857406 91.7088 0.318394 91.7272 0.596442C91.7822 1.42712 91.6024 2.48132 91.3439 3.85624C91.2067 4.58548 91.0758 5.43408 90.951 6.27938C91.1152 5.6533 91.3397 5.02448 91.6352 4.35728C91.9785 3.58219 92.2633 2.70483 92.8554 2.85293C93.0289 2.89633 93.1264 2.96589 93.2273 3.03798L93.2315 3.04097C93.446 3.19411 93.4921 3.5222 93.2315 4.5453C92.9279 5.73728 92.2377 7.81387 92.4414 9.04293C92.4424 9.04075 92.4436 9.03863 92.4449 9.03656C92.9872 8.16288 93.8247 5.83433 94.5478 6.15889C94.6482 6.20394 94.7652 6.41589 94.7358 6.58912C94.6725 6.96235 94.5651 7.82902 94.3597 8.30614C93.9043 9.36439 93.6739 10.7672 92.4628 13.3321C91.7643 14.8113 91.2776 15.4123 90.7678 16.2743C89.9068 17.73 89.2942 18.4145 88.5159 18.4903Z" fill="#704E3A"/>
</svg>
