<svg width="236" height="139" viewBox="0 0 236 139" fill="none" xmlns="http://www.w3.org/2000/svg">
<path d="M61.2383 121.257L7.00735 52.2442L50.6689 18.7903L106.06 86.4322L61.2383 121.257Z" fill="#FFB2BD"/>
<path d="M63.1614 115.291L13.7727 53.039L54.3781 22.2006L104.85 83.1946L63.1614 115.291Z" fill="#88AEFF"/>
<path d="M57.6463 108.107L16.9019 44.3888L59.5049 18.8998L101.434 81.525L57.6463 108.107Z" fill="#C0DEFF"/>
<path d="M106.882 85.742L91.3333 66.4268L31.4743 79.9269L62.0957 120.613L106.882 85.742Z" fill="#FFB2BD"/>
<path d="M93.3978 103.062L79.0604 16.47L133.432 8.14944L149.446 94.0978L93.3978 103.062Z" fill="#FF7A4D"/>
<path d="M97.9555 98.7565L84.6102 20.4209L135.044 12.9228L149.944 90.6766L97.9555 98.7565Z" fill="#88AEFF"/>
<path d="M96.5732 89.8049L91.5114 14.3426L141.123 12.4952L147.749 87.569L96.5732 89.8049Z" fill="#C0DEFF"/>
<path d="M150.498 93.8876L146.16 69.4742L87.1897 52.5091L94.4587 102.909L150.498 93.8876Z" fill="#FF7A4D"/>
<path d="M121.814 89.1995L167.011 13.9597L213.812 42.8584L170.309 118.694L121.814 89.1995Z" fill="#DFFC8E"/>
<path d="M128.073 88.8733L168.675 20.5648L211.945 47.5381L172.904 116.411L128.073 88.8733Z" fill="#88AEFF"/>
<path d="M132.822 81.1599L177.87 20.4079L216.851 51.1517L173.246 112.622L132.822 81.1599Z" fill="#C0DEFF"/>
<path d="M171.245 119.215L183.763 97.811L149.845 46.6744L122.719 89.7697L171.245 119.215Z" fill="#DFFC8E"/>
</svg>
