<svg width="198" height="345" viewBox="0 0 198 345" fill="none" xmlns="http://www.w3.org/2000/svg">
<path d="M9.78983 309.5C18.1898 303.5 59.7421 294.167 77.7421 293C84.9089 294.167 101.142 296.4 108.742 296C118.242 295.5 189.29 311.5 189.79 318.5C190.29 325.5 168.742 335.5 155.242 341.5C141.742 347.5 77.7421 342.5 58.2423 341.5L57.6187 341.468C38.0885 340.467 7.68917 338.91 2.74214 330.5C-2.25786 322 -0.710175 317 9.78983 309.5Z" fill="#C2E46D"/>
<path d="M189.171 58.6295C188.811 59.3734 188.366 60.1683 188.127 60.5916C188.092 60.649 188.071 60.6866 188.048 60.7187C187.916 60.8739 187.763 61.0023 187.643 61.1649C187.569 61.3688 187.511 61.7015 187.338 61.9934C187.134 62.3381 186.921 62.6941 186.637 62.7134C186.496 62.7229 186.354 62.7162 186.253 62.6601C186.162 62.6095 186.029 62.5468 186.01 62.4228C185.992 62.3057 186.004 62.144 186.396 61.4721C186.705 60.9436 187.281 59.9704 187.769 58.9716C188.258 57.9729 188.639 56.9752 188.881 56.4014C189.19 55.6685 189.292 55.4407 189.395 55.3338C189.622 55.0966 189.855 54.9065 190.088 54.9218L190.091 54.922C190.195 54.9288 190.326 54.9374 190.342 55.0262C190.362 55.1381 190.309 55.6474 189.993 56.6155C189.81 57.1781 189.542 57.8643 189.171 58.6295Z" fill="#BC977C"/>
<path d="M180.072 62.8878C179.778 63.4494 179.635 63.6003 179.483 63.7811C179.484 63.9499 179.423 64.4605 179.433 64.6027C179.462 64.8618 179.559 65.2617 179.742 65.6261C179.847 65.7341 179.981 65.8693 180.223 65.8589C181.003 65.8255 181.788 65.6841 182.305 65.0768C182.992 64.2712 183.598 63.3384 183.639 62.6677C183.69 61.8205 183.692 61.3397 184.674 59.7974C185.119 59.0979 185.44 58.6701 185.603 58.3483C185.887 57.7878 186.165 57.0313 185.826 56.7303C185.712 56.6297 185.498 56.5452 185.259 56.6005C184.923 56.6786 184.161 57.0103 182.819 58.6013C182.325 59.1865 181.722 59.9808 181.214 60.7974C180.705 61.614 180.31 62.4314 180.072 62.8878Z" fill="#B88D6E"/>
<path d="M169.15 80.4822C169.15 80.47 169.024 80.661 169.365 79.9255C170.17 78.1885 170.917 76.9084 171.124 76.6112C171.262 76.4143 171.44 76.194 171.895 75.3963C172.255 74.7649 167.948 77.7993 170.139 75.3963C170.62 74.8683 171.461 73.9301 171.66 72.9932C171.858 72.0563 174.221 68.6047 174.433 67.6591C174.737 66.3023 175.172 65.7951 175.464 65.5212C176.059 64.9622 177.397 64.2895 177.893 64.1559C178.297 64.0473 178.681 64.017 179.344 63.8944C179.582 63.8505 180.255 63.7374 181.618 63.3616C182.41 63.1433 183.361 62.725 184.216 62.3321C185.072 61.9392 185.791 61.5475 186.347 61.2001C186.904 60.8526 187.276 60.5612 187.689 60.1677C188.102 59.7742 188.545 59.2873 189.251 58.3324C189.957 57.3775 190.912 55.9693 191.604 55.0353C192.638 53.6397 192.335 53.9295 192.707 53.3246C192.966 52.9034 193.453 53.0318 193.51 53.0552C193.937 53.2297 193.305 54.7613 192.445 56.3262C192.003 57.13 191.182 58.5 190.536 59.4703C190.104 60.1192 189.751 60.6004 189.46 60.9645C190.156 60.1462 191.139 58.9453 191.923 57.8856C192.864 56.6134 193.473 55.5815 193.865 54.9267C194.407 54.0213 194.636 53.7195 194.766 53.6199C195.044 53.407 195.358 53.4168 195.538 53.4436C195.623 53.4563 195.685 53.5239 195.721 53.6602C195.896 54.3234 195.538 54.9251 194.649 56.7149C193.737 58.5515 193.377 59.0754 193.152 59.4198C192.501 60.416 191.257 61.8042 191.101 61.9897C191.033 62.0706 191.413 61.923 191.889 61.5526C193.006 60.6835 193.829 59.8617 194.161 59.403C194.632 58.7545 195.181 57.6285 195.76 56.478C196.272 55.4585 196.79 55.0989 197.146 54.9489C197.249 54.9055 197.397 54.9318 197.503 54.9721C197.609 55.0125 197.675 55.094 197.716 55.1875C197.929 55.6766 197.691 56.4876 196.892 58.4181C196.595 59.1357 196.022 59.9641 195.236 61.0448C194.581 61.9456 193.901 62.5278 193.259 63.1416C192.404 63.9593 191.739 64.3849 191.466 64.6883C190.914 65.3003 190.245 65.8505 189.763 66.1824C189.426 66.4149 188.324 66.7693 186.783 67.2541C186.184 67.4426 185.943 67.4691 184.788 67.6487C183.633 67.8284 181.568 68.1489 180.461 68.327C179.07 68.5509 178.688 68.8077 178.349 69.0904C178.251 69.1723 178.169 69.3046 177.801 70.2088C177.432 71.1131 176.791 72.7972 176.459 73.7141C176.094 74.7201 176.069 74.9399 175.609 75.9412C175.199 76.8349 174.422 78.5075 173.935 79.4915C173.071 81.237 172.23 81.6649 171.66 81.9507C171.459 82.0514 171.2 82.0414 170.93 82.0273C170.49 82.0044 170.098 81.5772 169.724 81.3439C169.355 81.0578 169.16 80.9127 169.078 80.7832C169.055 80.7134 169.071 80.6356 169.15 80.4822Z" fill="#BC977C"/>
<path d="M132.299 267.141L137.704 274.357L137.704 295.809L125.855 295.116L121.633 272.126L132.299 267.141Z" fill="#BC977C"/>
<path d="M138.263 292.645L124.396 293.808C126.072 296.376 126.258 309.722 127.142 315.632V322.705L134.634 324.194V321.449L147.523 327.684C149.075 327.467 152.633 326.949 154.457 326.614C156.281 326.279 155.899 323.868 155.481 322.705C151.231 319.82 142.154 313.352 139.845 310.56C137.537 307.768 138.201 297.453 138.263 292.645Z" fill="#ED8648"/>
<path d="M70.6975 269.519L71.5816 275.475L66.0907 294.6L54.6436 289.714L58.9246 269.519H70.6975Z" fill="#BC977C"/>
<path d="M67.3931 290.413L54.5034 286.83C54.5034 292.879 43.5216 311.027 41.1019 313.307C39.1661 315.132 26.2113 319.45 23.4658 323.917L31.1438 327.174C36.1694 326.43 37.3327 325.475 41.1019 323.917L41.1398 323.901C43.3708 322.979 51.0241 319.815 52.8747 318.519V323.917H64.1358L67.3931 290.413Z" fill="#ED8648"/>
<path d="M24.3578 162.095C24.4748 161.543 24.4814 161.466 24.4814 161.47C24.9713 160.547 25.9459 159.878 26.5494 158.982C27.1528 158.086 27.8593 157.195 28.2259 156.708C28.6186 156.138 28.8485 155.683 29.5235 154.919C29.9303 154.459 30.4943 153.89 31.248 153.333C32.0017 152.777 32.9103 152.237 33.4349 151.964C34.0683 151.634 34.3836 151.568 34.7104 151.588C34.9191 151.601 35.1074 151.622 35.18 151.752C35.2419 151.864 34.4247 152.077 34.1043 152.814C33.9064 153.269 33.9545 154.725 33.4349 155.792C33.0778 156.525 33.0578 157.433 32.7261 158.213C32.3943 158.993 32.4115 159.681 32.2734 160.236C31.9745 161.439 31.7842 162.33 31.7247 162.961C31.6368 163.893 31.5586 164.778 31.3916 165.293C31.3036 165.564 31.221 165.709 31.0873 165.757C31.0219 165.78 30.948 165.786 30.8869 165.763C30.7696 165.719 30.3994 165.703 30.349 165.191C30.2941 164.634 30.3661 164.537 30.349 162.758C30.3382 161.639 30.3895 160.104 30.4791 158.972C30.5687 157.84 30.6691 157.124 30.827 156.569C31.1011 155.606 31.2306 155.108 31.1981 155.143C31.1447 155.202 31.029 155.368 30.9059 155.622C30.629 156.191 30.2528 157.163 30.0773 158.213C29.9901 158.734 29.8207 159.156 29.5244 160.323C29.3052 161.187 28.9952 162.579 28.8159 163.841C28.6365 165.104 28.6054 166.205 28.5494 166.841C28.4783 167.649 28.4406 168.196 28.1161 168.333C28.0517 168.36 27.9814 168.364 27.9228 168.342C27.8106 168.3 27.4747 167.885 27.4018 167.767C27.3361 167.66 27.3089 167.312 27.1284 166.517C27.03 166.084 26.9825 165.721 26.9932 164.809C27.0039 163.896 27.0382 162.472 27.149 161.528C27.3144 160.119 27.4115 159.59 27.4018 159.448C27.3965 159.37 27.3836 159.284 27.3089 159.355C27.2342 159.425 27.1016 159.646 26.9362 159.977C26.7707 160.308 26.5783 160.737 26.0881 162.464C25.5978 164.191 24.8568 167.135 24.4175 168.665C23.9384 170.334 23.8539 170.534 23.757 170.607C23.7076 170.644 23.6443 170.667 23.5817 170.668C23.5191 170.67 23.4568 170.655 23.3984 170.621C23.2785 170.55 23.1746 170.456 23.1368 170.267C23.0725 169.945 22.9767 169.2 23.1831 167.767C23.3147 166.852 23.5641 165.589 23.799 164.511C24.0338 163.434 24.2572 162.571 24.3578 162.095Z" fill="#B88D6E"/>
<path d="M33.8438 146.1C34.1585 145.703 34.6453 145.248 35.8058 143.792C35.9485 143.684 36.0388 143.618 36.1309 143.549C36.3499 143.387 36.7407 143.05 37.9215 141.867C40.0563 139.725 41.5686 138.067 42.0404 137.834C42.8302 137.443 45.1526 136.268 45.6357 138.023C45.7456 138.422 45.3113 139.195 44.4582 140.822C43.6052 142.448 42.3709 144.856 41.3557 146.824C40.3406 148.793 39.4771 150.237 39.1535 151.098C38.4406 152.993 38.0527 154.882 37.9369 155.645C37.8801 156.02 37.8416 158.444 37.8241 161.89C37.8158 163.526 37.8066 164.057 37.6585 164.338C37.5012 164.637 37.3222 164.936 37.0552 165.023C36.9204 165.067 36.7418 165.104 36.6324 165.018C36.213 164.687 35.4614 163.486 35.32 161.616C35.0978 158.679 34.8837 156.266 34.5786 155.492C34.3078 154.804 34.0026 154.045 33.409 153.877C33.2766 153.839 33.1238 153.831 33.0001 153.889C32.5048 154.122 32.041 154.523 30.6755 155.761C29.977 156.393 29.0521 157.244 27.5943 158.919C25.8511 160.923 24.6666 162.268 24.1999 162.899C23.2016 164.249 22.4417 165.454 22.0384 165.945C21.4874 166.616 20.9421 167.414 20.2542 167.307C20.0879 167.282 19.9416 167.205 19.8694 166.997C19.7973 166.79 19.7615 166.455 19.8175 166.224C19.9931 165.502 20.2861 164.693 20.9182 163.568C21.7904 162.016 22.7076 160.543 23.4906 159.244C24.5629 157.465 25.5854 155.837 27.199 153.986C28.3353 152.682 30.1475 150.742 31.1681 149.471C32.5589 147.739 33.275 146.818 33.8438 146.1Z" fill="#BC977C"/>
<path d="M90.4738 283.525C72.0467 288.029 47.896 268.153 38.124 257.652C57.6679 233.316 85.169 138.434 86.9372 134.014C88.7055 129.593 118.626 125.545 126.304 137.085C132.447 146.317 149.772 230.756 154.41 271.054C149.292 273.706 137.132 276.638 128.398 276.638C114.252 276.638 100.013 283.525 101.781 282.268C106.248 270.914 104.356 217.603 102.852 192.366C95.9442 251.01 93.9384 262.932 90.6454 282.505L90.4738 283.525Z" fill="#FFB2BD"/>
<path d="M37.3327 146.113C35.4714 144.392 30.967 146.132 35.8437 130.757C41.9395 111.539 54.7826 105.723 58.5518 99.9059C62.321 94.0893 72.2326 76.6394 72.2326 73.7078C72.2326 70.7762 95.2199 54.7688 126.071 61.7488C127.84 63.5171 144.279 84.295 147.165 90.3908C150.05 96.4866 150.827 75.7552 162.46 73.7078C174.094 71.6604 192.707 67.5189 194.475 82.4095C196.243 97.3001 155.438 123.065 149.342 118.97C145.292 116.249 137.625 108.708 132.772 102.766C136.629 110.978 141.323 124.002 139.194 130.757C135.704 141.832 76.5601 145.322 76.0017 139.506C75.4732 134 75.9453 119.814 75.9972 112.631C75.885 120.419 74.8954 150.637 67.5793 153.466C58.5518 156.956 40.3285 156.862 37.3327 146.113Z" fill="#88AEFF"/>
<path d="M113.03 48.434C96.8926 46.5035 93.8243 54.7229 86.6459 56.4377C59.2844 59.3228 63.1932 33.6832 64.4962 24.2833C65.7295 15.3864 77.8047 2.3662 96.6041 0.179141C115.403 -2.00791 125.175 16.4659 127.362 20.9794C130.365 27.1767 132.481 50.7608 113.03 48.434Z" fill="#011529"/>
<path d="M96.2781 45.1768H103.258C101.304 60.6723 111.494 64.0227 112.006 64.9533C112.611 70.1185 102.514 83.0082 101.909 82.3567C97.4415 81.2399 86.6923 66.4424 87.2042 65.9305C93.4955 63.3247 95.8749 51.0089 96.2781 45.1768Z" fill="#B88D6E"/>
<path d="M86.0873 35.0791C82.5973 28.9367 90.7993 26.6633 92.521 18.9854C95.7783 18.9854 97.0118 20.4884 99.1287 21.8704C100.351 22.6682 102.619 23.2199 104.666 23.9644C107.659 25.0529 107.632 28.2852 108.284 27.8199C108.935 27.3546 109.54 26.7962 109.912 28.2852C110.284 29.7743 108.284 33.0782 108.284 33.4504C108.935 39.4067 104.654 48.2945 103.118 48.2945C96.3803 47.8105 91.206 43.2999 89.205 40.7561C79.5726 36.8939 83.4349 34.4741 86.0873 35.0791Z" fill="#BC977C"/>
<path d="M101.782 30.1172C101.782 29.1571 102.793 29.2138 103.072 29.4962C104.025 30.7387 103.352 31.6421 102.793 31.6421C102.139 31.6421 101.782 30.741 101.782 30.1172Z" fill="#011429"/>
<path d="M92.1067 32.5794C91.918 31.6342 92.9316 31.49 93.2635 31.7128C94.4528 32.7475 93.9632 33.7699 93.4086 33.8805C92.7601 34.0099 92.2293 33.1935 92.1067 32.5794Z" fill="#011429"/>
<path d="M91.4263 28.2598C90.5267 28.4769 88.9228 29.6837 89.7046 32.7735" stroke="#011429" stroke-linecap="round"/>
<path d="M88.5191 39.598C89.3412 39.5515 90.5665 39.8773 90.7526 40.9941C90.9853 42.39 90.4667 42.9096 89.822 43.1811C88.9378 43.5533 88.2399 43.3207 87.5419 42.8088C86.852 42.3029 86.7973 40.9474 87.2626 40.1099" stroke="#FFDD67" stroke-linecap="round"/>
<path d="M109.111 32.0179C109.933 31.9714 111.158 32.2972 111.344 33.414C111.577 34.81 111.058 35.3295 110.413 35.601C109.529 35.9732 109.273 35.969 108.575 35.4571" stroke="#FFDD67" stroke-linecap="round"/>
<path d="M104.968 27.1439C104.084 26.3007 102.735 25.4221 100.556 26.2004" stroke="#011429" stroke-linecap="round"/>
<path d="M97.7552 38.9463C99.5696 39.1027 99.942 38.8235 101.012 38.172" stroke="#69462C" stroke-linecap="round"/>
<path d="M96.7875 41.9874C98.3135 43.1043 100.594 43.2904 102.873 41.8013" stroke="#69462C" stroke-linecap="round"/>
</svg>
