<svg width="254" height="252" viewBox="0 0 254 252" fill="none" xmlns="http://www.w3.org/2000/svg">
<path d="M45.8094 27.7511C51.6961 15.7917 82.9846 4.8289 97.893 0.842435C104.447 -1.05304 156.415 0.842435 181.48 0.842435C206.544 0.842435 236.323 35.2257 246.556 58.4546C256.788 81.6834 254.949 138.376 246.556 168.044C238.162 197.713 221.491 224.736 197.346 239.686C173.202 254.635 102.618 255.553 82.1521 242.558C61.6866 229.564 36.6114 215.422 19.825 188.513C6.39597 166.986 14.2296 106.484 19.825 78.9235C26.0337 66.8491 39.9227 39.7105 45.8094 27.7511Z" fill="#C0DEFF"/>
<path d="M95.1567 229.593L139.158 235.103C160.464 240.495 177.433 228.207 185.722 227.257C194.011 226.308 200.495 223.94 207.535 219.987C217.531 214.375 216.582 205.173 225.739 198.719C234.897 192.264 220.229 182.052 221.862 171.702C223.494 161.352 165.871 151.135 148.605 145.929C131.339 140.723 101.168 145.668 83.5791 145.377C65.9903 145.085 54.5059 166.293 53.6723 171.578C52.8387 176.863 53.3286 182.357 46.7594 186.737C40.1903 191.118 42.3896 202.974 43.5987 206.776C44.5659 209.817 92.6982 227.024 95.1567 229.593Z" fill="#AACEF5"/>
<path d="M30.0881 172.787C24.0173 182.696 30.0024 183.347 32.5318 186.602C32.5318 191.961 77.4195 209.469 96.3263 209.469C115.233 209.469 141.085 212.447 161.278 209.469C181.471 206.492 227.674 201.263 237.806 195.415C267.879 178.058 243.462 163.71 234.023 160.107C213.103 152.122 169.057 143.344 158.326 143.344C86.3897 143.344 108.383 143.104 78.9628 147.418C38.3445 153.376 37.6765 160.4 30.0881 172.787Z" fill="#603E2D"/>
<path d="M65.9302 171.392C66.3531 174.357 70.6447 175.433 74.314 176.474C76.8509 179.633 75.7027 181.457 74.314 186.349C72.9254 191.241 63.9607 194.215 46.9267 196.384C29.8928 198.552 22.7784 174.269 16.918 174.323C11.0577 174.376 4.25035 164.133 1.82364 158.089C-0.603073 152.046 13.6207 143.888 16.341 143.761C19.0613 143.634 25.9065 147.743 28.3523 150.263C30.7981 152.783 41.9342 154.977 51.7922 157.352C61.6502 159.728 68.1479 163.662 67.0522 165.123C65.9564 166.583 65.4017 167.686 65.9302 171.392Z" fill="#FFB2BD"/>
<path d="M152.977 84.9157L184.312 83.4717C192.146 84.7714 198.381 81.7389 201.258 80.2949C204.136 78.8509 204.616 73.2193 207.493 72.2085C210.371 71.1977 210.371 59.9346 213.249 54.8806C216.127 49.8266 210.371 44.7726 210.371 37.9858C210.371 31.199 189.428 30.477 183.033 28.8886C176.638 27.3002 166.246 33.5094 160.011 35.0978C153.776 36.6862 150.898 51.415 150.898 54.8806C150.898 58.3462 151.378 61.8118 149.3 65.2774C147.221 68.743 148.66 76.1073 149.3 78.4178C149.811 80.2661 151.964 83.5199 152.977 84.9157Z" fill="#AACEF5"/>
<path d="M170.163 69.6821L168.098 60.6455H203.082L201.791 69.6821H199.209L198.047 83.1078H175.585L173.52 69.6821H170.163Z" fill="#88AEFF"/>
<path d="M171.342 53.0437L175.989 60.7893H178.055L172.891 52.5273C173.321 52.6994 174.543 52.6306 175.989 50.9782C177.797 48.9127 179.088 46.8472 178.571 46.8472C178.055 46.8472 174.182 44.7817 169.793 46.8472C166.281 48.4996 164.887 51.6667 164.629 53.0437H163.338C162.564 52.4413 160.498 51.1848 158.433 50.9782C155.851 50.72 154.043 53.0437 150.945 55.1092C147.847 57.1747 148.621 60.7893 147.847 62.5966C147.072 64.404 143.458 67.244 144.749 74.7315C146.04 82.2189 149.654 79.3788 154.043 73.1823C155.076 69.5677 151.203 63.6294 150.945 60.7893C150.739 58.5173 155.851 54.6789 158.433 53.0437L163.338 55.1092L171.342 53.0437Z" fill="#C2E46D"/>
<path d="M198.822 60.7748H197.918C198.391 59.7851 199.338 57.7282 199.338 57.4184C199.338 57.0311 201.533 53.9328 201.533 53.2874C201.533 52.771 201.36 51.0067 201.274 50.1891C201.877 49.2855 203.314 47.2458 204.244 46.3163C205.405 45.1545 209.795 44.8963 210.44 44.8963C211.086 44.8963 211.86 44.3799 213.022 44.3799H217.669C219.218 44.3799 219.348 48.5109 219.348 50.1891C219.348 51.8673 219.218 53.2874 218.186 53.4164C217.359 53.5197 215.69 52.771 214.958 52.3837L212.376 49.0273C212.204 48.3388 211.757 46.8327 211.344 46.3163C210.827 45.6708 208.116 46.3163 207.342 46.3163C206.567 46.3163 202.565 49.1564 202.565 50.1891V53.9328C203.254 53.2874 205.173 51.8931 207.342 51.48C210.053 50.9637 209.795 53.1583 210.44 54.7074C210.956 55.9467 210.225 57.7196 209.795 58.4511H203.598C202.462 58.4511 201.576 56.988 201.274 56.2565L198.822 60.7748Z" fill="#DDFC8F"/>
<path d="M183.091 60.6455H184.234C183.636 59.3986 182.438 56.8072 182.438 56.4169C182.438 55.929 179.662 52.0257 179.662 51.2125C179.662 50.5619 179.879 48.3392 179.988 47.3092C179.226 46.1707 177.408 43.6011 176.232 42.4301C174.762 40.9663 169.21 40.641 168.393 40.641C167.577 40.641 165.436 39.4741 163.967 39.4741H159.707C157.747 39.4741 155.446 42.7818 155.446 44.8961C155.446 47.0104 152.849 49.5099 154.156 49.6725C155.201 49.8026 158.322 47.7971 159.248 47.3092L161.127 44.8961C163.45 42.4301 166.727 43.0806 167.25 42.4301C167.903 41.6169 171.333 42.4301 172.313 42.4301C173.293 42.4301 178.355 46.0081 178.355 47.3092V52.0257C177.484 51.2125 175.056 49.456 172.313 48.9356C168.883 48.285 169.21 51.0499 168.393 53.0015C167.74 54.5628 168.665 56.7964 169.21 57.718H177.049C178.486 57.718 179.607 55.8748 179.988 54.9532L183.091 60.6455Z" fill="#DDFC8F"/>
<path d="M185.696 58.3484C185.387 59.2779 185.567 60.1988 185.696 60.543H186.858C186.815 60.0697 186.832 58.839 187.246 57.7029C187.762 56.2829 190.344 55.2502 191.118 55.2502C191.893 55.2502 194.346 53.8301 194.991 53.1847C195.637 52.5392 196.282 51.7646 196.669 51.7646C197.057 51.7646 198.089 51.1192 198.993 51.1192C199.897 51.1192 199.768 51.3773 200.671 51.7646C201.575 52.1519 201.575 52.281 202.091 53.8301C202.608 55.3792 202.866 55.2502 204.802 55.6374C206.739 56.0247 208.288 55.8956 208.288 55.2502C208.288 54.6047 207.642 51.6355 206.222 50.0864C204.802 48.5373 201.188 50.0864 198.993 50.0864C196.799 50.0864 196.282 51.3773 196.669 50.0864C197.057 48.7955 197.831 48.0209 198.089 46.6009C198.348 45.1809 198.993 45.0517 199.768 44.1481C200.542 43.2445 202.091 42.0826 202.866 40.9208C203.64 39.7589 205.577 38.468 206.222 38.468H207.642C208.417 38.468 211.128 38.0807 212.806 38.0807C214.484 38.0807 214.355 33.046 213.71 33.046C213.064 33.046 209.579 32.5297 208.288 33.4333C206.997 34.337 205.577 38.0807 205.577 37.177C205.577 36.2734 203.77 34.4661 203.64 33.4333C203.511 32.4006 201.833 31.8842 200.155 31.2387C198.812 30.7224 196.153 31.0236 194.991 31.2387C195.422 32.1854 196.282 34.2853 196.282 35.1115C196.282 35.9377 198.089 36.8328 198.993 37.177C201.231 37.4783 205.525 38.0807 204.802 38.0807C203.899 38.0807 200.8 41.4371 200.155 42.0826C199.509 42.7281 197.315 45.5681 197.057 44.1481C196.799 42.7281 195.508 42.0826 194.346 40.9208C193.184 39.7589 187.633 38.0807 187.891 39.888C188.098 41.3339 189.182 42.642 189.698 43.1154L193.442 46.6009C194.389 46.6439 196.282 46.8849 196.282 47.5045C196.282 48.2791 194.991 51.6355 194.346 52.281C193.7 52.9265 189.827 54.3465 189.182 54.3465C188.537 54.3465 186.084 57.1866 185.696 58.3484Z" fill="#C2E46D"/>
<path d="M191.335 56.902V60.5166H189.398V59.2257V54.5783C189.398 53.5455 188.624 51.7382 187.72 50.1891C186.816 48.64 186.687 48.3818 185.396 47.3491C184.105 46.3163 183.718 44.2508 182.556 43.218C181.394 42.1853 181.911 40.6362 180.878 39.8616C179.845 39.0871 178.038 40.6362 177.005 41.9271C175.972 43.2181 176.876 42.7017 176.231 43.218C175.585 43.7344 171.712 46.9618 171.067 45.929C170.421 44.8963 172.745 41.9271 173.649 39.8616C174.552 37.7961 177.263 38.4416 178.038 38.4416C178.812 38.4416 181.911 39.9907 181.911 38.4416C181.911 36.8925 180.878 34.6979 180.878 33.536C180.878 32.3742 180.362 32.2451 179.716 30.825C179.071 29.405 180.362 28.7595 181.911 27.0813C183.46 25.4031 187.72 27.0813 188.624 27.0813C189.527 27.0813 188.624 29.1468 187.72 30.825C186.816 32.5033 183.718 31.7287 182.556 32.2451C181.627 32.6582 181.739 34.0524 181.911 34.6979C182.513 36.6773 183.718 40.8943 183.718 41.9271C183.718 43.2181 185.913 43.7344 186.687 41.9271C187.462 40.1198 189.914 40.8943 192.625 40.6362C195.336 40.378 196.627 42.4435 195.853 43.218C195.078 43.9926 193.271 45.2835 191.335 45.2835C189.398 45.2835 185.913 43.6053 185.913 45.2835C185.913 46.9617 187.978 47.8654 188.624 48.3818C189.269 48.8982 191.335 55.611 191.335 56.902Z" fill="#DDFC8F"/>
<path d="M238.454 81.3291L142.795 83.1364L141.246 89.5911H240.906L238.454 81.3291Z" fill="#603E2D"/>
<path d="M178.813 167.726L185.1 167.876C188.184 168.326 190.587 167.067 191.743 166.82C192.898 166.572 193.155 165.373 194.305 165.219C195.456 165.064 195.589 162.644 196.788 161.621C197.986 160.598 195.769 159.387 195.85 157.929C195.93 156.471 187.653 155.858 185.142 155.377C182.631 154.896 178.446 156.003 175.96 156.208C173.475 156.413 172.162 159.515 172.121 160.259C172.079 161.004 172.228 161.759 171.365 162.458C170.501 163.157 170.983 164.771 171.209 165.281C171.389 165.69 178.429 167.404 178.813 167.726Z" fill="#4B2918"/>
<path d="M155.493 184.836L161.658 183.605C164.734 183.167 166.909 182.116 168.004 181.768C169.1 181.42 169.185 180.839 170.288 180.533C171.392 180.228 171.189 179.133 172.22 178.435C173.25 177.736 170.917 177.66 170.795 177C170.673 176.341 162.5 177.779 159.98 178.085C157.46 178.391 153.522 179.743 151.122 180.346C148.721 180.949 147.864 182.588 147.926 182.925C147.989 183.262 148.238 183.564 147.49 184.05C146.743 184.537 147.436 185.149 147.726 185.327C147.959 185.47 155.074 184.773 155.493 184.836Z" fill="#4B2918"/>
<path d="M168.496 159.143C166.291 156.938 164.444 144.684 163.719 139.993C163.406 138.107 170.538 134.335 173.004 133.9C175.47 133.465 179.822 132.304 184.755 132.304C189.688 132.304 195.346 137.672 195.346 138.833V149.278C195.346 156.242 192.299 159.724 190.268 161.61C188.237 163.496 182.279 163.786 178.942 164.076C175.605 164.366 171.253 161.9 168.496 159.143Z" fill="#ED8648"/>
<path d="M172.132 137.672C170.043 137.904 167.586 139.703 166.619 140.573C166.619 143.475 174.163 143.62 176.194 143.62C178.225 143.62 184.899 143.185 188.961 141.879C193.023 140.573 193.893 140.573 193.893 139.558C193.893 138.542 186.349 135.206 183.738 134.915C181.127 134.625 174.743 137.382 172.132 137.672Z" fill="#603E2D"/>
<path d="M200.208 138.107H194.801V140.596C195.703 140.548 197.698 140.538 198.47 140.889C199.436 141.328 199.049 142.646 199.629 144.257C200.208 145.867 199.629 147.477 199.629 148.356C199.629 149.234 198.47 151.138 197.505 151.43C196.732 151.665 194.48 151.528 193.45 151.43C193.128 152.309 192.678 154.066 193.45 154.066H199.049C201.173 154.066 201.366 151.138 202.718 149.234C204.069 147.331 203.297 143.524 202.718 141.328C202.139 139.132 201.173 138.107 200.208 138.107Z" fill="#ED8648"/>
<path d="M165.073 174.285L163.692 176.069L172.15 173.909L172.006 173.65L170.395 173.19L165.073 174.285Z" fill="#88AEFF"/>
<path d="M175.733 174.127L173.185 174.754L173.674 176.183L176.169 175.759L175.733 174.127Z" fill="#88AEFF"/>
<path d="M146.386 184.357L145.163 180.784L173.507 173.539L173.818 174.704L174.161 175.986L174.378 176.802L146.386 184.357Z" fill="#C0DEFF"/>
<path d="M146.386 184.356L145.163 180.784L141.205 184.287L146.386 184.356Z" fill="#88AEFF"/>
<path d="M95.0529 181.9L73.0144 106.266L120.578 93.0361L144.041 167.916L95.0529 181.9Z" fill="#DFFC8E"/>
<path d="M98.6519 177.575L78.3806 109.194L122.523 97.1177L144.118 164.814L98.6519 177.575Z" fill="#C0DEFF"/>
<path d="M96.4618 169.746L83.8797 103.039L127.893 96.0864L141.828 162.28L96.4618 169.746Z" fill="#FCFFFD"/>
<path d="M144.954 167.616L138.478 146.324L84.1117 137.513L95.9802 181.65L144.954 167.616Z" fill="#DFFC8E"/>
<path d="M67.5709 164.618C68.9843 164.474 71.4573 164.109 72.9132 163.824C74.9973 163.415 77.0774 162.769 79.3062 161.828C81.6287 160.847 83.9802 160.019 85.3994 158.853C86.5568 157.902 86.7853 157.544 87.4453 157.374C88.1053 157.204 87.9073 157.863 88.1053 158.259C88.3033 158.655 88.5012 159.183 88.8312 159.513C88.9789 159.661 89.4317 159.9 89.5572 160.041C90.0852 160.635 89.786 160.144 90.2831 160.833C91.4465 161.622 93.9071 160.767 95.8191 159.79C96.9067 159.235 98.0375 159.103 102.791 157.374C105.327 156.451 107.734 154.049 109.003 152.725C110.105 151.576 110.747 151.068 111.462 150.878C111.633 150.832 111.813 150.949 111.953 151.072C112.245 151.329 112.296 151.906 112.246 152.507C112.161 153.511 111.211 154.299 109.891 155.806C109.708 156.016 109.52 156.229 109.329 156.444C109.752 156.002 110.177 155.588 110.524 155.171C110.768 154.877 111.07 154.653 111.375 154.517C111.526 154.449 111.707 154.494 111.816 154.589C112.699 155.35 112.1 157.057 111.698 157.797C111.356 158.427 110.434 159.485 109.869 159.954C109.441 160.31 108.837 160.903 108.065 161.519C108.992 160.949 109.8 160.312 110.479 159.684C110.813 159.375 111.42 159.368 111.918 159.446C112.859 159.593 112.024 161.51 111.698 162.196C111.27 163.096 110.248 163.919 109.502 164.416C108.881 164.83 108.122 165.362 107.266 165.851C107.505 165.764 107.723 165.684 107.895 165.622C108.8 165.291 109.556 164.488 110.389 163.768C110.584 163.599 110.712 163.462 110.842 163.486C110.972 163.509 111.094 163.69 111.158 163.944C111.424 164.991 110.721 165.775 110.209 166.446C109.407 167.499 108.547 168.288 107.755 168.673C105.883 169.585 102.93 171.165 101.561 171.784C100.448 172.288 98.8975 172.116 94.5818 172.284C91.4164 172.406 90.286 172.723 87.4256 172.831C86.2376 172.875 85.4712 173.059 84.4567 173.107C83.5777 173.149 82.0611 173.401 81.0268 173.619C79.7071 173.899 77.7362 174.516 76.4286 175.249C75.6242 175.699 74.0263 176.332 72.3865 177.11C71.9439 177.32 71.5661 177.375 71.1501 177.355C69.7974 177.289 68.72 175.872 68.0956 175.387C67.1085 174.621 65.8241 173.417 65.3508 172.783C64.6262 171.814 64.6951 169.274 65.163 167.079C65.6903 165.87 66.2974 165.169 67.0572 164.763C67.2397 164.707 67.3967 164.652 67.5709 164.618Z" fill="#F5B493"/>
</svg>
