<svg width="178" height="328" viewBox="0 0 178 328" fill="none" xmlns="http://www.w3.org/2000/svg">
<path d="M8.62069 58.629C8.98126 59.3729 9.42648 60.1678 9.66496 60.5911C9.70043 60.6485 9.72148 60.6861 9.74353 60.7182C9.87579 60.8734 10.0293 61.0018 10.1488 61.1644C10.2226 61.3683 10.2815 61.701 10.4543 61.9929C10.6585 62.3376 10.8712 62.6936 11.1554 62.7129C11.2963 62.7224 11.4379 62.7157 11.5389 62.6597C11.6301 62.6091 11.7627 62.5463 11.7821 62.4223C11.8004 62.3052 11.7884 62.1435 11.3956 61.4716C11.0867 60.9432 10.5112 59.9699 10.0228 58.9711C9.53437 57.9724 9.15324 56.9747 8.91126 56.4009C8.60217 55.668 8.50002 55.4402 8.39747 55.3333C8.17003 55.0962 7.93686 54.906 7.70421 54.9213L7.70081 54.9215C7.59656 54.9283 7.46589 54.9369 7.45002 55.0257C7.43001 55.1376 7.48328 55.6469 7.79898 56.615C7.98241 57.1776 8.24979 57.8638 8.62069 58.629Z" fill="#BC977C"/>
<path d="M17.7181 62.8873C18.0117 63.4489 18.1554 63.5999 18.3069 63.7806C18.3064 63.9494 18.3675 64.46 18.3574 64.6022C18.3284 64.8613 18.2314 65.2612 18.0484 65.6256C17.9427 65.7336 17.809 65.8688 17.5674 65.8585C16.787 65.825 16.0023 65.6836 15.4848 65.0763C14.7983 64.2707 14.1916 63.3379 14.151 62.6672C14.0996 61.82 14.0977 61.3392 13.1162 59.7969C12.6711 59.0974 12.3496 58.6696 12.1867 58.3479C11.9029 57.7873 11.6252 57.0308 11.9644 56.7298C12.0778 56.6292 12.2921 56.5447 12.5306 56.6001C12.8673 56.6781 13.6287 57.0098 14.971 58.6008C15.4648 59.186 16.0682 59.9803 16.5765 60.7969C17.0848 61.6135 17.4796 62.4309 17.7181 62.8873Z" fill="#B88D6E"/>
<path d="M28.6414 80.4822C28.6414 80.47 28.7675 80.661 28.4265 79.9255C27.6211 78.1885 26.8739 76.9084 26.6665 76.6112C26.5292 76.4143 26.351 76.194 25.8962 75.3963C25.5361 74.7649 29.8427 77.7993 27.6524 75.3963C27.1712 74.8683 26.3301 73.9301 26.1315 72.9932C25.9329 72.0563 23.5702 68.6047 23.3581 67.6591C23.0537 66.3023 22.6189 65.7951 22.3273 65.5212C21.7323 64.9622 20.3941 64.2895 19.8979 64.1559C19.4945 64.0473 19.1095 64.017 18.4466 63.8944C18.2095 63.8505 17.5356 63.7374 16.1727 63.3616C15.3811 63.1433 14.4297 62.725 13.5745 62.3321C12.7194 61.9392 12.0004 61.5475 11.4439 61.2001C10.8874 60.8526 10.5152 60.5612 10.1021 60.1677C9.68889 59.7742 9.24603 59.2873 8.54025 58.3324C7.83448 57.3775 6.87922 55.9693 6.18732 55.0353C5.15341 53.6397 5.45611 53.9295 5.08384 53.3246C4.82456 52.9034 4.33785 53.0318 4.28061 53.0552C3.85431 53.2297 4.48635 54.7613 5.34596 56.3262C5.78754 57.13 6.60943 58.5 7.25505 59.4703C7.68681 60.1192 8.03978 60.6004 8.33125 60.9645C7.63452 60.1462 6.65231 58.9453 5.86835 57.8856C4.9272 56.6134 4.31819 55.5815 3.92606 54.9267C3.38385 54.0213 3.15483 53.7195 3.02477 53.6199C2.74688 53.407 2.43309 53.4168 2.25335 53.4436C2.16764 53.4563 2.10639 53.5239 2.07039 53.6602C1.89532 54.3234 2.25291 54.9251 3.1419 56.7149C4.05416 58.5515 4.41437 59.0754 4.63942 59.4198C5.2904 60.416 6.53363 61.8042 6.68956 61.9897C6.75761 62.0706 6.37828 61.923 5.9021 61.5526C4.78469 60.6835 3.96218 59.8617 3.62959 59.403C3.1594 58.7545 2.60986 57.6285 2.03126 56.478C1.51855 55.4585 1.00117 55.0989 0.645285 54.9489C0.542442 54.9055 0.393764 54.9318 0.287935 54.9721C0.182106 55.0125 0.115829 55.094 0.0750694 55.1875C-0.138353 55.6766 0.0999107 56.4876 0.898935 58.4181C1.19592 59.1357 1.76853 59.9641 2.55482 61.0448C3.21021 61.9456 3.89016 62.5278 4.53183 63.1416C5.38654 63.9593 6.05153 64.3849 6.32524 64.6883C6.87718 65.3003 7.54577 65.8505 8.02756 66.1824C8.36507 66.4149 9.46731 66.7693 11.0081 67.2541C11.6069 67.4426 11.8477 67.4691 13.0028 67.6487C14.1579 67.8284 16.2235 68.1489 17.3302 68.327C18.7213 68.5509 19.1035 68.8077 19.4419 69.0904C19.5398 69.1723 19.622 69.3046 19.9904 70.2088C20.3588 71.1131 20.9996 72.7972 21.3322 73.7141C21.6971 74.7201 21.7223 74.9399 22.1819 75.9412C22.592 76.8349 23.3694 78.5075 23.8563 79.4915C24.72 81.237 25.5608 81.6649 26.1315 81.9507C26.3325 82.0514 26.5915 82.0414 26.8611 82.0273C27.3006 82.0044 27.6926 81.5772 28.0667 81.3439C28.4362 81.0578 28.6311 80.9127 28.7133 80.7832C28.7359 80.7134 28.7197 80.6356 28.6414 80.4822Z" fill="#BC977C"/>
<path d="M65.4906 267.141L60.0851 274.358L60.0851 295.809L71.934 295.116L76.156 272.126L65.4906 267.141Z" fill="#BC977C"/>
<path d="M59.5257 292.646L73.3926 293.809C71.7174 296.377 71.5313 309.723 70.6471 315.633V322.706L63.1553 324.195V321.449L50.2656 327.685C48.7145 327.468 45.1563 326.95 43.3322 326.615C41.5081 326.28 41.8897 323.869 42.3085 322.706C46.5585 319.821 55.6355 313.353 57.9436 310.561C60.2516 307.769 59.5878 297.454 59.5257 292.646Z" fill="#ED8648"/>
<path d="M127.093 269.519L126.208 275.475L131.699 294.6L143.146 289.714L138.865 269.519H127.093Z" fill="#BC977C"/>
<path d="M130.397 290.413L143.287 286.83C143.287 292.879 154.268 311.027 156.688 313.307C158.624 315.131 171.579 319.449 174.324 323.916L166.646 327.174C161.621 326.429 160.457 325.475 156.688 323.916L156.65 323.901C154.419 322.978 146.766 319.814 144.915 318.519V323.916H133.654L130.397 290.413Z" fill="#ED8648"/>
<path d="M173.432 162.096C173.315 161.543 173.309 161.466 173.309 161.471C172.819 160.547 171.844 159.879 171.241 158.983C170.637 158.087 169.931 157.196 169.564 156.708C169.171 156.139 168.942 155.683 168.266 154.92C167.86 154.46 167.296 153.89 166.542 153.334C165.788 152.778 164.88 152.237 164.355 151.964C163.722 151.634 163.406 151.568 163.08 151.589C162.871 151.602 162.683 151.622 162.61 151.753C162.548 151.864 163.365 152.077 163.686 152.814C163.884 153.269 163.836 154.725 164.355 155.792C164.712 156.525 164.732 157.434 165.064 158.213C165.396 158.993 165.379 159.681 165.517 160.237C165.816 161.439 166.006 162.331 166.065 162.962C166.153 163.893 166.231 164.779 166.398 165.293C166.486 165.565 166.569 165.709 166.703 165.757C166.768 165.781 166.842 165.787 166.903 165.764C167.02 165.72 167.391 165.704 167.441 165.192C167.496 164.635 167.424 164.537 167.441 162.758C167.452 161.639 167.401 160.105 167.311 158.972C167.221 157.84 167.121 157.125 166.963 156.57C166.689 155.606 166.559 155.108 166.592 155.144C166.645 155.202 166.761 155.369 166.884 155.622C167.161 156.191 167.537 157.164 167.713 158.213C167.8 158.735 167.969 159.156 168.266 160.324C168.485 161.187 168.795 162.579 168.974 163.842C169.154 165.105 169.185 166.206 169.241 166.842C169.312 167.649 169.349 168.197 169.674 168.333C169.738 168.36 169.809 168.365 169.867 168.342C169.979 168.3 170.315 167.886 170.388 167.767C170.454 167.66 170.481 167.312 170.662 166.517C170.76 166.084 170.808 165.722 170.797 164.809C170.786 163.896 170.752 162.473 170.641 161.528C170.476 160.12 170.379 159.591 170.388 159.448C170.394 159.371 170.406 159.284 170.481 159.355C170.556 159.426 170.688 159.647 170.854 159.978C171.019 160.309 171.212 160.737 171.702 162.464C172.192 164.192 172.933 167.136 173.373 168.666C173.852 170.334 173.936 170.535 174.033 170.607C174.082 170.645 174.146 170.667 174.208 170.669C174.271 170.67 174.333 170.656 174.392 170.621C174.512 170.551 174.615 170.457 174.653 170.267C174.718 169.946 174.813 169.201 174.607 167.767C174.475 166.853 174.226 165.589 173.991 164.512C173.756 163.434 173.533 162.571 173.432 162.096Z" fill="#B88D6E"/>
<path d="M163.946 146.101C163.632 145.704 163.145 145.249 161.984 143.793C161.842 143.685 161.751 143.618 161.659 143.55C161.44 143.387 161.049 143.051 159.868 141.868C157.734 139.726 156.221 138.068 155.75 137.834C154.96 137.444 152.637 136.269 152.154 138.024C152.044 138.423 152.479 139.196 153.332 140.822C154.185 142.449 155.419 144.856 156.434 146.825C157.449 148.793 158.313 150.238 158.637 151.098C159.349 152.994 159.737 154.882 159.853 155.646C159.91 156.02 159.948 158.445 159.966 161.891C159.974 163.526 159.983 164.057 160.132 164.339C160.289 164.638 160.468 164.936 160.735 165.023C160.87 165.068 161.048 165.104 161.158 165.018C161.577 164.688 162.329 163.486 162.47 161.617C162.692 158.68 162.906 156.266 163.211 155.492C163.482 154.805 163.787 154.045 164.381 153.877C164.513 153.84 164.666 153.831 164.79 153.89C165.285 154.123 165.749 154.524 167.115 155.761C167.813 156.394 168.738 157.244 170.196 158.92C171.939 160.924 173.123 162.269 173.59 162.9C174.588 164.25 175.348 165.455 175.752 165.946C176.303 166.617 176.848 167.414 177.536 167.308C177.702 167.282 177.848 167.206 177.921 166.998C177.993 166.79 178.029 166.455 177.973 166.225C177.797 165.503 177.504 164.693 176.872 163.569C176 162.017 175.082 160.544 174.299 159.245C173.227 157.465 172.205 155.838 170.591 153.986C169.455 152.683 167.643 150.742 166.622 149.471C165.231 147.74 164.515 146.819 163.946 146.101Z" fill="#BC977C"/>
<path d="M107.314 283.525C125.741 288.03 149.892 268.154 159.664 257.653C140.12 233.316 112.619 138.435 110.851 134.014C109.083 129.594 79.1618 125.545 71.4838 137.086C65.3415 146.318 48.0156 230.757 43.3778 271.054C48.4965 273.707 60.6561 276.638 69.3898 276.638C83.5359 276.638 97.775 283.525 96.0068 282.269C91.5396 270.915 93.4319 217.603 94.9365 192.367C101.844 251.011 103.85 262.932 107.143 282.505L107.314 283.525Z" fill="#FFB2BD"/>
<path d="M160.456 146.114C162.318 144.392 166.822 146.132 161.945 130.758C155.85 111.54 143.006 105.723 139.237 99.9064C135.468 94.0898 125.556 76.6399 125.556 73.7083C125.556 70.7767 102.569 54.7693 71.7177 61.7493C69.9494 63.5176 53.5096 84.2955 50.6245 90.3913C47.7395 96.4871 46.9621 75.7557 35.3288 73.7083C23.6955 71.6609 5.08226 67.5194 3.314 82.41C1.54575 97.3006 42.3513 123.065 48.4471 118.97C52.497 116.25 60.1637 108.709 65.0175 102.766C61.1597 110.978 56.4664 124.002 58.5953 130.758C62.0853 141.833 121.229 145.323 121.787 139.506C122.316 134 121.844 119.814 121.792 112.631C121.904 120.419 122.894 150.638 130.21 153.466C139.237 156.956 157.461 156.863 160.456 146.114Z" fill="#88AEFF"/>
<path d="M84.7589 48.434C100.896 46.5035 103.965 54.7229 111.143 56.4377C138.505 59.3228 134.596 33.6832 133.293 24.2833C132.06 15.3864 119.984 2.3662 101.185 0.179141C82.3856 -2.00791 72.6137 16.4659 70.4266 20.9794C67.4236 27.1767 65.308 50.7608 84.7589 48.434Z" fill="#011529"/>
<path d="M101.51 45.1768H94.53C96.4844 60.6723 86.2936 64.0227 85.7817 64.9533C85.1768 70.1185 95.2745 83.0082 95.8794 82.3567C100.347 81.2399 111.096 66.4424 110.584 65.9305C104.293 63.3247 101.913 51.0089 101.51 45.1768Z" fill="#B88D6E"/>
<path d="M111.702 35.0786C115.192 28.9362 106.99 26.6628 105.268 18.9849C102.011 18.9849 100.777 20.4879 98.6604 21.8699C97.4383 22.6677 95.1704 23.2194 93.1229 23.9639C90.1296 25.0524 90.157 28.2848 89.5055 27.8194C88.8541 27.3541 88.2491 26.7957 87.8769 28.2848C87.5046 29.7738 89.5055 33.0777 89.5055 33.4499C88.8541 39.4062 93.1351 48.294 94.6707 48.294C101.409 47.81 106.583 43.2994 108.584 40.7556C118.216 36.8934 114.354 34.4737 111.702 35.0786Z" fill="#BC977C"/>
<path d="M96.0078 30.1167C96.008 29.1566 94.9969 29.2133 94.7181 29.4957C93.7648 30.7382 94.4376 31.6416 94.9969 31.6416C95.6509 31.6416 96.0077 30.7405 96.0078 30.1167Z" fill="#011429"/>
<path d="M105.684 32.5794C105.873 31.6342 104.859 31.49 104.527 31.7128C103.338 32.7475 103.828 33.7699 104.382 33.8805C105.031 34.0099 105.562 33.1935 105.684 32.5794Z" fill="#011429"/>
<path d="M106.363 28.2603C107.262 28.4774 108.866 29.6842 108.084 32.774" stroke="#011429" stroke-linecap="round"/>
<path d="M109.271 39.5975C108.449 39.551 107.224 39.8768 107.037 40.9936C106.805 42.3896 107.323 42.9091 107.968 43.1806C108.852 43.5528 109.55 43.3202 110.248 42.8083C110.938 42.3024 110.993 40.9469 110.527 40.1094" stroke="#FFDD67" stroke-linecap="round"/>
<path d="M88.6794 32.0174C87.8573 31.9709 86.632 32.2967 86.4459 33.4135C86.2132 34.8095 86.7318 35.329 87.3765 35.6005C88.2607 35.9728 88.5168 35.9685 89.2148 35.4566" stroke="#FFDD67" stroke-linecap="round"/>
<path d="M92.8226 27.1439C93.7071 26.3007 95.0563 25.4221 97.2349 26.2004" stroke="#011429" stroke-linecap="round"/>
<path d="M100.034 38.9463C98.2195 39.1027 97.8471 38.8235 96.7766 38.172" stroke="#69462C" stroke-linecap="round"/>
<path d="M101.002 41.9874C99.4756 43.1043 97.1954 43.2904 94.916 41.8013" stroke="#69462C" stroke-linecap="round"/>
</svg>
