<svg width="294" height="292" viewBox="0 0 294 292" fill="none" xmlns="http://www.w3.org/2000/svg">
<path d="M53.1161 32.1778C59.9418 18.3109 96.2209 5.5995 113.507 0.977184C121.106 -1.22063 181.364 0.977184 210.426 0.977184C239.489 0.977184 274.017 40.8447 285.882 67.7785C297.747 94.7124 295.614 160.447 285.882 194.848C276.15 229.249 256.819 260.583 228.824 277.916C200.828 295.25 118.985 296.314 95.2556 281.247C71.5257 266.18 42.451 249.782 22.9872 218.582C7.4162 193.621 16.4993 123.469 22.9872 91.5124C30.1862 77.5121 46.2905 46.0448 53.1161 32.1778Z" fill="#C0DEFF"/>
<path d="M110.334 266.214L161.354 272.603C186.058 278.854 205.734 264.606 215.345 263.506C224.956 262.405 232.475 259.659 240.638 255.076C252.228 248.569 251.128 237.899 261.745 230.415C272.363 222.931 255.356 211.089 257.249 199.089C259.142 187.088 192.328 175.241 172.308 169.205C152.288 163.169 117.304 168.903 96.9103 168.565C76.516 168.227 63.1999 192.818 62.2333 198.946C61.2668 205.074 61.8348 211.444 54.2178 216.522C46.6008 221.601 49.151 235.349 50.5529 239.757C51.6744 243.284 107.484 263.235 110.334 266.214Z" fill="#AACEF5"/>
<path d="M34.885 200.347C27.846 211.836 34.7856 212.591 37.7186 216.366C37.7186 222.58 89.7659 242.88 111.688 242.88C133.611 242.88 163.586 246.333 187 242.88C210.414 239.428 263.986 233.365 275.734 226.585C310.605 206.459 282.292 189.822 271.348 185.645C247.091 176.386 196.02 166.208 183.577 166.208C100.167 166.208 125.668 165.929 91.5554 170.932C44.4583 177.84 43.6838 185.985 34.885 200.347Z" fill="#603E2D"/>
<path d="M76.4462 198.73C76.9366 202.168 81.9126 203.415 86.1672 204.622C89.1088 208.285 87.7774 210.399 86.1672 216.072C84.5571 221.745 74.1625 225.193 54.4116 227.707C34.6608 230.222 26.4116 202.066 19.6165 202.128C12.8214 202.189 4.9283 190.312 2.11452 183.305C-0.699252 176.297 15.7933 166.839 18.9474 166.691C22.1016 166.544 30.0387 171.309 32.8746 174.231C35.7105 177.152 48.6227 179.696 60.0531 182.45C71.4835 185.205 79.0176 189.767 77.7471 191.46C76.4766 193.153 75.8334 194.433 76.4462 198.73Z" fill="#FFB2BD"/>
<path d="M177.379 98.4601L213.712 96.7858C222.795 98.2926 230.024 94.7766 233.361 93.1022C236.698 91.4279 237.254 84.8981 240.591 83.7261C243.927 82.554 243.927 69.4943 247.264 63.6342C250.601 57.7741 243.927 51.914 243.927 44.0447C243.927 36.1754 219.644 35.3382 212.229 33.4965C204.814 31.6547 192.765 38.8543 185.535 40.696C178.305 42.5378 174.969 59.6159 174.969 63.6342C174.969 67.6526 175.525 71.671 173.115 75.6893C170.705 79.7077 172.373 88.2467 173.115 90.9256C173.708 93.0688 176.205 96.8416 177.379 98.4601Z" fill="#AACEF5"/>
<path d="M197.305 80.7957L194.91 70.3178H235.475L233.978 80.7957H230.984L229.637 96.3629H203.592L201.197 80.7957H197.305Z" fill="#88AEFF"/>
<path d="M198.673 61.5045L204.061 70.4856H206.456L200.469 60.9058C200.968 61.1054 202.385 61.0256 204.061 59.1096C206.157 56.7146 207.654 54.3197 207.055 54.3197C206.456 54.3197 201.966 51.9247 196.876 54.3197C192.805 56.2356 191.188 59.9079 190.889 61.5045H189.392C188.494 60.806 186.099 59.3491 183.704 59.1096C180.71 58.8102 178.615 61.5045 175.022 63.8995C171.43 66.2944 172.328 70.4856 171.43 72.5812C170.532 74.6768 166.341 77.9698 167.838 86.6515C169.334 95.3332 173.526 92.0402 178.615 84.8553C179.812 80.6642 175.322 73.7787 175.022 70.4856C174.783 67.8512 180.71 63.4005 183.704 61.5045L189.392 63.8995L198.673 61.5045Z" fill="#C2E46D"/>
<path d="M230.535 70.4683H229.487C230.036 69.3207 231.134 66.9358 231.134 66.5765C231.134 66.1275 233.678 62.535 233.678 61.7866C233.678 61.1879 233.479 59.1422 233.379 58.1942C234.078 57.1464 235.744 54.7814 236.822 53.7037C238.169 52.3565 243.258 52.0571 244.007 52.0571C244.755 52.0571 245.653 51.4584 247 51.4584H252.389C254.185 51.4584 254.335 56.2483 254.335 58.1942C254.335 60.1401 254.185 61.7866 252.988 61.9363C252.03 62.056 250.094 61.1879 249.246 60.7388L246.252 56.847C246.052 56.0487 245.533 54.3024 245.055 53.7037C244.456 52.9552 241.312 53.7037 240.414 53.7037C239.516 53.7037 234.876 56.9967 234.876 58.1942V62.535C235.674 61.7866 237.9 60.17 240.414 59.691C243.558 59.0923 243.258 61.6369 244.007 63.4331C244.605 64.8701 243.757 66.9258 243.258 67.774H236.073C234.756 67.774 233.728 66.0776 233.379 65.2294L230.535 70.4683Z" fill="#DDFC8F"/>
<path d="M212.295 70.3182H213.62C212.926 68.8724 211.537 65.8677 211.537 65.4151C211.537 64.8494 208.318 60.3235 208.318 59.3806C208.318 58.6263 208.571 56.049 208.697 54.8547C207.813 53.5347 205.705 50.5551 204.341 49.1973C202.637 47.5001 196.199 47.123 195.252 47.123C194.305 47.123 191.824 45.7699 190.12 45.7699H185.18C182.908 45.7699 180.24 49.6051 180.24 52.0567C180.24 54.5082 177.229 57.4064 178.744 57.595C179.956 57.7458 183.575 55.4204 184.648 54.8547L186.827 52.0567C189.521 49.1973 193.321 49.9517 193.927 49.1973C194.684 48.2544 198.661 49.1973 199.797 49.1973C200.933 49.1973 206.803 53.3461 206.803 54.8547V60.3235C205.793 59.3806 202.978 57.3439 199.797 56.7405C195.82 55.9862 196.199 59.192 195.252 61.455C194.495 63.2653 195.568 65.8551 196.199 66.9237H205.288C206.955 66.9237 208.255 64.7865 208.697 63.7179L212.295 70.3182Z" fill="#DDFC8F"/>
<path d="M215.314 67.6544C214.954 68.7321 215.164 69.7998 215.314 70.199H216.661C216.611 69.6501 216.631 68.2231 217.11 66.9059C217.709 65.2594 220.702 64.0619 221.6 64.0619C222.498 64.0619 225.342 62.4154 226.091 61.667C226.839 60.9185 227.588 60.0204 228.037 60.0204C228.486 60.0204 229.683 59.272 230.731 59.272C231.779 59.272 231.629 59.5714 232.677 60.0204C233.725 60.4695 233.725 60.6192 234.324 62.4154C234.922 64.2116 235.222 64.0619 237.467 64.511C239.712 64.96 241.508 64.8103 241.508 64.0619C241.508 63.3135 240.76 59.8707 239.113 58.0745C237.467 56.2783 233.276 58.0745 230.731 58.0745C228.186 58.0745 227.588 59.5714 228.037 58.0745C228.486 56.5777 229.384 55.6796 229.683 54.0331C229.983 52.3866 230.731 52.2368 231.629 51.1891C232.527 50.1413 234.324 48.7941 235.222 47.447C236.12 46.0998 238.365 44.6029 239.113 44.6029H240.76C241.658 44.6029 244.801 44.1539 246.747 44.1539C248.693 44.1539 248.544 38.3162 247.795 38.3162C247.047 38.3162 243.005 37.7174 241.508 38.7652C240.012 39.813 238.365 44.1539 238.365 43.1061C238.365 42.0583 236.269 39.9627 236.12 38.7652C235.97 37.5678 234.024 36.969 232.078 36.2206C230.522 35.6219 227.438 35.9711 226.091 36.2206C226.59 37.3183 227.588 39.7532 227.588 40.7112C227.588 41.6691 229.683 42.7069 230.731 43.1061C233.326 43.4554 238.305 44.1539 237.467 44.1539C236.419 44.1539 232.827 48.0457 232.078 48.7941C231.33 49.5425 228.785 52.8356 228.486 51.1891C228.186 49.5425 226.69 48.7941 225.342 47.447C223.995 46.0998 217.559 44.1539 217.858 46.2495C218.098 47.926 219.355 49.4428 219.954 49.9916L224.295 54.0331C225.392 54.083 227.588 54.3624 227.588 55.0809C227.588 55.979 226.091 59.8708 225.342 60.6192C224.594 61.3676 220.104 63.0141 219.355 63.0141C218.607 63.0141 215.763 66.3072 215.314 67.6544Z" fill="#C2E46D"/>
<path d="M221.856 65.9775V70.1686H219.61V68.6718V63.2832C219.61 62.0857 218.712 59.9901 217.664 58.1939C216.617 56.3977 216.467 56.0983 214.97 54.9008C213.473 53.7034 213.024 51.3084 211.677 50.1109C210.33 48.9134 210.929 47.1172 209.731 46.2192C208.534 45.3211 206.438 47.1172 205.241 48.6141C204.043 50.1109 205.091 49.5122 204.342 50.1109C203.594 50.7096 199.104 54.4518 198.355 53.2543C197.607 52.0568 200.301 48.6141 201.349 46.2192C202.397 43.8242 205.54 44.5726 206.438 44.5726C207.336 44.5726 210.929 46.3688 210.929 44.5726C210.929 42.7764 209.731 40.2318 209.731 38.8846C209.731 37.5375 209.132 37.3878 208.384 35.7412C207.636 34.0947 209.132 33.3463 210.929 31.4004C212.725 29.4545 217.664 31.4004 218.712 31.4004C219.76 31.4004 218.712 33.7953 217.664 35.7412C216.617 37.6871 213.024 36.789 211.677 37.3878C210.599 37.8667 210.729 39.4833 210.929 40.2318C211.627 42.5269 213.024 47.4166 213.024 48.6141C213.024 50.1109 215.569 50.7097 216.467 48.6141C217.365 46.5185 220.209 47.4166 223.352 47.1172C226.496 46.8179 227.993 49.2128 227.095 50.1109C226.196 51.009 224.101 52.5059 221.856 52.5059C219.61 52.5059 215.569 50.56 215.569 52.5059C215.569 54.4518 217.964 55.4996 218.712 56.0983C219.461 56.697 221.856 64.4806 221.856 65.9775Z" fill="#DDFC8F"/>
<path d="M276.488 94.3012L165.572 96.3967L163.775 103.881H279.332L276.488 94.3012Z" fill="#603E2D"/>
<path d="M207.334 194.478L214.624 194.652C218.199 195.174 220.986 193.714 222.326 193.427C223.666 193.14 223.963 191.75 225.297 191.571C226.631 191.392 226.786 188.586 228.176 187.4C229.565 186.214 226.995 184.809 227.088 183.118C227.181 181.427 217.584 180.717 214.672 180.159C211.761 179.602 206.908 180.885 204.026 181.123C201.144 181.361 199.622 184.957 199.574 185.821C199.526 186.684 199.699 187.559 198.698 188.37C197.697 189.181 198.255 191.052 198.517 191.644C198.726 192.117 206.888 194.105 207.334 194.478Z" fill="#4B2918"/>
<path d="M180.295 214.317L187.443 212.889C191.009 212.381 193.531 211.162 194.801 210.759C196.071 210.356 196.171 209.682 197.45 209.328C198.729 208.973 198.494 207.704 199.689 206.894C200.884 206.085 198.178 205.996 198.037 205.231C197.896 204.466 188.419 206.134 185.497 206.489C182.575 206.844 178.009 208.411 175.226 209.11C172.442 209.81 171.449 211.71 171.521 212.101C171.593 212.491 171.882 212.842 171.015 213.406C170.148 213.97 170.952 214.679 171.289 214.886C171.558 215.052 179.808 214.244 180.295 214.317Z" fill="#4B2918"/>
<path d="M195.369 184.527C192.813 181.97 190.671 167.761 189.83 162.322C189.467 160.135 197.736 155.762 200.596 155.257C203.455 154.752 208.502 153.407 214.221 153.407C219.941 153.407 226.501 159.631 226.501 160.976V173.088C226.501 181.162 222.968 185.199 220.613 187.386C218.258 189.573 211.35 189.909 207.481 190.246C203.612 190.582 198.566 187.723 195.369 184.527Z" fill="#ED8648"/>
<path d="M199.585 159.63C197.162 159.9 194.314 161.985 193.192 162.995C193.192 166.359 201.94 166.527 204.295 166.527C206.65 166.527 214.388 166.023 219.098 164.509C223.808 162.995 224.817 162.995 224.817 161.817C224.817 160.64 216.07 156.771 213.042 156.434C210.014 156.098 202.612 159.294 199.585 159.63Z" fill="#603E2D"/>
<path d="M232.141 160.135H225.872V163.021C226.917 162.964 229.23 162.953 230.126 163.361C231.245 163.87 230.798 165.398 231.469 167.265C232.141 169.132 231.469 171 231.469 172.018C231.469 173.037 230.126 175.244 229.007 175.583C228.111 175.855 225.499 175.696 224.305 175.583C223.932 176.602 223.41 178.639 224.305 178.639H230.798C233.26 178.639 233.484 175.244 235.051 173.037C236.618 170.83 235.723 166.416 235.051 163.87C234.38 161.323 233.26 160.135 232.141 160.135Z" fill="#ED8648"/>
<path d="M191.402 202.084L189.801 204.153L199.608 201.648L199.441 201.348L197.573 200.815L191.402 202.084Z" fill="#88AEFF"/>
<path d="M203.761 201.901L200.806 202.628L201.373 204.285L204.266 203.793L203.761 201.901Z" fill="#88AEFF"/>
<path d="M169.734 213.762L168.317 209.62L201.181 201.22L201.542 202.571L201.939 204.057L202.191 205.003L169.734 213.762Z" fill="#C0DEFF"/>
<path d="M169.734 213.762L168.317 209.62L163.727 213.682L169.734 213.762Z" fill="#88AEFF"/>
<path d="M110.212 210.913L84.6584 123.216L139.808 107.876L167.014 194.699L110.212 210.913Z" fill="#DFFC8E"/>
<path d="M114.385 205.899L90.8801 126.611L142.063 112.608L167.102 191.103L114.385 205.899Z" fill="#C0DEFF"/>
<path d="M111.847 196.821L97.2583 119.474L148.292 111.413L164.45 188.164L111.847 196.821Z" fill="#FCFFFD"/>
<path d="M168.073 194.351L160.563 169.663L97.5254 159.446L111.287 210.623L168.073 194.351Z" fill="#DFFC8E"/>
<path d="M78.3484 190.875C79.9873 190.708 82.8547 190.286 84.5428 189.955C86.9593 189.481 89.3713 188.732 91.9556 187.64C94.6485 186.503 97.375 185.543 99.0206 184.191C100.363 183.089 100.628 182.673 101.393 182.476C102.158 182.279 101.928 183.043 102.158 183.503C102.388 183.962 102.617 184.574 103 184.957C103.171 185.128 103.696 185.405 103.842 185.569C104.454 186.257 104.107 185.688 104.683 186.487C106.032 187.402 108.885 186.41 111.102 185.278C112.363 184.634 113.674 184.481 119.186 182.476C122.126 181.406 124.917 178.621 126.389 177.086C127.666 175.753 128.411 175.164 129.241 174.944C129.438 174.891 129.647 175.026 129.81 175.169C130.149 175.467 130.208 176.136 130.149 176.833C130.051 177.997 128.949 178.911 127.419 180.658C127.207 180.901 126.989 181.149 126.767 181.398C127.258 180.886 127.75 180.405 128.153 179.921C128.436 179.581 128.786 179.321 129.139 179.163C129.314 179.085 129.524 179.137 129.651 179.246C130.674 180.129 129.98 182.109 129.514 182.967C129.117 183.697 128.049 184.924 127.394 185.468C126.896 185.881 126.196 186.568 125.301 187.282C126.376 186.621 127.313 185.883 128.101 185.154C128.488 184.796 129.191 184.789 129.768 184.879C130.86 185.049 129.892 187.272 129.514 188.068C129.018 189.111 127.833 190.065 126.967 190.642C126.247 191.121 125.367 191.738 124.375 192.305C124.653 192.204 124.905 192.112 125.105 192.039C126.153 191.656 127.03 190.725 127.996 189.89C128.222 189.694 128.37 189.535 128.521 189.563C128.672 189.59 128.813 189.8 128.888 190.094C129.196 191.308 128.38 192.217 127.788 192.995C126.858 194.216 125.86 195.13 124.942 195.578C122.772 196.635 119.347 198.466 117.76 199.185C116.47 199.769 114.672 199.57 109.668 199.764C105.997 199.906 104.687 200.274 101.37 200.398C99.9925 200.45 99.1039 200.663 97.9276 200.719C96.9083 200.767 95.1498 201.059 93.9506 201.313C92.4203 201.636 90.1351 202.353 88.619 203.202C87.6862 203.724 85.8335 204.457 83.9321 205.36C83.419 205.603 82.9808 205.668 82.4985 205.644C80.9301 205.568 79.6809 203.925 78.9568 203.363C77.8122 202.474 76.323 201.078 75.7742 200.343C74.934 199.219 75.014 196.274 75.5565 193.729C76.1679 192.328 76.8718 191.514 77.7528 191.043C77.9644 190.979 78.1464 190.915 78.3484 190.875Z" fill="#BC977C"/>
</svg>
