<svg width="254" height="223" viewBox="0 0 254 223" fill="none" xmlns="http://www.w3.org/2000/svg">
<path d="M22.2072 48.4611C30.3084 23.4882 70.3718 7.68184 88.4087 0.343799C198.567 -3.79485 217.252 30.5856 238.826 41.5926C260.4 52.5997 257.67 132.027 238.826 174.69C219.982 217.353 167.72 219.202 105.288 222.417C42.8564 225.631 17.6283 176.979 4.2877 137.97C-9.05285 98.9614 12.0807 79.6771 22.2072 48.4611Z" fill="#86ADFF"/>
<path d="M93.7363 150.224C97.5051 146.455 139.071 144.28 159.382 143.664C172.987 143.138 212.348 143.664 212.348 160.087C212.348 176.509 195.001 178.358 166.383 191.963C137.765 205.568 104.523 199.007 88.585 199.448C72.6468 199.888 64.1934 178.843 64.1934 171.798C64.1934 164.754 89.0253 154.935 93.7363 150.224Z" fill="#739BEF"/>
<path d="M84.8827 153.847C82.3467 153.847 83.826 171.34 84.8827 180.087L103.154 178.37C100.733 139.89 88.0527 153.847 84.8827 153.847Z" fill="#EE9CA7"/>
<path d="M151.929 135.972C149.393 135.972 150.872 153.466 151.929 162.213L170.2 160.496C167.779 122.015 155.099 135.972 151.929 135.972Z" fill="#EE9CA7"/>
<path d="M190.947 92.9994C194.646 91.6786 202.042 88.262 202.042 85.1624C202.042 81.2879 194.866 77.3254 197.552 85.1624C200.237 92.9994 208.709 86.8965 209.879 85.1624C211.068 83.4013 213.798 80.3633 209.879 77.3694" stroke="#FFCED4" stroke-width="8"/>
<path d="M93.4242 85.4266C157.283 51.1903 183.286 74.4197 191.431 88.993C201.205 102.378 195.482 139.89 176.417 150.456C157.353 161.023 99.9302 168.488 97.1225 168.948C77.9303 172.098 22.5428 123.428 93.4242 85.4266Z" fill="#FEB3BD"/>
<path d="M112.212 157.408C109.363 157.408 111.025 177.048 112.212 186.868L132.741 184.94C130.02 141.74 115.774 157.408 112.212 157.408Z" fill="#FFCED4"/>
<path d="M171.738 136.275C168.889 136.275 170.551 155.914 171.738 165.734L192.267 163.806C189.547 120.606 175.3 136.275 171.738 136.275Z" fill="#FFCED4"/>
<path d="M65.5981 119.152L44.7727 124.304C37.5873 139.168 46.0642 147.756 51.2008 150.192C57.8051 148.915 71.0752 146.045 71.3217 144.777C74.3861 132.766 68.7828 122.689 65.5981 119.152Z" fill="#FFCED4"/>
<path d="M145.755 85.1803L144.368 83.2491L108.662 94.7424L109.791 96.3159L145.755 85.1803Z" fill="#EE9CA7" stroke="#EE9CA7" stroke-width="2"/>
<path d="M83.5215 122.522C85.6642 117.532 92.3271 109.93 101.837 119.44" stroke="#EE9CA7" stroke-width="2"/>
<path d="M44.4426 124.239C47.7738 127.674 51.2736 150.216 51.2736 150.216C51.2736 150.216 35.8827 144.278 44.4426 124.239Z" fill="#FEB3BD"/>
<path d="M72.962 42.4437C75.0369 41.399 79.586 41.7192 81.9365 42.4437C86.7442 43.3687 92.6309 46.4634 93.272 52.9845C93.913 59.5055 89.9031 64.0923 87.642 65.992C84.549 68.5906 76.789 67.8175 72.962 65.992C69.4915 64.3365 64.9864 60.7058 64.9863 55.7614C64.9862 47.3236 67.6317 45.1277 72.962 42.4437Z" fill="#FFDD67"/>
<path d="M75.3315 57.8448L73.5264 52.8696L79.0299 50.4041L81.0992 55.5554" stroke="#E7C346" stroke-width="2"/>
<path d="M83.0607 51.5055L84.4804 56.6041L78.8046 58.6419L77.1349 53.3476" stroke="#E7C346" stroke-width="2"/>
<path d="M68.5871 49.655C68.9765 48.0668 73.2922 45.8871 75.4013 44.9958C80.3768 42.3218 82.8645 44.9958 88.3808 47.6698C93.8971 50.3438 90.206 57.1503 90.0438 60.1079C89.8815 63.0654 84.8926 65.0912 79.7413 66.1041C74.5901 67.1169 72.0753 62.7818 68.5871 60.1079C65.0989 57.4339 68.1004 51.6402 68.5871 49.655Z" stroke="#E7C346" stroke-width="2"/>
<path d="M141.377 87.8721C139.823 82.7703 134.715 80.2468 130.455 79.4271C128.105 78.7026 123.555 78.3824 121.481 79.4271C116.15 82.1111 113.505 84.307 113.505 92.7448C113.505 93.9287 113.763 95.0372 114.204 96.0614L141.377 87.8721Z" fill="#FFDD67"/>
<path d="M122.794 93.5081L121.605 89.8538L127.109 87.3882L128.87 91.7029" stroke="#E7C346" stroke-width="2"/>
<path d="M131.139 88.4891L131.82 90.8221M125.965 92.5392L125.213 90.3311" stroke="#E7C346" stroke-width="2"/>
<path d="M115.464 95.621C114.061 92.6851 116.255 88.3106 116.665 86.6384C117.055 85.0502 121.37 82.8705 123.479 81.9792C128.455 79.3052 130.943 81.9792 136.459 84.6532C138.312 85.5514 139.126 86.916 139.384 88.4444" stroke="#E7C346" stroke-width="2"/>
</svg>
