<svg width="81" height="76" viewBox="0 0 81 76" fill="none" xmlns="http://www.w3.org/2000/svg">
<g clip-path="url(#clip0_1674_5067)">
<path d="M38.3178 53.1338L32.7543 54.7131C32.3183 54.8361 31.8549 54.6905 31.5659 54.339C29.787 52.1847 24.3581 44.2182 33.0085 35.747C33.0085 35.747 40.1814 28.7872 49.5144 35.4331C49.5144 35.4331 55.2697 39.7139 53.3139 49.4556C51.3581 59.1972 41.9703 62.0143 37.1069 63.591C32.2436 65.1678 8.774 68.04 2.46063 59.029C2.46063 59.029 -1.33886 54.467 0.504827 45.4007L1.75803 40.2135C1.89506 39.6486 2.39834 39.2519 2.97387 39.2544L7.50086 39.277C8.34796 39.2821 8.94342 40.1181 8.67683 40.9291C8.01659 42.9427 7.06734 46.395 7.32147 48.9133C7.70267 52.6794 9.08792 55.1926 15.6629 56.099C22.2379 57.0054 33.7933 56.1492 36.2349 55.2805C38.6766 54.4118 48.3534 53.302 46.3403 44.6626C46.3403 44.6626 45.3338 40.319 38.8684 41.1877C38.8684 41.1877 35.7292 42.0414 35.2358 44.414C34.7425 46.7867 34.9194 48.4488 38.6367 51.5872C39.1898 52.0441 39.0054 52.9405 38.3153 53.1363L38.3178 53.1338Z" fill="#011429"/>
<path d="M39.619 64.3974C40.8747 64.2192 45.6832 60.6012 46.2886 63.0667C46.6997 64.6962 47.8632 67.1592 51.1594 67.7794C69.6611 70.2374 62.8444 45.0547 64.1076 34.4343C63.9556 32.2022 71.0912 33.0182 71.5546 33.0459C72.0479 33.076 72.1774 34.2334 72.1749 34.7306C72.1052 45.5518 76.5699 66.3332 63.6691 73.3859C57.1091 76.9712 44.3029 78.7337 38.9239 65.924C38.7395 65.3088 39.0335 64.6535 39.619 64.3974Z" fill="#011429"/>
<path d="M2.72449 18.7546L40.5698 0.202746C41.118 -0.0659024 41.7583 -0.0684132 42.3064 0.200236L80.2962 18.6215C80.9291 18.9278 81.1857 19.6986 80.8643 20.3288L78.3529 25.2398C78.0415 25.8474 77.304 26.0935 76.6961 25.7922L42.112 8.63129C41.7657 8.45805 41.3596 8.45805 41.0108 8.63129L6.02568 25.9755C5.39284 26.2893 4.62796 26.0106 4.33895 25.3628L2.13401 20.3991C1.85995 19.7815 2.12155 19.0534 2.72698 18.7571L2.72449 18.7546Z" fill="#011429"/>
<path d="M41.3821 27.0897C43.8712 27.0897 45.8891 25.0562 45.8891 22.5478C45.8891 20.0393 43.8712 18.0059 41.3821 18.0059C38.8929 18.0059 36.875 20.0393 36.875 22.5478C36.875 25.0562 38.8929 27.0897 41.3821 27.0897Z" fill="#011429"/>
</g>
<defs>
<clipPath id="clip0_1674_5067">
<rect width="81" height="76" fill="white"/>
</clipPath>
</defs>
</svg>
