<svg width="53" height="48" viewBox="0 0 53 48" fill="none" xmlns="http://www.w3.org/2000/svg">
<g clip-path="url(#clip0_1751_3047)">
<path d="M24.8356 33.5583L21.2297 34.5558C20.9471 34.6335 20.6467 34.5415 20.4594 34.3195C19.3064 32.9589 15.7877 27.9274 21.3944 22.5772C21.3944 22.5772 26.0435 18.1815 32.0927 22.379C32.0927 22.379 35.823 25.0826 34.5553 31.2353C33.2877 37.3879 27.203 39.1671 24.0508 40.1629C20.8986 41.1587 5.68685 42.9728 1.59485 37.2816C1.59485 37.2816 -0.867777 34.4004 0.327203 28.6743L1.13947 25.3982C1.22828 25.0414 1.55448 24.7909 1.92751 24.7924L4.86167 24.8067C5.41071 24.8099 5.79666 25.3379 5.62387 25.8501C5.19594 27.1219 4.58069 29.3022 4.7454 30.8927C4.99247 33.2713 5.89032 34.8586 10.1519 35.4311C14.4134 36.0035 21.9031 35.4628 23.4856 34.9141C25.0681 34.3655 31.3402 33.6646 30.0354 28.2081C30.0354 28.2081 29.383 25.4648 25.1925 26.0134C25.1925 26.0134 23.1578 26.5526 22.838 28.0511C22.5183 29.5496 22.633 30.5994 25.0423 32.5815C25.4008 32.8701 25.2813 33.4362 24.834 33.5599L24.8356 33.5583Z" fill="#EE8548"/>
<path d="M25.6784 40.6727C26.4923 40.5601 29.6089 38.2751 30.0013 39.8322C30.2678 40.8614 31.0219 42.417 33.1583 42.8087C45.1501 44.3611 40.7319 28.4562 41.5506 21.7486C41.4521 20.3389 46.077 20.8542 46.3774 20.8717C46.6971 20.8907 46.7811 21.6217 46.7795 21.9357C46.7343 28.7702 49.6281 41.8953 41.2664 46.3496C37.0146 48.614 28.7143 49.7272 25.2278 41.6368C25.1083 41.2483 25.2989 40.8344 25.6784 40.6727Z" fill="#EE8548"/>
<path d="M1.76562 11.845L26.295 0.12805C26.6503 -0.0416226 27.0653 -0.0432083 27.4205 0.126465L52.0436 11.761C52.4538 11.9544 52.6201 12.4412 52.4118 12.8393L50.784 15.9409C50.5822 16.3247 50.1042 16.4801 49.7102 16.2898L27.2946 5.45134C27.0701 5.34193 26.8069 5.34193 26.5808 5.45134L3.90528 16.4056C3.49511 16.6038 2.99935 16.4278 2.81203 16.0186L1.3829 12.8836C1.20527 12.4936 1.37483 12.0337 1.76723 11.8466L1.76562 11.845Z" fill="#EE8548"/>
<path d="M26.8216 17.1102C28.435 17.1102 29.7429 15.8259 29.7429 14.2416C29.7429 12.6574 28.435 11.373 26.8216 11.373C25.2083 11.373 23.9004 12.6574 23.9004 14.2416C23.9004 15.8259 25.2083 17.1102 26.8216 17.1102Z" fill="#EE8548"/>
</g>
<defs>
<clipPath id="clip0_1751_3047">
<rect width="52.5" height="48" fill="white"/>
</clipPath>
</defs>
</svg>
