<svg width="37" height="38" viewBox="0 0 37 38" fill="none" xmlns="http://www.w3.org/2000/svg">
<path d="M6.10642 21.9764C5.02564 20.1386 5.02564 17.8595 6.10642 16.0217C6.444 15.4477 7.00934 15.0439 7.66183 14.9107L10.2012 14.3926C10.2332 14.386 10.2492 14.3828 10.2646 14.3788C10.3747 14.35 10.4741 14.2899 10.5507 14.2058C10.5614 14.1941 10.5717 14.1814 10.5924 14.1562L16.3738 7.07794C17.0702 6.22537 17.4183 5.79908 17.7308 5.91047C18.0432 6.02185 18.0432 6.57226 18.0432 7.67308L18.0432 30.3251C18.0432 31.4259 18.0432 31.9763 17.7308 32.0877C17.4183 32.1991 17.0702 31.7728 16.3738 30.9202L10.5924 23.842C10.5717 23.8167 10.5614 23.8041 10.5507 23.7923C10.4741 23.7082 10.3747 23.6481 10.2646 23.6194C10.2492 23.6154 10.2332 23.6121 10.2012 23.6056L7.66183 23.0874C7.00934 22.9543 6.444 22.5505 6.10642 21.9764Z" fill="#011429" stroke="#011429" stroke-width="1.18"/>
<path d="M22.159 13.5841C23.6061 15.0129 24.4226 16.9485 24.4307 18.9691C24.4388 20.9898 23.6377 22.9317 22.202 24.3717" stroke="#011429" stroke-width="1.176" stroke-linecap="round"/>
<path d="M28.9005 10.3989C31.284 12.6682 32.6289 15.7424 32.6422 18.9516C32.6555 22.1608 31.336 25.245 28.9714 27.5321" stroke="#011429" stroke-width="1.176" stroke-linecap="round"/>
</svg>
