<svg width="240" height="286" viewBox="0 0 240 286" fill="none" xmlns="http://www.w3.org/2000/svg">
<path d="M108.898 134.078L101.366 78.9055C97.7996 76.2848 94.4004 74.2703 84.286 69.6729C74.1715 65.0755 57.4447 57.9562 46.9515 53.6391C36.4583 49.322 32.7055 48.0228 30.577 47.3078C26.8527 46.0568 23.8148 45.439 18.4683 44.7497C17.1604 44.5811 16.2562 44.7809 15.6625 44.993C13.306 45.8348 12.9009 50.8334 13.1566 52.9687C13.3464 54.5539 16.3758 55.8794 19.5814 57.529C23.6541 59.6248 25.0572 60.1528 30.9299 62.5762C36.3614 64.8175 46.8555 68.9349 53.631 71.802C63.2866 75.8878 67.4472 78.1148 69.2901 78.86C70.8371 79.4855 62.0148 78.5098 52.7517 75.5525C48.5097 74.1982 41.9706 71.11 36.6258 69.0884C31.281 67.0667 27.4616 65.8916 24.5455 64.917C16.8039 62.3297 11.1109 61.2796 8.09845 61.4141C7.33102 61.4483 7.13379 63.2751 6.97238 65.156C6.82049 66.9259 8.27931 68.0025 9.42741 69.211C12.1332 72.0592 17.432 74.745 20.185 75.9464C22.0598 76.7645 25.8175 77.5479 30.7247 78.5333C33.0508 79.0004 34.9915 79.6219 39.552 81.0234C44.1124 82.425 51.2205 84.6443 55.2104 85.9275C59.8799 87.4294 62.3382 88.3753 64.7712 89.2576C65.4227 89.4939 64.7934 89.5011 60.4999 88.328C56.2065 87.1549 48.2432 84.8524 39.4152 82.8701C30.5872 80.8877 21.1357 79.2954 16.0083 78.4754C10.377 77.5747 9.44005 77.7152 8.59991 77.8879C7.62906 78.0875 6.81576 78.6156 6.2355 79.1951C5.69368 79.7361 5.59535 80.7556 5.52113 81.813C5.41899 83.2682 7.13721 84.8472 9.02175 86.3939C12.8472 89.5336 19.6838 89.835 24.066 90.9502C25.9519 91.4301 28.8281 92.135 34.8794 93.6132C40.9305 95.0915 50.0729 97.3099 56.0426 99.003C62.0124 100.696 64.5326 101.797 65.6266 102.362C66.7205 102.927 66.3119 102.923 65.8457 102.88C61.5832 102.483 54.4257 100.155 48.1837 99.1161C43.7756 98.3824 36.8593 97.1709 32.6123 96.5828C27.0275 95.8094 25.2474 96.2317 24.5637 96.5499C23.8185 96.8967 23.1965 97.6885 22.5708 98.4477C22.0789 99.0447 22.051 99.9955 22.0846 101.072C22.1499 103.17 24.1122 104.469 25.3764 105.699C27.638 107.899 31.0865 108.438 35.5848 109.118C38.6992 109.588 44.3193 111.922 51.871 115.058L52.4164 115.285C55.6314 116.62 57.3401 117.255 61.5331 119.225C65.7261 121.195 72.3593 124.466 76.811 126.498C83.2265 129.426 88.6021 130.549 94.4608 131.727C99.4062 132.722 104.35 133.638 108.898 134.078Z" fill="#603E2D"/>
<path d="M99.2501 197.203C102.924 209.547 143.337 244.059 162.502 261.096C175.507 272.946 207.905 241.453 219.715 229.972L219.72 229.967C229.165 220.786 229.185 212.871 228.014 210.061C226.345 208.729 219.698 202.908 206.466 190.277C189.926 174.489 159.975 146.871 156.201 146.217C152.427 145.563 94.6584 181.772 99.2501 197.203Z" fill="#C2E46D"/>
<path d="M112.868 86.7743C110.042 79.9828 101.815 75.7021 94.4082 70.8213C92.547 87.7238 73.4414 125.335 73.4414 132.582C73.4414 141.641 109.62 153.72 112.868 153.72C116.116 153.72 133.607 141.584 133.322 136.627C133.037 131.67 116.4 95.2635 112.868 86.7743Z" fill="#603E2D"/>
<path d="M24.4654 25.6112C20.8056 32.5955 30.5513 97.5722 33.7537 129.343C34.0702 136.209 35.6942 150.486 39.6586 152.669C44.6141 155.399 97.522 148.242 104.912 140.802C112.302 133.362 100.937 82.9265 98.6903 63.4252C96.4432 43.9239 92.3772 18.2526 87.2676 12.7709C82.158 7.28915 60.0957 14.5775 51.2912 16.4498C39.873 18.878 29.0402 16.8809 24.4654 25.6112Z" fill="#011429"/>
<path d="M29.7425 30.5399C26.5779 36.5591 34.5377 91.8443 37.3394 119.242C37.6195 125.162 41.0057 142.831 44.442 144.718C48.7374 147.076 92.5712 141.042 98.9668 134.633C105.362 128.224 95.5021 79.2764 93.5386 62.459C91.575 45.6416 88.5277 23.9901 84.0964 19.2589C79.6651 14.5277 60.0611 20.3056 52.4352 21.9124C42.5455 23.9963 33.6982 23.0159 29.7425 30.5399Z" fill="white"/>
<path d="M133.763 135.931C137.686 143.65 160.368 167.311 171.48 178.219L133.763 208.928C132.339 205.989 121.516 172.073 104.206 150.871C100.067 145.8 108.766 149.34 108.765 135.931C108.764 133.437 110.233 132.248 115.374 131.386C120.514 130.524 128.86 126.283 133.763 135.931Z" fill="#603E2D"/>
<path d="M100.416 194.551C89.003 200.52 144.012 254.563 163.177 271.6C176.183 283.452 207.914 241.442 219.72 229.966C229.165 220.785 229.185 212.869 228.014 210.059C226.345 208.728 219.698 202.906 206.466 190.276C189.926 174.487 157.838 142.752 156.201 146.215C148.99 161.468 138.621 174.572 100.416 194.551Z" fill="#DFFC8E"/>
<path d="M58.4973 90.8773C61.0872 90.3471 75.058 88.6553 79.4641 88.6553C84.0791 89.6808 85.9021 95.7202 82.9964 98.6259C80.6604 100.962 68.0689 99.8793 57.5286 103.184C46.9883 106.488 44.6801 101.158 45.5069 97.3724C46.5896 92.4156 51.2615 92.3586 58.4973 90.8773Z" fill="#88AEFF"/>
<path d="M60.6614 106.715C63.2513 106.185 77.2221 104.493 81.6282 104.493C86.2431 105.519 88.0662 111.558 85.1605 114.464C82.8245 116.8 70.233 115.717 59.6927 119.022C49.1524 122.326 46.8442 116.996 47.671 113.21C48.7537 108.254 53.4256 108.197 60.6614 106.715Z" fill="#C0DEFF"/>
<g clip-path="url(#clip0_1876_3921)">
<path d="M59.5797 58.1888L57.5626 58.9932C57.4044 59.056 57.2256 59.0202 57.1039 58.9013C56.3551 58.1725 54.0156 55.4322 56.9171 51.9509C56.9171 51.9509 59.3255 49.0882 63.0723 51.1852C63.0723 51.1852 65.3898 52.546 65.0394 56.235C64.6889 59.924 61.2911 61.3378 59.5355 62.1138C57.7799 62.8897 49.1226 64.8781 46.4118 61.7853C46.4118 61.7853 44.814 60.2433 45.149 56.8092L45.4147 54.8365C45.4439 54.6217 45.6164 54.4548 45.8316 54.4331L47.524 54.2634C47.8407 54.2319 48.0958 54.5185 48.0279 54.8297C47.8598 55.6022 47.6399 56.9196 47.8331 57.8433C48.1226 59.2248 48.7383 60.1021 51.2304 60.1795C53.7226 60.2569 58.0068 59.4848 58.8852 59.0667C59.7636 58.6485 63.336 57.8563 62.2466 54.7322C62.2466 54.7322 61.7009 53.1613 59.319 53.7377C59.319 53.7377 58.1794 54.1778 58.0877 55.0769C57.996 55.976 58.127 56.5854 59.6385 57.6028C59.863 57.7505 59.8291 58.0901 59.5788 58.1898L59.5797 58.1888Z" fill="#FF7A4D"/>
<path d="M60.5048 62.3136C60.9671 62.1981 62.6225 60.6675 62.945 61.5578C63.1622 62.1458 63.6931 63.0133 64.949 63.1135C71.958 63.297 68.4279 54.2279 68.4852 50.2404C68.3413 49.4188 71.0394 49.4406 71.2136 49.4326C71.3991 49.4244 71.4927 49.8484 71.5112 50.0329C71.9076 54.0479 74.3871 61.5776 69.8421 64.7002C67.5309 66.2876 62.8147 67.445 60.3047 62.907C60.2118 62.6861 60.296 62.4307 60.5047 62.3127L60.5048 62.3136Z" fill="#FF7A4D"/>
<path d="M44.9387 46.8424L58.3554 38.4748C58.5497 38.3536 58.7888 38.3275 59.0041 38.4055L73.9182 43.7412C74.1666 43.8299 74.2926 44.1056 74.1971 44.3519L73.4504 46.2716C73.3578 46.5091 73.0918 46.6294 72.8529 46.5416L59.2607 41.5392C59.1245 41.4886 58.9727 41.5046 58.8492 41.5826L46.4541 49.3899C46.2299 49.5311 45.9332 49.4579 45.7999 49.2291L44.7823 47.4754C44.6558 47.2571 44.7251 46.9769 44.9397 46.8432L44.9387 46.8424Z" fill="#FF7A4D"/>
<path d="M59.7086 48.4115C60.6387 48.3136 61.3133 47.4802 61.2154 46.5501C61.1174 45.62 60.2841 44.9455 59.354 45.0434C58.4239 45.1413 57.7493 45.9747 57.8472 46.9048C57.9452 47.8348 58.7785 48.5094 59.7086 48.4115Z" fill="#FF7A4D"/>
</g>
<path d="M129.828 126.754L129.828 126.757C129.484 127.762 129.849 126.692 129.67 126.986C128.975 128.229 128.611 129.481 127.814 130.299C127.29 130.6 126.705 130.983 125.972 131.019C123.862 131.122 119.406 130.106 117.233 128.47C115.937 127.493 113.414 124.774 110.414 121.477C108.655 119.544 107.692 118.27 107.44 116.553C106.785 112.093 106.236 108.63 104.934 106.815C103.693 105.085 100.845 103.024 96.324 101.912C89.601 100.258 84.4102 99.2412 82.5828 98.7468C80.4488 98.1694 76.3587 97.0241 72.1796 94.3384C69.3919 92.5469 68.1284 91.4935 67.619 90.8546C66.1512 89.0137 62.5361 85.912 62.3789 83.0404C62.2678 81.0101 62.3239 77.1364 63.7726 77.1336C64.8476 77.1315 67.9203 77.3262 74.1469 79.5246C78.0797 80.9132 85.1172 83.4605 89.6871 85.0469C94.2569 86.6332 96.2884 87.2739 97.4733 87.5634C98.9523 87.9248 103.369 88.504 109.554 90.4502C112.866 91.4923 114.075 92.0045 115.051 92.8153C116.996 94.4317 120.074 97.0244 122.501 100.796C124.75 104.291 125.691 106.437 126.054 107.516C127.093 110.606 128.003 111.637 128.759 117.147C129.947 125.805 129.877 126.368 129.828 126.754Z" fill="#603E2D"/>
<defs>
<clipPath id="clip0_1876_3921">
<rect width="30.4329" height="28.3352" fill="white" transform="translate(43.1875 39.9951) rotate(-6.0106)"/>
</clipPath>
</defs>
</svg>
