<svg width="300" height="261" viewBox="0 0 300 261" fill="none" xmlns="http://www.w3.org/2000/svg">
<path d="M177.775 0C220.774 0 251.839 31.982 261.652 49.7834C268.309 57.0193 285.272 95.8303 289.099 117.741C292.926 139.651 253.267 242.32 202.083 254.648C150.9 266.975 111.241 250.509 45.9691 220.41C-19.3029 190.311 2.48243 153.328 7.61335 76.6642C12.7443 0 124.026 0 177.775 0Z" fill="#C0DEFF"/>
<path d="M107.192 172.465C107.539 168.422 126.939 167.423 131.096 167.858C133.742 176.554 153.634 191.265 163.249 197.534L146.982 209.274C141.687 202.027 130.434 187.533 127.788 187.533C124.48 187.533 118.191 187.098 118.191 182.098C118.191 177.097 106.758 177.52 107.192 172.465Z" fill="#6F4A37"/>
<path d="M117.524 159.905C118.445 160.522 119.333 161.233 119.826 161.607C120.265 161.662 121.64 162.216 121.858 162.19C122.287 162.112 122.69 163.95 123.884 164.071C125.732 164.19 127.726 162.5 129.295 163.405C129.78 163.684 129.879 165.41 130.011 165.856C130.159 166.355 129.664 166.716 130.011 169.185C130.465 172.415 132.861 175.265 132.12 177.571C132.043 177.812 131.94 178.092 131.618 178.126C130.827 178.208 129.842 178.191 129.295 177.704C128.521 177.015 127.723 172.037 125.643 172.11C125.433 172.117 125.235 172.238 124.929 172.383C123.626 172.998 121.533 174.119 121.521 175.44C121.52 175.627 121.647 175.8 121.726 176.048C122.119 177.286 123.386 179.841 122.836 181.934C122.75 182.264 122.611 182.473 122.41 182.505L122.39 182.509C121.976 182.576 121.158 182.709 120.453 181.978C120.393 181.916 120.281 181.77 120.142 181.579C120.364 182.045 120.533 182.555 120.555 183.06C120.593 183.927 120.562 184.681 120.274 184.986C120.131 185.137 119.938 185.238 119.732 185.272C119.525 185.307 119.312 185.278 119.133 185.174C118.953 185.071 118.815 184.895 118.631 184.667C117.746 183.576 116.161 181.295 116.373 182.04C116.439 182.272 116.773 182.478 117.022 183.06C117.709 184.667 117.468 184.667 117.468 184.667C117.468 184.667 116.58 185.641 116.373 185.587C115.465 185.35 115.017 185.8 113.512 183.995C110.928 180.894 109.602 180.289 108.818 179.218C107.178 176.981 105.958 175.371 105.945 174.657C105.92 173.397 105.962 172.406 106.18 172.043C106.291 171.859 106.441 171.694 106.629 171.621C106.817 171.549 107.048 171.54 107.239 171.648C107.63 171.868 108.365 174.744 109.204 173.818C109.224 173.796 109.013 173.497 108.768 173.16C107.708 171.703 106.606 170.349 107.005 168.602C107.144 167.993 107.354 167.542 107.785 167.317C108.274 167.063 108.782 166.891 109.243 166.945C109.708 167 110.146 167.16 110.453 167.537C110.81 167.974 111.256 168.917 111.161 168.693C110.537 167.216 109.403 164.238 110.19 163.405C110.493 163.084 111.376 162.767 112.457 163.02C113.118 163.175 113.475 163.465 113.748 163.84C113.815 163.932 113.907 164.072 114.014 164.246C113.296 162.165 112.651 160.4 113.54 159.865C113.948 159.62 116.042 158.913 117.524 159.905Z" fill="#835A45"/>
<path d="M139.707 80.2764L118.481 175.168L123.209 177.098L144.532 80.2764H139.707Z" fill="#FEB3BD"/>
<path d="M120.383 178.139C118.099 172.5 118.414 174.856 117.461 172.713C117.32 172.242 117.844 172.047 117.461 171.153C116.398 168.715 116.295 166.631 116.187 166.252C116.06 165.173 115.92 163.386 116.436 162.485C116.631 162.145 116.89 161.808 117.243 161.804C117.588 161.8 118.264 161.928 118.783 162.514C119.88 163.752 121.334 165.976 122.291 168.622C122.888 170.271 123.356 171.364 123.792 172.5C124.686 174.831 125.374 176.481 125.414 176.906C125.546 178.275 125.6 180.062 125.342 180.76C125.225 181.077 125.058 181.467 124.724 181.481C124.026 181.51 123.236 181.44 122.736 180.784C122.259 180.159 120.957 179.556 120.383 178.139Z" fill="#835A45"/>
<path d="M118.068 180.455C115.784 174.816 116.098 177.172 115.146 175.028C115.005 174.557 115.529 174.363 115.146 173.469C114.082 171.031 113.98 168.947 113.872 168.567C113.745 167.488 113.605 165.701 114.121 164.8C114.316 164.46 114.574 164.124 114.927 164.119C115.272 164.115 115.948 164.243 116.468 164.83C117.565 166.068 119.018 168.292 119.976 170.938C120.572 172.587 121.04 173.68 121.476 174.816C122.371 177.146 123.058 178.796 123.099 179.222C123.23 180.59 123.285 182.378 123.027 183.076C122.91 183.392 122.742 183.783 122.408 183.797C121.711 183.825 120.921 183.755 120.42 183.099C119.944 182.474 118.642 181.871 118.068 180.455Z" fill="#835A45"/>
<path d="M131.507 169.861L134.691 174.347C135.656 175.167 132.424 180.908 130.156 181.005C128.343 181.082 126.442 178.528 125.718 177.242C125.155 176.165 124.03 173.778 124.03 172.852C124.03 171.694 125.525 166.713 125.718 165.181C126.49 159.055 126.828 160.02 130.88 163.155C131.855 163.91 130.784 168.751 131.507 169.861Z" fill="#6F4A37"/>
<path d="M220.866 203.281C231.212 202.826 249.091 186.946 259.437 186.491C263.696 186.303 275.677 178.174 284.064 183.36C291.976 188.252 296.323 206.396 299.807 208.745C302.506 218.25 267.758 243.111 243.975 255.417C223.734 265.889 193.99 260.994 176.841 246.025C169.487 239.606 133.772 214.209 131.523 208.745C129.274 203.281 137.82 196.963 140.069 191.044C142.318 185.125 156.656 181.937 159.805 180.571C162.953 179.205 188.781 195.985 193.99 197.419C199.781 199.012 210.52 203.736 220.866 203.281Z" fill="#DFFC8E"/>
<path d="M77.6204 45.1268C96.4971 39.8922 123.884 42.8641 141.088 45.1268C177.592 49.3451 205.485 59.3441 214.868 63.8163L263.369 105.674L218.315 120.907L132.575 113.222L72.9119 98.109L27.9314 63.8163C33.0035 59.764 59.9656 50.0225 77.6204 45.1268Z" fill="#86ADFF"/>
<path d="M149.308 34.7832L144.483 56.2025L149.308 58.6146L154.132 34.7832H149.308Z" fill="#FEB3BD"/>
</svg>
