<svg width="296" height="288" viewBox="0 0 296 288" fill="none" xmlns="http://www.w3.org/2000/svg">
<path d="M40.3677 55.7805C46.8348 37.2906 90.2971 19.6567 111.22 13.151C155.157 -5.3389 172.424 -4.34085 239.472 16.2035C306.52 36.7478 288.033 129.695 294.294 154.393C302.285 185.911 265.288 236.057 253.875 268.928C242.463 301.799 191.582 271.496 119.779 284.85C47.9762 298.204 49.8782 249.411 34.1862 245.302C18.4941 241.193 5.17944 194.968 0.42427 145.148C-4.3309 95.3284 32.2839 78.8929 40.3677 55.7805Z" fill="#FCFFFD"/>
<path d="M198.642 214.435C213.341 212.675 239.182 217.735 250.265 220.485C268.639 224.251 253.764 239.736 247.64 247.436C241.515 255.137 204.329 257.887 194.267 262.287C184.205 266.687 164.08 257.887 155.768 257.887C147.456 257.887 109.395 254.037 79.646 257.887C49.8971 261.737 41.1475 239.736 41.1475 231.486C41.1475 223.236 77.8961 220.485 89.7081 214.435C101.52 208.385 133.019 220.485 142.206 220.485C151.393 220.485 180.267 216.635 198.642 214.435Z" fill="#EBECDD"/>
<path d="M72.0595 158.141C69.6783 157.493 68.1172 156.548 67.8168 155.291C67.6067 154.062 66.7354 153.598 67.3126 150.938C68.0342 147.613 70.2165 146.433 72.0595 145.473C74.643 144.126 75.9188 144.344 78.7751 144.903C81.6314 145.462 82.0158 147.105 83.3387 149.591C84.6616 152.078 82.4204 155.785 81.0073 156.931C79.5942 158.076 75.0361 158.951 72.0595 158.141Z" fill="#011529"/>
<path d="M64.9491 148.315C64.5541 147.393 65.1424 146.477 65.4716 146.257C66.6773 144.714 68.6523 145.928 69.393 146.257C70.1336 146.586 69.5575 148.068 69.393 148.891C69.2284 149.714 67.9117 150.207 66.6773 150.207C65.4429 150.207 65.4428 149.467 64.9491 148.315Z" fill="#011529"/>
<path d="M69.8332 147.101C69.4492 147.101 68.9939 147.973 68.928 148.5C68.8457 149.158 68.0228 150.145 67.6113 150.145" stroke="#FEB3BD" stroke-width="0.7" stroke-linecap="round"/>
<path d="M80.7546 145.446C80.3233 146.23 79.163 145.997 78.828 145.886C76.472 146.328 76.6609 143.945 76.4858 143.243C76.3107 142.542 77.6686 141.698 78.3377 141.362C79.0068 141.026 80.0769 141.681 80.7546 142.549C81.4322 143.417 81.2938 144.466 80.7546 145.446Z" fill="#011529"/>
<path d="M80.6143 145.783C80.5043 145.415 79.4832 146.507 78.3924 145.618C77.8781 145.199 76.9467 145.074 76.8288 144.68" stroke="#FF9657" stroke-width="0.7" stroke-linecap="round"/>
<path d="M68.2305 234.576L72.4201 234.879C72.2591 237.103 72.2286 240.543 72.6682 242.228C73.2177 244.335 75.6361 244.077 76.9558 244.41C79.3301 245.011 83.4257 244.996 81.6696 247.169C79.9135 249.343 77.7524 249.031 75.2697 248.851C72.787 248.671 71.4376 248.457 69.412 248.427C67.7915 248.403 67.354 247.407 67.3379 246.912L68.2305 234.576Z" fill="#011429"/>
<path d="M57.0408 227.629L61.1246 228.601C59.9578 232.413 59.0632 235.213 60.3467 236.147C61.3339 236.865 66.7253 240.853 67.0365 241.708C67.3476 242.564 66.576 243.303 65.4807 243.303C64.1583 243.303 61.1246 242.836 58.9077 240.775C57.7084 239.66 54.772 238.234 54.2793 238.091L57.0408 227.629Z" fill="#011529"/>
<path d="M62.6474 193.443C64.743 187.083 69.0345 186.406 70.9183 186.862L76.7146 190.489C75.1725 204.535 71.2589 232.85 67.9409 233.741C64.6229 234.632 58.6357 230.968 56.0568 229.025C57.3806 219.814 60.5519 199.803 62.6474 193.443Z" fill="#9BBBFF"/>
<path d="M62.6474 193.443C64.743 187.083 69.0345 186.406 70.9183 186.862L76.7146 190.489C75.1725 204.535 71.2589 232.85 67.9409 233.741C64.6229 234.632 58.6357 230.968 56.0568 229.025C57.3806 219.814 60.5519 199.803 62.6474 193.443Z" fill="#88AEFF"/>
<path d="M64.1374 199.15C65.382 192.492 70.3863 191.112 72.7329 191.255L80.3951 193.9C81.3415 208.096 82.2853 236.846 78.4893 238.277C74.6932 239.709 66.7951 237.059 63.3206 235.555C63.0743 226.194 62.8928 205.809 64.1374 199.15Z" fill="#9BBBFF"/>
<path d="M64.1374 199.15C65.382 192.492 70.3863 191.112 72.7329 191.255L80.3951 193.9C81.3415 208.096 82.2853 236.846 78.4893 238.277C74.6932 239.709 66.7951 237.059 63.3206 235.555C63.0743 226.194 62.8928 205.809 64.1374 199.15Z" fill="#9BBBFF"/>
<path d="M60.8629 173.238C59.9464 174.857 58.3414 185.274 57.6123 188.933C59.2788 197.573 80.4023 201.894 83.0409 197.573C85.6795 193.253 80.305 165.843 79.4024 163.974C75.757 158.37 67.7015 162.181 66.279 163.974C64.3885 166.358 62.0086 171.214 60.8629 173.238Z" fill="#FEB3BD"/>
<path d="M88.913 170.251C89.5975 170.189 90.8317 171.314 91.3633 171.885C91.3633 182.775 86.2293 186.159 85.4514 187.053C84.7815 187.824 81.3675 190.281 73.3165 187.909C65.2655 185.536 67.7547 172.313 67.2102 170.679C66.6656 169.045 68.7659 165.312 71.7219 163.678C74.6778 162.045 78.6061 165.973 78.9172 166.712C79.2284 167.451 80.6675 169.162 82.0287 170.251C83.39 171.34 88.0573 170.329 88.913 170.251Z" fill="#FF9657"/>
<path d="M76.1944 158.117L75.8444 162.006C74.5686 162.784 72.9662 162.149 72.3828 161.656L74.0553 157.378L76.1944 158.117Z" fill="#694631"/>
<path d="M72.1064 150.703C73.8182 148.583 73.791 148.882 75.8443 147.499C80.3664 147.85 81.6007 149.988 81.9896 149.833C82.3786 149.677 82.5341 149.872 82.7286 150.455C82.9231 151.038 81.9896 151.505 82.1841 152.361C82.3786 155.006 81.3236 157.971 77.7064 158.476C74.0893 158.982 71.8772 156.211 71.6438 156.211C69.3102 155.356 69.4657 153.917 70.088 153.917C70.9109 152.361 71.3822 151.599 72.1064 150.703Z" fill="#704E3A"/>
<path d="M74.4303 153.226C74.3008 152.627 74.9442 152.525 75.1576 152.663C75.9244 153.31 75.6231 153.965 75.2714 154.041C74.8602 154.13 74.5144 153.616 74.4303 153.226Z" fill="#011429"/>
<path d="M78.5534 151.749C78.4239 151.149 79.0672 151.047 79.2806 151.186C80.0474 151.832 79.7462 152.487 79.3945 152.563C78.9832 152.652 78.6375 152.138 78.5534 151.749Z" fill="#011429"/>
<path d="M75.0618 152.063C74.7118 152.024 73.965 152.118 73.7783 152.802" stroke="#011429" stroke-width="0.7" stroke-linecap="round"/>
<path d="M78.0057 155.244C78.3413 155.138 78.6697 154.904 78.5621 154.203" stroke="#B28972" stroke-width="0.7" stroke-linecap="round"/>
<path d="M77.2415 156.427C78.0564 156.686 78.6787 156.531 79.0287 155.951" stroke="#B28972" stroke-width="0.7" stroke-linecap="round"/>
<path d="M79.6905 150.779C79.4128 150.562 78.9904 150.273 78.4069 150.637" stroke="#011429" stroke-width="0.7" stroke-linecap="round"/>
<path d="M89.5005 170.882C89.1046 170.688 88.5898 170.5 88.4307 170.497C88.5409 170.193 88.6771 169.854 88.7195 169.774C88.867 169.411 89.0192 168.996 89.0784 167.662C89.2338 167.112 89.4226 166.768 89.7051 166.395C90.315 165.59 90.8081 165.098 90.8293 164.674C90.8452 164.358 90.8337 164.047 90.6783 163.969C90.5253 163.893 89.3757 164.245 89.1573 163.703C89.1204 163.611 89.1291 163.467 89.1721 163.369C89.2151 163.271 89.2865 163.212 89.3788 163.178C89.7668 163.033 90.1658 162.824 90.777 162.796C92.048 162.738 92.3848 162.268 92.6691 162.446C92.8088 162.534 92.939 162.679 93.0139 162.865C93.1626 163.235 93.2032 163.854 93.286 164.381C93.4579 165.475 93.1745 166.31 92.6691 167.015C92.3377 167.477 91.8382 168.022 91.5578 168.578C91.2505 169.188 91.3109 170.06 91.064 170.882C91.0206 171.027 90.8995 171.788 90.7349 171.788C90.5703 171.788 89.9218 171.09 89.5005 170.882Z" fill="#704E3A"/>
<path d="M208.969 42.6278C216.604 41.2374 221.735 47.2623 223.346 50.4485C224.709 54.2968 214.794 57.4002 212.935 57.4002C211.076 57.4002 211.448 55.0416 203.764 52.5588C196.08 50.076 192.486 51.6898 190.627 51.814C188.768 51.9381 183.315 53.4278 184.926 50.4485C186.537 47.4692 199.426 44.3657 208.969 42.6278Z" fill="#FEB3BD"/>
<path d="M196.665 36.1874C196.665 37.6743 188.694 49.112 184.646 49.8555L179.317 46.1004L176.715 38.9997C175.311 36.8932 172.651 27.2776 176.715 24.5019C180.78 21.7263 182.787 19.9171 195.55 21.0322C196.665 27.3518 196.665 34.7004 196.665 36.1874Z" fill="#011529"/>
<path d="M188.428 233.171C189.32 231.189 190.039 223.754 190.287 220.284C192.311 220.284 196.185 220.458 195.491 221.152C194.624 222.019 195.491 231.808 195.491 236.269C195.491 240.73 195.987 247.421 195.491 248.784C194.996 250.147 190.287 249.032 187.685 248.784C185.083 248.536 183.472 244.323 183.472 242.588C183.472 240.854 187.313 235.649 188.428 233.171Z" fill="#ED8648"/>
<path d="M214.326 227.222C214.624 225.438 218.002 213.922 219.655 208.388L229.692 210.618C228.7 213.675 226.718 220.159 226.718 221.646C226.718 223.505 231.426 226.479 232.665 227.222C233.657 227.817 239.109 228.957 241.711 229.453C243.074 231.064 244.982 234.583 241.711 235.772C238.44 236.962 228.7 234.451 224.239 233.046L221.761 234.285L214.326 232.303C214.202 231.353 214.029 229.007 214.326 227.222Z" fill="#ED8648"/>
<path d="M226.528 107.809L182.539 123.632C177.682 137.708 184.209 162.864 182.539 180.422C179.441 192.73 176.632 220.73 179.506 220.532C183.1 220.284 187.065 224.125 191.402 226.108C195.739 228.09 206.271 225.612 206.891 224.125C203.421 214.584 210.361 188.19 213.335 177.906C215.714 169.678 214.326 152.169 213.335 143.124L224.669 160.558L218.474 183.024L210.361 214.745H236.565C240.076 205.122 247.51 179.293 250.88 160.558C254.251 141.822 235.532 115.656 226.528 107.809Z" fill="#FEB3BD"/>
<path d="M209.333 53.5564C229.357 61.0903 237.722 101.695 238.3 118.465C225.215 138.786 196.128 138.786 182.167 137.299C179.978 137.051 174.262 129.441 168.413 113.282C162.564 97.1242 165.674 70.6977 170.176 59.5042C174.885 54.3825 189.308 46.0225 209.333 53.5564Z" fill="#C0DEFF"/>
<path d="M185.962 44.8828L193.831 45.2571C193.478 50.1231 198.646 58.233 198.059 60.3541C197.472 62.4751 193.831 62.3504 191.012 60.9779C188.757 59.88 186.706 54.8643 185.962 52.4937V44.8828Z" fill="#543421"/>
<path d="M180.462 37.8203C180.834 31.9964 181.385 28.2827 184.056 27.6594C191.491 25.9246 195.084 25.1811 196.199 34.9703C196.199 34.516 196.422 33.8303 197.314 34.7225C198.43 35.8377 196.571 38.0681 196.571 38.6877C196.199 44.8834 195.084 46.6181 194.464 47.7333C193.845 48.8485 190.251 47.7333 187.277 47.7333C183.932 47.7333 183.354 44.0986 182.693 42.4051C181.701 42.3225 179.856 41.6114 179.471 40.9181C178.851 39.8029 178.232 38.5638 178.851 37.8203C179.347 37.2256 180.091 37.5725 180.462 37.8203Z" fill="#603F2C"/>
<path d="M191.888 33.3062C192.078 32.453 192.965 32.7042 193.157 33.0105C193.757 34.3038 192.98 34.973 192.483 34.862C191.902 34.7321 191.764 33.8606 191.888 33.3062Z" fill="#011429"/>
<path d="M184.919 34.6183C184.888 33.7446 185.81 33.7641 186.073 34.0122C186.98 35.1126 186.396 35.956 185.887 35.9738C185.292 35.9945 184.939 35.1859 184.919 34.6183Z" fill="#011429"/>
<path d="M184.15 33.9563C184.605 33.378 185.786 32.4445 186.876 33.3367" stroke="#011529" stroke-width="0.7" stroke-linecap="round"/>
<path d="M191.214 32.3452C191.668 31.7669 193.32 31.3539 194.188 32.5931" stroke="#011529" stroke-width="0.7" stroke-linecap="round"/>
<path d="M189.845 34.8457C190.973 35.9862 192.877 38.6542 191.471 40.2023" stroke="#B28972" stroke-width="0.7" stroke-linecap="round"/>
<path d="M189.354 42.0107C189.974 42.5064 191.634 43.2747 193.32 42.3825" stroke="#B28972" stroke-width="0.7" stroke-linecap="round"/>
<path d="M215.746 97.0285L218.1 93.9307C218.1 95.0459 220.95 97.8959 222.561 99.2589C224.172 100.622 222.685 101.613 222.19 101.985C221.694 102.357 220.95 103.224 220.703 103.72C220.455 104.215 219.959 105.826 218.968 107.313C217.977 108.8 216.49 108.676 216.118 108.428C215.746 108.181 215.746 107.313 215.746 106.446C215.746 105.578 217.605 101.489 217.605 99.8785C217.605 98.5898 216.366 97.4415 215.746 97.0285Z" fill="white"/>
<path d="M202.735 114.004C202.859 113.261 206.7 110.906 207.072 109.791C207.238 109.293 207.077 108.181 206.831 107.065L205.957 104.711L209.303 102.232C209.798 103.1 209.798 103.595 210.046 104.711C211.409 107.313 213.02 110.906 212.4 111.526C211.905 112.022 210.129 112.889 209.303 113.261C208.27 114.335 205.808 116.482 204.222 116.482C202.239 116.482 202.611 114.748 202.735 114.004Z" fill="white"/>
<path d="M222.436 93.8071C218.174 100.052 213.308 100.953 211.408 100.622L203.602 81.2919L213.762 80.0527L222.436 93.8071Z" fill="#C3E471"/>
<path d="M228.136 81.4163C231.11 78.5415 229.376 72.2054 228.136 69.3967C207.691 68.0993 197.47 78.7152 192.199 85.6292C186.017 93.7391 197.654 103.101 201.123 109.792L207.691 106.694L211.904 102.358L207.691 87.7358C213.267 86.8271 225.163 84.2911 228.136 81.4163Z" fill="#DDFC8F"/>
<path d="M231.293 62.9966C231.591 66.2679 230.492 69.1478 229.377 70.5108C225.04 74.7239 210.542 74.9717 208.188 73.113C205.833 71.2543 204.594 63.5717 204.47 59.6065C204.346 55.6413 206.825 54.0304 208.188 51.4283C209.551 48.8261 216.743 43.8695 221.945 45.9761C224.933 47.1863 230.922 58.9074 231.293 62.9966Z" fill="#ED8648"/>
<path d="M215.498 50.065C217.678 48.578 220.261 49.2117 221.417 49.3357C222.652 50.817 222.899 50.065 222.899 55.2693C222.899 60.4736 212.648 69.6432 208.806 70.5106C204.965 71.378 193.565 66.6693 191.954 66.6693C190.343 66.6693 188.547 64.9809 186.936 62.5026C185.326 60.0243 186.514 57.1592 189.488 55.6723C192.461 54.1853 204.469 56.7563 205.832 56.7563C207.195 56.7563 212.772 51.9237 215.498 50.065Z" fill="#FEB3BD"/>
<path d="M170.44 57.8679C173.167 54.7932 178.637 53.5902 181.031 53.373C185.901 53.373 187.057 63.4051 187.057 66.7274C187.057 70.0497 186.692 80.1469 188.336 81.8406C189.979 83.5343 200.023 87.7686 207.327 83.0783C214.632 78.388 216.807 82.4948 217.111 85.7519C217.415 89.0091 215.389 90.4422 207.327 100.374C196.665 113.508 183.407 112.145 179.07 110.535C174.048 108.669 163.179 104.08 158.005 94.178C152.831 84.2763 161.188 74.74 161.857 70.18C162.527 65.62 167.031 61.7114 170.44 57.8679Z" fill="#88AEFF"/>
<path d="M224.609 70.015C224.609 68.4289 226.096 66.9585 226.839 66.4215C228.12 65.5541 230.929 63.8193 231.92 63.8193C233.159 63.8193 235.142 70.015 235.142 73.3606C235.142 76.7063 228.698 80.9193 226.22 78.1932C223.742 75.4671 224.609 71.9976 224.609 70.015Z" fill="#88AEFF"/>
<path d="M216.291 43.147L217.904 41.8804L218.991 41.6272C219.545 43.2792 220.683 46.7038 220.795 47.1865C218.208 49.6219 216.615 47.9914 216.142 46.8717L216.291 43.147Z" fill="#603F2C"/>
<path d="M211.959 40.7713C211.463 37.5991 214.642 34.8234 216.294 33.9561C225.96 35.9387 222.49 42.2582 222.49 42.8778C222.49 43.4973 220.012 45.1082 219.02 45.48C218.227 45.7773 214.934 46.5952 213.444 46.0995C212.703 44.8604 212.455 43.9434 211.959 40.7713Z" fill="#704B36"/>
<path d="M218.279 31.3535L215.801 34.2035C217.659 34.2035 220.386 34.8231 222.244 37.1774C223.672 38.9865 222.988 41.8035 222.244 43.2492L225.962 40.647C226.168 40.11 226.532 38.4909 226.333 36.31C226.135 34.1292 220.881 32.097 218.279 31.3535Z" fill="#011429"/>
<path d="M224.103 41.7633L222.74 41.3916L221.377 43.4981C221.831 43.3742 222.938 43.0768 223.731 42.8786C224.524 42.6803 224.31 42.0525 224.103 41.7633Z" fill="#704B36"/>
<path d="M214.181 37.781C214.474 37.2199 215.048 37.5622 215.124 37.8124C215.301 38.8299 214.632 39.152 214.305 38.981C213.923 38.7811 213.99 38.1455 214.181 37.781Z" fill="#011429"/>
<path d="M218.287 39.3865C218.772 38.9797 219.172 39.5148 219.147 39.7753C218.923 40.7834 218.181 40.826 217.945 40.5433C217.668 40.2127 217.972 39.6507 218.287 39.3865Z" fill="#011429"/>
<path d="M214.136 41.1426C214.054 41.3904 214.013 41.9356 214.508 42.1339" stroke="#B28972" stroke-width="0.7" stroke-linecap="round"/>
<path d="M213.545 42.7189C213.737 43.3427 214.53 44.3378 216.164 43.3277" stroke="#B28972" stroke-width="0.7" stroke-linecap="round"/>
<path d="M220.074 40.1014C220.311 39.6401 220.397 38.6439 218.846 38.3487" stroke="#011429" stroke-width="0.7" stroke-linecap="round"/>
<path d="M215.836 37.0938C215.492 36.7449 214.614 36.2246 213.854 36.9351" stroke="#011429" stroke-width="0.7" stroke-linecap="round"/>
<path d="M184.224 50.2724C184.496 50.0933 184.684 49.9728 184.782 49.907C184.832 49.8962 184.883 49.8956 184.937 49.9013C185.164 49.8945 185.575 49.7972 185.736 49.895C185.762 49.9109 185.786 49.9331 185.804 49.9619C185.876 50.077 185.95 50.2724 186.032 50.551C186.054 50.6255 186.197 51.4562 186.197 51.6208C186.197 51.6899 186.182 51.7175 186.197 51.7854C186.211 51.8482 186.109 52.0489 186.21 52.342C186.444 53.0198 186.807 53.3536 186.843 53.4755C186.915 53.7205 186.985 53.914 186.892 54.0327C186.85 54.0863 186.791 54.1495 186.732 54.1324C186.673 54.1154 186.367 54.1101 186.032 53.6033C185.85 53.3277 185.572 52.9725 185.436 52.7729C185.509 52.929 185.601 53.1322 185.708 53.3886C185.862 53.7604 186.034 54.2106 186.114 54.4754C186.214 54.8068 186.239 54.923 186.203 54.9863C186.185 55.0174 186.154 55.0451 186.121 55.0514C186.06 55.0631 185.959 55.0627 185.845 55.0091C185.655 54.9198 185.355 54.714 185.036 54.0101C184.889 53.6875 184.68 53.179 184.567 52.9123C184.454 52.6456 184.438 52.6215 184.41 52.5986C184.382 52.5758 184.332 52.5538 184.336 52.5808C184.349 52.6775 184.424 52.9274 184.633 53.3507C184.762 53.6127 184.957 53.9541 185.108 54.2758C185.542 55.2008 185.633 55.4112 185.563 55.6162C185.549 55.6581 185.529 55.689 185.498 55.6985C185.376 55.7368 185.205 55.7283 185.072 55.6561C184.9 55.5621 184.452 55.2434 184.224 54.5683C184.05 54.05 183.702 53.6397 183.585 53.3886C183.612 53.451 183.643 53.5222 183.68 53.6033C183.83 53.9303 184.075 54.4005 184.237 54.7692C184.639 55.6861 184.733 55.9585 184.619 56.0903C184.563 56.1536 184.487 56.2217 184.393 56.2409C184.316 56.2568 184.222 56.2734 184.14 56.2326C184.071 56.1983 183.933 56.0762 183.779 55.873C183.664 55.7208 183.545 55.4994 183.265 55.0217C183.07 54.6883 182.897 54.1236 182.74 53.8427C182.558 53.5146 182.541 53.3053 182.605 53.0225C182.688 52.6563 182.607 52.3426 182.859 51.8905C183.009 51.619 183.225 51.278 183.476 50.9805C183.728 50.683 183.996 50.4224 184.224 50.2724Z" fill="#704B36"/>
<path d="M191.09 43.9938L191.462 46.8438L193.196 46.596L191.957 43.6221L191.09 43.9938Z" fill="#011429"/>
<path d="M187.496 40.7721L190.966 40.2764C191.461 40.2056 193.403 40.2469 194.311 40.2764L196.294 42.3829L195.551 44.1177L194.064 41.8873C193.568 41.7221 192.378 41.3916 191.585 41.3916C190.792 41.3916 189.024 41.7221 188.24 41.8873L187.124 46.1003L185.39 45.6047C185.637 44.6547 186.133 42.6803 186.133 42.3829C186.133 42.0855 187.042 41.1851 187.496 40.7721Z" fill="#011429"/>
<path d="M185.637 45.6043L182.539 42.5064C182.869 43.7043 184.323 48.9004 184.522 49.6934C184.769 50.6847 187.372 51.0564 188.487 51.0564C190.074 51.0564 195.674 49.5695 197.037 48.826C198.127 48.2312 198.4 46.4304 198.4 45.6043L196.541 38.7891C196.128 40.8543 195.228 45.0095 194.93 45.1086C194.559 45.2325 191.213 46.5956 190.593 46.5956C190.098 46.5956 187.083 45.9347 185.637 45.6043Z" fill="#011429"/>
<path d="M184.866 53.8324C185.076 54.0483 185.584 54.5838 186.24 55.156C186.26 55.1554 186.284 55.1539 186.311 55.1516C186.827 55.0633 187.154 55.0068 187.258 54.8186C187.311 54.7227 187.354 54.6272 187.374 54.5305C187.444 54.1921 187.175 53.0794 187.429 52.6519C187.455 52.6082 187.497 52.5497 187.542 52.5651C187.754 52.6379 188.012 52.8255 188.286 53.4234C188.371 53.608 188.376 54.317 188.59 55.4074C188.751 56.2269 188.905 56.7992 188.891 57.182C188.882 57.4069 188.859 57.5466 188.73 57.7253C188.265 58.3711 188.02 58.9682 187.622 59.122C187.261 59.2616 186.315 59.4584 185.469 59.2232C185.004 59.094 184.62 58.8718 184.434 58.7113C184.193 58.5027 183.887 58.2582 183.711 58.1875C183.503 58.1042 183.265 57.9924 183.078 57.8789C182.703 57.6526 181.722 57.3172 181.627 56.9334C181.593 56.7997 181.602 56.6259 181.687 56.4428C181.708 56.3969 181.736 56.3388 181.814 56.3575C182.022 56.4079 182.336 56.4664 182.617 56.5934C183.084 56.8048 183.552 57.1808 183.782 57.0042C183.817 56.9775 183.791 56.9373 183.753 56.9059C183.676 56.8424 183.144 56.56 182.415 56.1045C182.044 55.8726 181.877 55.7599 181.802 55.6347C181.668 55.4113 181.355 54.7856 181.604 54.6977C181.71 54.6603 182.069 54.5094 182.659 54.9938C183.174 55.4162 183.717 56.1403 184.163 56.2475C184.302 56.2808 184.424 56.2847 184.538 56.2596C184.591 56.2479 184.636 56.2325 184.614 56.1911C184.593 56.1497 184.509 56.0831 184.204 55.8666C183.395 55.2898 182.767 54.8647 182.655 54.6814C182.516 54.4551 182.203 53.7838 182.519 53.588C182.578 53.5513 182.684 53.5205 182.784 53.5529C183.258 53.7077 183.77 53.9771 184.039 54.3563C184.344 54.7858 184.647 55.1801 184.897 55.1914C184.95 55.1939 185.019 55.1808 185.006 55.1522C184.933 54.9895 184.169 54.464 184.058 53.8926C184.022 53.7078 183.999 53.5248 184.075 53.4668C184.107 53.4418 184.156 53.4443 184.203 53.4591C184.406 53.5231 184.663 53.6239 184.866 53.8324Z" fill="#8A6047"/>
<path d="M213.297 81.0626C213.342 80.9786 213.916 80.1665 214.536 78.7339C214.729 78.2872 214.742 77.6552 214.791 76.842C214.841 76.0289 214.845 75.0345 214.879 74.382C214.927 73.4464 215.227 72.7227 215.532 72.0128C215.69 71.6441 215.817 71.4601 215.964 71.3195C216.027 71.259 216.107 71.2536 216.174 71.2739C216.49 71.3693 216.828 71.8831 216.422 73.3745C216.175 74.2797 216.422 74.6219 216.422 75.1263C216.422 75.3993 217.016 75.1671 217.125 75.1263C217.405 75.0218 217.526 74.9134 217.875 74.5988L217.889 74.5856C218.22 74.2876 218.482 73.8332 218.952 72.9075C219.282 72.2567 219.724 71.2125 219.993 70.5766C220.345 69.7437 220.394 69.4047 220.479 68.529C220.551 67.7772 220.717 66.4036 220.811 65.6634C220.905 64.9232 220.93 64.8586 220.974 64.8069C221.018 64.7551 221.081 64.7182 221.152 64.6992C221.224 64.6801 221.302 64.68 221.358 64.7035C221.958 64.9545 221.831 66.169 221.897 67.095C221.949 67.8162 221.902 68.4588 221.842 68.961C221.882 68.7691 221.919 68.5806 221.952 68.3991C222.151 67.2897 222.171 66.4865 222.173 66.0163C222.175 65.2458 222.081 65.2445 222.076 64.3137C222.075 64.1254 222.186 63.9386 222.24 63.9023C222.487 63.7377 222.694 63.8442 222.817 63.9023C223.078 64.0264 223.128 64.396 223.22 64.9778C223.244 65.1296 223.304 65.2387 223.307 65.7911C223.31 66.2837 223.273 67.2072 223.211 68.1061C223.17 68.6896 223.127 69.1646 223.089 69.5273C223.101 69.4723 223.114 69.4146 223.128 69.354C223.239 68.8767 223.419 68.2307 223.515 67.5313C223.612 66.832 223.619 66.0987 223.62 65.61C223.621 65.1213 223.614 64.8994 223.65 64.7833C223.686 64.6672 223.735 64.586 223.804 64.5606C223.969 64.5003 224.256 64.396 224.542 65.2189C224.632 65.479 224.718 65.751 224.707 66.7825C224.703 67.1644 224.697 67.8114 224.707 68.2638C224.717 68.7162 224.593 69.7924 224.471 70.5059C224.388 70.9888 224.319 71.4206 224.246 71.8047C224.44 71.2738 224.592 70.4994 224.707 69.7339C224.935 68.2058 224.921 67.3444 224.959 67.202C224.976 67.1365 225.007 67.0884 225.048 67.0473C225.089 67.0062 225.144 66.9746 225.232 66.9564C225.32 66.9383 225.44 66.9346 225.528 66.963C225.617 66.9913 225.67 67.0518 225.707 67.1176C225.781 67.247 225.792 67.8475 225.803 68.8662C225.808 69.3613 225.812 69.8118 225.768 70.3184C225.678 71.3771 225.519 71.9955 225.472 72.1422C225.31 72.6456 224.927 73.8255 224.542 74.6673C224.183 75.4534 223.52 76.115 223.242 76.5218C223.094 76.7378 222.963 76.943 222.676 77.2579C222.292 77.6791 221.648 78.166 220.828 78.88C219.752 79.8175 219.085 80.4351 218.897 80.5529C218.432 80.8439 218.028 81.1825 217.638 81.7089C217.137 82.3833 216.718 83.1152 216.422 83.6631C216.34 83.6612 216.011 83.6612 215.764 83.6612C215.517 83.6612 215.378 83.6423 215.188 83.5789C215.118 83.5556 214.932 83.5107 214.858 83.4966C214.434 83.4148 214.435 83.3744 213.953 83.0851C213.541 82.8382 213.377 82.6736 213.295 82.1799C213.24 81.8552 213.295 81.6861 213.297 81.4392C213.298 81.3783 213.338 81.1735 213.297 81.0626Z" fill="#603F2C"/>
<path d="M223.484 72.6699C223.59 72.7245 223.685 72.7705 223.765 72.8066C224.074 72.8702 224.495 72.8517 225.11 72.7293C225.951 72.5182 226.505 72.5166 226.844 72.7958C227.129 73.0298 227.379 73.3167 227.504 73.8663C227.785 75.0986 227.812 75.6163 227.562 75.9445C227.364 76.2023 227.174 76.5049 225.445 77.1361C224.887 77.3397 224.309 77.4975 223.562 77.6623C222.815 77.8271 221.927 78.0009 221.384 78.089C220.657 78.2073 220.108 78.3336 219.461 78.2374C218.884 78.1517 218.199 77.8871 217.316 77.643C216.396 77.3888 215.857 77.2588 215.734 77.1882C215.595 77.1085 214.902 76.6281 213.721 75.6487C213.106 75.1386 212.464 74.597 212.017 74.1278C211.262 73.3356 210.805 72.8033 210.628 72.4454C210.526 72.2408 210.516 72.0208 210.604 71.7777C210.669 71.5973 210.735 71.3503 210.875 71.3858C211.095 71.4416 211.602 71.5569 212.055 71.8639C211.951 71.7338 211.856 71.6124 211.772 71.5036C211.102 70.6395 210.963 70.4306 210.989 70.2776C211.022 70.0813 211.066 69.8759 211.19 69.8582C211.266 69.8472 211.387 69.8688 211.476 69.9102C211.618 69.9755 212.029 70.4708 212.716 71.1341C212.038 70.3781 211.709 69.9637 211.552 69.401C211.471 69.113 211.458 68.6311 211.659 68.3387C211.738 68.2248 211.839 68.0293 212.014 68.0479C212.231 68.0709 212.428 68.1263 212.533 68.2362C212.8 68.5159 212.945 68.9438 213.401 69.4604C213.591 69.6745 214.144 70.0381 215.134 70.9324C215.167 70.9624 215.2 70.993 215.234 71.0243C214.967 70.5563 214.706 70.0816 214.517 69.8391C214.046 69.235 214.066 68.9658 214.007 68.8384C213.873 68.5479 213.71 68.1665 213.794 67.9114C213.816 67.8472 213.846 67.761 213.956 67.7796C214.254 67.8303 214.695 67.8705 215.191 68.5265C215.808 69.3423 216.245 69.9607 216.844 70.5347C217.35 71.0195 218.176 71.9711 218.763 72.311C219.864 72.9494 220.919 73.314 221.164 73.1145C221.206 73.08 221.232 73.0158 221.213 72.9552C221.173 72.8296 220.991 72.5328 220.455 71.8481C219.95 71.2011 219.726 70.7686 219.595 70.4896C219.445 70.1723 219.149 69.7854 219.276 69.4984C219.305 69.4336 219.341 69.3673 219.434 69.3856C219.678 69.4336 220.147 69.5776 220.43 69.8391C220.688 70.0773 220.941 70.8355 221.613 71.4279C222.185 71.9324 222.966 72.4031 223.484 72.6699Z" fill="#704B36"/>
<path d="M122.658 226.369H127.986V233.487L125.847 240.838C125.38 243.923 123.747 249.978 120.946 249.511C117.446 248.928 117.174 246.944 116.046 244.533C114.918 242.121 116.901 239.476 119.157 236.287C120.962 233.736 122.243 228.612 122.658 226.369Z" fill="#011429"/>
<path d="M146.149 225.164L151.478 226.525C150.513 233.308 154.81 236.275 157.079 236.91C159.931 237.649 165.293 239.765 163.924 242.316C162.555 244.868 161.085 245.311 158.44 245.311C154.901 244.3 150.856 241.997 149.767 241.811C148.405 241.577 144.788 238.621 144.788 237.999V234.226L146.149 225.164Z" fill="#011429"/>
<path d="M119.119 201.283L134.637 202.489C135.446 211.886 133.263 224.01 132.07 228.898C126.283 233.161 119.287 227.122 116.513 223.569L119.119 201.283Z" fill="#C0DEFF"/>
<path d="M139.849 205.756L157.156 202.761V227.886C155.588 228.923 151.828 230.998 149.339 230.998C146.85 230.998 142.934 228.405 141.288 227.108L139.849 205.756Z" fill="#C0DEFF"/>
<path d="M165.13 165.228V207.817C148.366 206.067 135.765 211.317 131.253 211.667C127.644 211.948 116.707 210.384 111.689 209.567V176.391C111.689 162.14 119.831 133.218 123.902 120.539C134.961 121.11 157.569 122.74 159.529 124.701C161.979 127.151 165.13 158.227 165.13 165.228Z" fill="#FF9657"/>
<path d="M97.4298 146.445C97.5874 146.17 97.7167 145.942 97.8229 145.754C97.8829 145.663 97.9171 145.624 97.9528 145.576C97.9885 145.527 98.0285 145.475 98.0615 145.424C98.1872 145.225 98.4402 144.926 98.6379 144.503C98.9334 143.871 99.621 142.895 100.438 142.807C101.8 142.661 102.289 142.61 102.582 142.793C102.713 142.875 102.861 142.994 103.205 143.46C103.956 144.477 104.46 145.21 104.472 145.391C104.484 145.575 104.483 145.729 104.433 145.871C104.361 146.079 104.02 146.795 103.052 147.943C102.493 148.607 101.713 149.348 101.339 149.803C100.739 150.534 100.459 150.987 100.098 151.976C99.7932 152.809 99.6275 153.354 99.6058 153.493C99.586 153.621 99.7742 154.614 99.8888 156.155C99.9352 156.779 99.8977 157.106 99.8195 157.502C99.7412 157.899 99.6258 158.352 99.3825 159.011C99.1392 159.67 98.762 160.504 98.5966 160.964C98.4101 161.483 98.3908 161.645 98.2388 161.961C97.947 162.568 97.6838 163.272 97.4133 163.732C97.1003 164.266 96.6844 164.875 96.3175 164.828C96.1421 164.805 95.9844 164.766 95.8814 164.677C95.7802 164.59 95.6685 164.487 95.6501 164.327C95.6018 163.908 95.7303 163.477 96.1404 162.104C96.3141 161.522 96.5356 160.707 96.6397 160.251C96.7633 159.711 96.7336 158.992 96.5454 158.04C96.4562 157.589 96.4161 157.339 96.2708 157.325L96.2703 157.325C96.1134 157.31 95.7437 157.275 95.1482 157.82C94.7665 158.168 94.7799 158.479 94.3235 159.94C94.1301 160.558 93.8165 161.378 93.5293 162.025C93.2421 162.671 92.9889 163.131 92.8336 163.401C92.6783 163.672 92.6226 163.751 92.037 164.411C91.4515 165.071 90.3139 166.232 89.8059 166.926C89.1429 167.832 89.431 168.097 89.0899 168.167C88.9022 168.205 89.0899 168.414 88.5961 168.496C88.3312 168.54 88.2584 168.325 88.0201 168.084C87.9385 168.002 87.2934 168.153 87.4446 167.097C87.5213 166.561 87.3924 166.342 87.5263 165.863C87.7791 164.956 87.9968 164.638 88.3488 163.732C89.1344 161.712 88.8198 161.197 89.8059 159.94C90.792 158.683 91.3137 155.935 93.1166 153.303C94.9195 150.671 96.604 147.888 97.4298 146.445Z" fill="#6A4732"/>
<path d="M122.583 55.26C124.038 51.5986 125.813 49.276 128.426 48.8415C145.049 46.0777 148.987 59.2233 147.436 64.2297C145.626 70.0727 145.955 70.3196 137.643 74.1872C133.117 76.2933 128.37 73.269 126.78 72.2947C124.229 70.7311 122.354 69.9815 121.431 64.9704C120.509 59.9592 120.766 59.8366 122.583 55.26Z" fill="#011429"/>
<path d="M182.361 115.327C178.658 87.5412 160.386 77.8981 151.712 76.5498C150.079 90.6035 147.372 119.403 149.612 122.172C152.412 125.634 182.361 121.278 182.361 115.327Z" fill="#FEB3BD"/>
<path d="M99.2116 146.77C102.79 148.855 108.303 148.819 110.404 146.77C117.093 143.434 116.201 140.826 117.446 134.035C118.587 133.607 122.035 132.37 126.703 130.846C132.537 128.94 148.055 132.635 154.667 132.752C159.957 132.845 164.728 130.509 166.452 129.329C163.768 126.801 154.006 78.6502 151.634 76.2388C125.03 70.0935 112.973 84.7954 111.301 88.1403C109.628 91.4852 105.35 102.259 103.133 109.337C100.916 116.416 104.635 105.653 97.4012 124.633C90.1669 143.614 94.7388 144.164 99.2116 146.77Z" fill="#FEB3BD"/>
<path d="M136.596 69.7041C137.779 69.7041 139.863 71.8822 140.758 72.9712C141.225 73.5416 142.57 74.8848 144.219 75.6938C146.281 76.705 149.353 76.2383 149.276 77.7162C149.198 79.1942 146.164 83.9004 143.014 85.0672C139.863 86.234 134.457 86.0006 130.801 83.9004C127.145 81.8001 127.028 78.5719 127.962 78.4163C128.895 78.2608 131.734 76.355 132.785 74.0602C133.835 71.7655 135.118 69.7041 136.596 69.7041Z" fill="#623F2B"/>
<path d="M126.887 60.1945C127.238 58.6802 127.628 57.001 130.373 54.5352L130.395 54.5386C132.931 54.9286 137.926 55.6969 140.719 59.7858C141.082 60.3177 141.885 58.6578 142.391 62.3528C142.665 64.3565 141.535 64.453 141.535 65.3865C141.535 69.7814 139.746 72.3874 137.918 73.8654C132.162 74.4099 129.517 69.8593 128.584 69.4314C127.65 69.0036 126.133 67.9535 125.706 66.7867C125.363 65.8533 126.056 65.6977 126.444 65.7366C126.444 62.9123 126.512 61.8092 126.881 60.2223L126.887 60.1945Z" fill="#6A4732"/>
<path d="M129.171 64.1714C129.134 63.6927 129.348 62.8674 130.496 62.9558" stroke="#011429" stroke-width="0.7" stroke-linecap="round"/>
<path d="M135.247 61.0931C135.591 60.7575 136.461 60.5259 137.234 61.2992" stroke="#011429" stroke-width="0.7" stroke-linecap="round"/>
<path d="M137.674 70.1554C137.372 70.7926 136.41 71.6332 135.246 71.1547" stroke="#B28972" stroke-width="0.7" stroke-linecap="round"/>
<path d="M136.24 69.6945C135.799 69.6945 134.804 70.7991 133.369 66.489" stroke="#B28972" stroke-width="0.7" stroke-linecap="round"/>
<path d="M135.645 62.6447C135.496 61.8797 136.31 61.7679 136.576 61.9495C137.529 62.7914 137.133 63.6156 136.687 63.7025C136.166 63.8041 135.742 63.1416 135.645 62.6447Z" fill="#011429"/>
<path d="M129.847 64.7531C129.698 63.9881 130.512 63.8763 130.778 64.0579C131.731 64.8998 131.335 65.724 130.889 65.8109C130.368 65.9125 129.944 65.25 129.847 64.7531Z" fill="#011429"/>
<path d="M169.752 105.301C169.752 107.977 166.2 109.657 164.424 110.163C162.284 113.352 155.595 114.558 147.077 118.525C138.559 122.492 131.869 117.63 129.264 114.558C126.658 111.485 130.197 108.646 131.869 105.301C133.542 101.956 142.215 99.6615 147.077 96.7833C151.939 93.9052 160.034 93.2748 166.563 95.2276C171.833 96.8039 169.752 101.956 169.752 105.301Z" fill="#DFFC8E"/>
<path d="M159.032 95.955C161.338 95.7371 162.455 96.4087 162.995 97.0442C165.337 99.1319 163.341 102.167 162.635 103.398C161.948 104.597 158.395 103.896 156.263 102.332C153.795 100.522 154.813 98.6288 155.339 97.4982C155.769 96.5714 156.149 96.2273 159.032 95.955Z" fill="#704E3A"/>
<path d="M157.64 97.8058C158.051 97.6138 158.627 97.6412 158.792 98.2995" stroke="#011429" stroke-width="0.7" stroke-linecap="round"/>
<path d="M158.133 99.0404C158.462 98.9581 158.709 99.0404 158.791 99.3695M156.816 100.275C157.063 100.769 157.392 101.015 158.133 101.18" stroke="#B28972" stroke-width="0.7" stroke-linecap="round"/>
<path d="M160.603 99.2046C161.014 99.0126 161.672 99.2866 161.837 99.9452" stroke="#011429" stroke-width="0.7" stroke-linecap="round"/>
<path d="M162.33 96.6539C162.495 96.5061 163.403 96.5266 163.564 97.0654C163.811 97.8883 164.919 97.3594 165.046 97.1477C165.293 96.7361 164.881 96.1162 164.42 96.5775C164.091 96.9066 164.584 97.4005 164.667 97.4005C164.783 97.4006 165.54 97.8882 166.033 97.1477" stroke="#011429" stroke-width="0.7" stroke-linecap="round"/>
<path d="M166.063 107.859C169.766 106.584 174.555 107.924 176.487 108.754C177.809 108.754 182.554 112.449 182.554 114.899C182.554 117.349 182.321 115.794 178.859 121.239C175.398 126.684 164.43 125.011 156.262 126.995C148.094 128.979 146.344 124.117 144.633 122.483C142.921 120.85 145.994 116.26 148.328 115.794C150.661 115.327 152.1 113.616 154.667 111.788C157.234 109.96 161.435 109.454 166.063 107.859Z" fill="#FEB3BD"/>
<path d="M146.98 119.754C146.859 120.271 146.941 119.86 146.859 120.271C146.833 120.401 146.666 120.63 146.612 120.683C146.53 120.765 146.53 120.765 146.283 120.765C145.865 120.765 146.143 120.743 145.632 120.694C144.55 120.59 143.398 120.956 142.472 120.862C141.794 120.793 141.293 120.708 138.555 120.559C137.68 120.511 137.314 120.362 136.92 120.143C136.288 119.792 135.663 119.451 135.018 118.988C134.615 118.699 134.138 118.333 133.751 117.682C133.525 117.301 133.341 116.927 133.431 116.512C133.451 116.417 133.484 116.329 133.587 116.289C133.825 116.194 134.105 116.125 134.231 116.263C134.638 116.709 135.136 117.393 135.746 117.694C135.683 117.654 135.624 117.613 135.567 117.572C135.26 117.348 134.95 117.05 133.662 115.565C132.904 114.692 132.298 113.794 132.457 113.236C132.478 113.162 132.518 113.086 132.591 113.052C132.744 112.981 132.937 112.926 133.089 113.005C133.232 113.079 133.353 113.213 133.485 113.371C133.74 113.675 133.767 114.106 134.469 114.671C135.393 115.416 137.939 117.515 137.499 117.127C136.697 116.421 136.148 115.816 135.538 115.184C134.985 114.612 134.364 114.01 134.081 113.391C133.797 112.77 133.265 111.698 133.348 111.186C133.362 111.102 133.4 111.024 133.459 110.973C133.519 110.921 133.599 110.881 133.673 110.904C133.822 110.951 134.18 111.238 134.571 111.726C135 112.26 135.25 113.289 136.116 114.072C136.622 114.529 140.62 117.669 138.85 116.265C138.651 116.107 137.569 114.824 136.5 113.637C135.678 112.723 135.128 112.081 135.014 111.868C134.728 111.335 134.473 110.777 134.609 110.493C134.642 110.425 134.7 110.353 134.77 110.356C134.915 110.36 135.218 110.515 135.499 110.804C136.122 111.441 136.968 112.464 138.128 113.367C139.563 114.483 140.599 115.324 140.946 115.489C141.165 115.592 141.374 115.657 141.606 115.629C142.032 115.578 142.585 115.62 142.968 115.402C143.051 115.355 143.118 115.281 143.131 115.201C143.143 115.121 143.113 115.027 143.016 114.94C142.599 114.564 141.905 113.995 141.09 113.169C140.582 112.654 140.182 112.546 139.971 112.249C139.917 112.174 139.892 112.072 139.89 111.974C139.888 111.875 139.894 111.764 139.977 111.719C140.158 111.62 140.359 111.524 140.528 111.561C141.319 111.738 142.905 112.188 143.804 112.912C144.563 113.523 144.987 113.994 145.89 114.891C146.308 115.307 147.101 115.586 147.523 115.991C147.818 116.274 148.008 116.583 148.053 116.922C148.101 117.282 148.023 117.635 147.805 118.012C147.397 118.718 147.094 119.265 146.98 119.754Z" fill="#6A4732"/>
<path d="M128.773 50.8558L132.548 50.5431C134.45 52.8658 144.387 54.118 144.273 47.2717C144.228 44.5583 138.197 41.8473 134.94 41.5951C133.646 41.495 127.814 42.6584 125.821 45.0682C124.227 46.996 127.566 50.4811 128.773 50.8558Z" fill="#011429"/>
</svg>
