<svg width="291" height="134" viewBox="0 0 291 134" fill="none" xmlns="http://www.w3.org/2000/svg">
<path d="M0.0734596 45.9856C1.02011 20.4379 45.9659 19.0983 62.0589 10.5824C73.7422 4.39994 102.906 1.421 119.741 0.467002C152.003 -2.65462 218.193 10.5824 248.422 19.0983C278.652 27.6142 294.696 53.0468 289.016 92.7877C283.336 132.529 201.046 121.289 174.54 130.688C148.034 140.087 62.0589 127.85 34.6061 114.666C7.15329 101.482 -0.873188 71.5333 0.0734596 45.9856Z" fill="#AACEF5"/>
<path d="M57.9996 44.0017C92.0647 37.5245 201.737 68.0911 252.314 84.184C253.514 94.6794 237.621 84.184 216.03 87.7825C198.758 90.6612 167.252 86.583 153.658 84.184L52.9019 66.192C40.4074 61.494 23.9346 50.4788 57.9996 44.0017Z" fill="#FCFFFD"/>
<path d="M43.9048 47.9002C47.2034 46.101 52.601 44.9015 56.4993 44.3018L69.0938 52.9979C67.3945 54.2974 62.1968 55.9966 60.0977 56.2965C56.9741 56.7427 47.8031 50.499 43.9048 47.9002Z" fill="#D9D9D9"/>
<path d="M254.413 78.7865L252.014 85.3836L209.732 74.2884L212.731 70.69C215.23 67.8912 223.526 59.4749 236.72 48.1999C249.915 36.9248 255.612 41.3029 256.812 44.9013C251.814 54.1973 242.478 73.089 245.117 74.2884C247.756 75.4879 252.413 77.7869 254.413 78.7865Z" fill="#88AEFF"/>
<path d="M103.578 83.5847C101.659 82.3853 104.679 77.5874 106.278 75.4883C120.772 77.7873 149.398 82.865 149.158 83.5847C148.858 84.4843 143.16 86.8833 141.661 87.7829C140.162 88.6825 125.768 88.3826 124.269 87.7829C122.769 87.1831 105.977 85.0841 103.578 83.5847Z" fill="#88AEFF"/>
<path d="M175.847 49.999L106.877 75.7877L148.259 83.5843C160.754 85.7833 186.822 90.1214 191.14 89.8815C196.538 89.5816 219.384 87.4826 224.125 87.4826C228.323 87.4826 245.116 91.081 250.514 88.9819C254.832 87.3026 251.814 78.8863 250.514 78.1866L210.032 73.9885C208.932 75.6877 206.494 81.4252 200.736 83.5843C194.979 85.7433 166.151 79.2862 152.457 75.7877L159.054 69.7903H170.749L164.752 66.4918L170.749 61.394L178.846 64.3927L175.847 58.6952L191.14 49.999H175.847Z" fill="#88AEFF"/>
<path d="M52.9019 59.5945L123.971 70.3898L107.178 76.3872C90.0856 73.2885 54.8211 66.1916 52.9019 66.1916C50.503 66.1916 42.1067 61.9935 38.8081 57.7953C36.1693 54.4368 38.3083 51.798 39.4079 50.8984C39.7077 50.5985 40.1275 50.4186 39.4079 52.0978C38.6882 53.7771 48.104 57.7953 52.9019 59.5945Z" fill="#88AEFF"/>
</svg>
