<svg width="265" height="287" viewBox="0 0 265 287" fill="none" xmlns="http://www.w3.org/2000/svg">
<path d="M9.11216 80.6633C17.6821 29.2375 66.5751 9.18268 88.1552 10.1143C222.759 -28.0822 231.349 51.693 252.773 87.0948C274.198 122.497 266.421 224.102 237.604 266.342C215.962 298.065 123.689 283.292 71.9894 285.155C20.2903 287.019 22.6194 241.746 9.11244 212.399C-4.39454 183.053 -1.60027 144.946 9.11216 80.6633Z" fill="#FCFFFD"/>
<path d="M129.521 241H196.521C212.521 241 222.021 249 221.521 257C221.021 265 203.521 262 193.021 267.5C182.521 273 121.521 268.5 100.021 271C78.5207 273.5 43.0207 263 44.0207 257C45.0207 251 55.5207 254.5 56.5207 249C57.5207 243.5 121.021 241 129.521 241Z" fill="#EBECDD"/>
<path d="M91.9183 154.829C89.1166 154.066 87.2799 152.955 86.9264 151.476C86.6793 150.029 85.6541 149.484 86.3333 146.354C87.1823 142.442 89.7499 141.054 91.9183 139.924C94.9579 138.339 96.459 138.596 99.8196 139.253C103.18 139.911 103.632 141.844 105.189 144.77C106.745 147.695 104.109 152.057 102.446 153.405C100.783 154.753 95.4204 155.782 91.9183 154.829Z" fill="#011529"/>
<path d="M83.5529 143.267C83.0881 142.183 83.7803 141.105 84.1676 140.846C85.5862 139.031 87.91 140.459 88.7814 140.846C89.6528 141.234 88.975 142.977 88.7814 143.945C88.5877 144.913 87.0386 145.494 85.5862 145.494C84.1339 145.494 84.1338 144.623 83.5529 143.267Z" fill="#011529"/>
<path d="M89.2998 141.838C88.8479 141.838 88.3122 142.864 88.2347 143.484C88.1379 144.258 87.1697 145.42 86.6855 145.42" stroke="#FEB3BD" stroke-linecap="round"/>
<path d="M102.149 139.893C101.642 140.815 100.276 140.541 99.8822 140.411C97.1103 140.931 97.3325 138.127 97.1265 137.302C96.9205 136.476 98.5182 135.484 99.3054 135.088C100.093 134.693 101.352 135.464 102.149 136.485C102.946 137.506 102.783 138.741 102.149 139.893Z" fill="#011529"/>
<path d="M101.983 140.289C101.853 139.856 100.652 141.141 99.3686 140.096C98.7635 139.603 97.6677 139.456 97.529 138.992" stroke="#FF9657" stroke-linecap="round"/>
<path d="M87.4141 244.76L92.3434 245.116C92.154 247.733 92.1181 251.78 92.6353 253.763C93.2819 256.242 96.1273 255.938 97.68 256.33C100.473 257.037 105.292 257.019 103.226 259.576C101.16 262.134 98.6172 261.766 95.6961 261.555C92.775 261.344 91.1875 261.091 88.8042 261.056C86.8976 261.028 86.3829 259.856 86.3639 259.274L87.4141 244.76Z" fill="#011429"/>
<path d="M74.249 236.586L79.0539 237.73C77.6811 242.215 76.6286 245.509 78.1387 246.608C79.3002 247.452 85.6435 252.145 86.0096 253.151C86.3757 254.158 85.4678 255.028 84.1792 255.028C82.6233 255.028 79.0539 254.479 76.4456 252.053C75.0345 250.741 71.5796 249.063 71 248.896L74.249 236.586Z" fill="#011529"/>
<path d="M80.8457 196.364C83.3112 188.88 88.3604 188.084 90.5769 188.621L97.3966 192.888C95.5822 209.414 90.9775 242.728 87.0737 243.776C83.1699 244.825 76.1256 240.514 73.0914 238.227C74.6489 227.391 78.3802 203.847 80.8457 196.364Z" fill="#9BBBFF"/>
<path d="M80.8457 196.364C83.3112 188.88 88.3604 188.084 90.5769 188.621L97.3966 192.888C95.5822 209.414 90.9775 242.728 87.0737 243.776C83.1699 244.825 76.1256 240.514 73.0914 238.227C74.6489 227.391 78.3802 203.847 80.8457 196.364Z" fill="#88AEFF"/>
<path d="M82.5987 203.079C84.063 195.245 89.9509 193.622 92.7119 193.79L101.727 196.901C102.84 213.604 103.951 247.431 99.4845 249.115C95.0183 250.799 85.7257 247.681 81.6377 245.911C81.3479 234.898 81.1343 210.913 82.5987 203.079Z" fill="#9BBBFF"/>
<path d="M82.5987 203.079C84.063 195.245 89.9509 193.622 92.7119 193.79L101.727 196.901C102.84 213.604 103.951 247.431 99.4845 249.115C95.0183 250.799 85.7257 247.681 81.6377 245.911C81.3479 234.898 81.1343 210.913 82.5987 203.079Z" fill="#9BBBFF"/>
<path d="M78.7464 172.592C77.6681 174.497 75.7797 186.753 74.9219 191.057C76.8826 201.224 101.736 206.307 104.84 201.224C107.945 196.141 101.621 163.891 100.559 161.693C96.2702 155.098 86.7924 159.583 85.1187 161.693C82.8944 164.497 80.0944 170.21 78.7464 172.592Z" fill="#FEB3BD"/>
<path d="M111.748 169.078C112.553 169.005 114.005 170.329 114.631 171C114.631 183.813 108.59 187.794 107.675 188.847C106.887 189.753 102.87 192.645 93.3977 189.853C83.9251 187.062 86.8538 171.503 86.2132 169.581C85.5725 167.659 88.0436 163.266 91.5214 161.344C94.9993 159.422 99.6212 164.044 99.9872 164.914C100.353 165.783 102.046 167.797 103.648 169.078C105.25 170.359 110.741 169.169 111.748 169.078Z" fill="#FF9657"/>
<path d="M96.7839 154.801L96.372 159.377C94.8711 160.292 92.9857 159.545 92.2993 158.965L94.267 153.932L96.7839 154.801Z" fill="#694631"/>
<path d="M91.9747 146.077C93.9887 143.583 93.9567 143.935 96.3726 142.308C101.693 142.72 103.145 145.236 103.603 145.053C104.061 144.87 104.244 145.099 104.472 145.785C104.701 146.472 103.603 147.021 103.832 148.028C104.061 151.139 102.819 154.628 98.5635 155.223C94.3077 155.818 91.705 152.558 91.4304 152.558C88.6847 151.551 88.8678 149.858 89.6 149.858C90.5681 148.028 91.1226 147.132 91.9747 146.077Z" fill="#704E3A"/>
<path d="M94.7096 149.047C94.5573 148.342 95.3143 148.222 95.5653 148.385C96.4675 149.145 96.113 149.916 95.6992 150.006C95.2154 150.11 94.8086 149.505 94.7096 149.047Z" fill="#011429"/>
<path d="M99.5597 147.308C99.4074 146.602 100.164 146.483 100.415 146.646C101.318 147.406 100.963 148.177 100.549 148.266C100.066 148.371 99.6587 147.766 99.5597 147.308Z" fill="#011429"/>
<path d="M95.451 147.678C95.0392 147.632 94.1606 147.742 93.9409 148.547" stroke="#011429" stroke-width="0.5" stroke-linecap="round"/>
<path d="M98.9153 151.419C99.3102 151.294 99.6966 151.019 99.57 150.194" stroke="#B28972" stroke-width="0.5" stroke-linecap="round"/>
<path d="M98.0162 152.813C98.9749 153.117 99.7071 152.934 100.119 152.252" stroke="#B28972" stroke-width="0.5" stroke-linecap="round"/>
<path d="M100.897 146.167C100.57 145.912 100.073 145.572 99.387 146" stroke="#011429" stroke-width="0.5" stroke-linecap="round"/>
<path d="M112.44 169.82C111.975 169.591 111.369 169.37 111.182 169.366C111.311 169.01 111.472 168.611 111.521 168.516C111.695 168.089 111.874 167.601 111.944 166.031C112.127 165.384 112.349 164.979 112.681 164.54C113.399 163.594 113.979 163.014 114.004 162.515C114.023 162.144 114.009 161.778 113.826 161.687C113.646 161.597 112.294 162.011 112.037 161.373C111.993 161.265 112.003 161.096 112.054 160.981C112.105 160.865 112.189 160.796 112.297 160.755C112.754 160.585 113.223 160.339 113.942 160.306C115.438 160.237 115.834 159.685 116.168 159.895C116.333 159.998 116.486 160.169 116.574 160.388C116.749 160.823 116.797 161.551 116.894 162.171C117.096 163.459 116.763 164.441 116.168 165.27C115.778 165.814 115.191 166.454 114.861 167.109C114.499 167.827 114.57 168.852 114.28 169.82C114.229 169.991 114.086 170.885 113.893 170.885C113.699 170.885 112.936 170.064 112.44 169.82Z" fill="#704E3A"/>
<path d="M151.451 235.103H157.72V243.477L155.203 252.126C154.654 255.756 152.732 262.879 149.438 262.33C145.319 261.644 144.999 259.31 143.672 256.473C142.345 253.636 144.678 250.524 147.333 246.772C149.456 243.77 150.963 237.741 151.451 235.103Z" fill="#011429"/>
<path d="M179.09 233.684L185.36 235.285C184.225 243.266 189.28 246.756 191.949 247.503C195.305 248.373 201.614 250.862 200.003 253.864C198.392 256.866 196.663 257.388 193.551 257.388C189.387 256.198 184.627 253.489 183.346 253.269C181.745 252.995 177.489 249.517 177.489 248.785V244.346L179.09 233.684Z" fill="#011429"/>
<path d="M147.287 205.587L165.546 207.006C166.498 218.061 163.929 232.327 162.526 238.077C155.716 243.093 147.485 235.987 144.221 231.808L147.287 205.587Z" fill="#C0DEFF"/>
<path d="M171.677 210.85L192.041 207.326V236.888C190.195 238.108 185.772 240.549 182.843 240.549C179.914 240.549 175.308 237.498 173.37 235.973L171.677 210.85Z" fill="#C0DEFF"/>
<path d="M201.423 163.165V213.274C181.7 211.214 166.873 217.392 161.565 217.804C157.318 218.134 144.45 216.294 138.547 215.333V176.299C138.547 159.532 148.126 125.504 152.916 110.586C165.927 111.257 192.527 113.176 194.833 115.482C197.716 118.365 201.423 154.928 201.423 163.165Z" fill="#FF9657"/>
<path d="M121.769 141.066C121.954 140.742 122.107 140.474 122.231 140.253C122.302 140.147 122.342 140.101 122.384 140.043C122.426 139.986 122.473 139.925 122.512 139.866C122.66 139.631 122.958 139.279 123.19 138.782C123.538 138.038 124.347 136.889 125.308 136.786C126.911 136.614 127.487 136.555 127.831 136.77C127.985 136.866 128.159 137.006 128.563 137.554C129.447 138.751 130.04 139.613 130.054 139.826C130.068 140.043 130.068 140.223 130.009 140.391C129.924 140.635 129.523 141.479 128.384 142.829C127.726 143.61 126.808 144.482 126.369 145.017C125.662 145.877 125.333 146.411 124.908 147.573C124.55 148.554 124.355 149.195 124.329 149.359C124.306 149.509 124.527 150.678 124.662 152.491C124.717 153.225 124.673 153.609 124.581 154.076C124.489 154.543 124.353 155.076 124.066 155.851C123.78 156.627 123.336 157.607 123.142 158.148C122.922 158.759 122.9 158.95 122.721 159.322C122.377 160.036 122.068 160.864 121.75 161.406C121.381 162.033 120.892 162.751 120.46 162.695C120.254 162.669 120.068 162.622 119.947 162.517C119.828 162.415 119.697 162.293 119.675 162.106C119.618 161.613 119.769 161.105 120.252 159.49C120.456 158.805 120.717 157.846 120.839 157.31C120.985 156.675 120.95 155.829 120.728 154.709C120.623 154.178 120.576 153.883 120.405 153.867L120.405 153.867C120.22 153.85 119.785 153.809 119.085 154.449C118.635 154.86 118.651 155.225 118.114 156.944C117.887 157.671 117.518 158.636 117.18 159.397C116.842 160.158 116.544 160.698 116.361 161.016C116.179 161.335 116.113 161.428 115.424 162.205C114.735 162.981 113.397 164.347 112.799 165.163C112.019 166.229 112.358 166.541 111.957 166.623C111.736 166.669 111.957 166.914 111.376 167.01C111.064 167.062 110.978 166.81 110.698 166.526C110.602 166.429 109.843 166.607 110.021 165.364C110.111 164.734 109.959 164.477 110.117 163.912C110.414 162.846 110.67 162.471 111.085 161.406C112.009 159.028 111.639 158.423 112.799 156.944C113.959 155.465 114.573 152.232 116.694 149.135C118.815 146.038 120.797 142.765 121.769 141.066Z" fill="#6A4732"/>
<path d="M151.364 33.7821C153.074 29.4744 155.163 26.7417 158.238 26.2305C177.796 22.9787 182.429 38.4453 180.604 44.3356C178.474 51.2103 178.861 51.5008 169.082 56.0512C163.757 58.5292 158.172 54.9708 156.302 53.8245C153.3 51.9849 151.093 51.103 150.008 45.207C148.923 39.3111 149.225 39.1669 151.364 33.7821Z" fill="#011429"/>
<path d="M221.694 104.455C217.338 71.7631 195.839 60.4174 185.635 58.8311C183.713 75.366 180.528 109.251 183.164 112.509C186.458 116.581 221.694 111.456 221.694 104.455Z" fill="#FEB3BD"/>
<path d="M123.865 141.45C128.075 143.902 134.562 143.86 137.033 141.45C144.904 137.524 143.855 134.455 145.319 126.466C146.661 125.962 150.719 124.507 156.21 122.713C163.074 120.471 181.333 124.818 189.112 124.956C195.336 125.065 200.949 122.317 202.978 120.929C199.82 117.954 188.334 61.302 185.543 58.4648C154.242 51.2345 140.056 68.5322 138.089 72.4677C136.121 76.4031 131.087 89.0789 128.479 97.4074C125.87 105.736 130.247 93.0728 121.735 115.404C113.224 137.736 118.603 138.384 123.865 141.45Z" fill="#FEB3BD"/>
<path d="M167.851 50.7764C169.242 50.7764 171.694 53.339 172.747 54.6203C173.296 55.2915 174.879 56.8717 176.82 57.8236C179.245 59.0134 182.86 58.4642 182.769 60.2031C182.677 61.9421 179.108 67.4791 175.401 68.852C171.694 70.2248 165.334 69.9502 161.032 67.4791C156.731 65.008 156.593 61.2099 157.692 61.0268C158.79 60.8438 162.13 58.6015 163.366 55.9016C164.602 53.2017 166.112 50.7764 167.851 50.7764Z" fill="#623F2B"/>
<path d="M156.427 39.5882C156.841 37.8066 157.299 35.8309 160.529 32.9297L160.555 32.9338C163.538 33.3926 169.416 34.2966 172.701 39.1073C173.128 39.7332 174.074 37.7803 174.669 42.1276C174.991 44.4851 173.662 44.5987 173.662 45.6969C173.662 50.8678 171.557 53.9339 169.406 55.6729C162.634 56.3135 159.522 50.9594 158.424 50.4561C157.325 49.9527 155.541 48.7172 155.037 47.3444C154.635 46.2461 155.449 46.0631 155.907 46.1089C155.907 42.7859 155.986 41.488 156.42 39.621L156.427 39.5882Z" fill="#6A4732"/>
<path d="M159.113 44.267C159.07 43.7038 159.321 42.7328 160.673 42.8368" stroke="#011429" stroke-width="0.5" stroke-linecap="round"/>
<path d="M166.264 40.6446C166.668 40.2499 167.692 39.9773 168.601 40.8871" stroke="#011429" stroke-width="0.5" stroke-linecap="round"/>
<path d="M169.118 51.3084C168.763 52.0581 167.631 53.0471 166.262 52.4842" stroke="#B28972" stroke-width="0.5" stroke-linecap="round"/>
<path d="M167.432 50.7649C166.912 50.7649 165.742 52.0645 164.053 46.9934" stroke="#B28972" stroke-width="0.5" stroke-linecap="round"/>
<path d="M166.731 42.4713C166.556 41.5713 167.514 41.4397 167.827 41.6535C168.948 42.644 168.482 43.6137 167.958 43.716C167.345 43.8355 166.846 43.0561 166.731 42.4713Z" fill="#011429"/>
<path d="M159.91 44.9518C159.735 44.0518 160.693 43.9202 161.006 44.1339C162.126 45.1244 161.661 46.0942 161.137 46.1964C160.523 46.316 160.024 45.5365 159.91 44.9518Z" fill="#011429"/>
<path d="M206.861 92.6574C206.861 95.8057 202.681 97.7826 200.592 98.3775C198.075 102.13 190.204 103.549 180.182 108.216C170.161 112.884 162.29 107.164 159.224 103.549C156.158 99.9334 160.322 96.5928 162.29 92.6574C164.257 88.7219 174.462 86.022 180.182 82.6357C185.902 79.2494 195.428 78.5077 203.109 80.8053C209.309 82.66 206.861 88.7219 206.861 92.6574Z" fill="#DFFC8E"/>
<path d="M194.247 81.6626C196.961 81.4063 198.275 82.1964 198.911 82.9441C201.666 85.4004 199.317 88.9718 198.487 90.4203C197.679 91.83 193.498 91.0051 190.99 89.1655C188.085 87.0354 189.284 84.8084 189.902 83.4782C190.409 82.3878 190.856 81.983 194.247 81.6626Z" fill="#704E3A"/>
<path d="M192.61 83.8397C193.094 83.6138 193.772 83.6461 193.965 84.4206" stroke="#011429" stroke-width="0.5" stroke-linecap="round"/>
<path d="M193.191 85.2917C193.578 85.195 193.869 85.2918 193.965 85.6789M191.642 86.7441C191.932 87.325 192.319 87.6155 193.191 87.8091" stroke="#B28972" stroke-width="0.5" stroke-linecap="round"/>
<path d="M196.096 85.4857C196.58 85.2598 197.354 85.5822 197.548 86.3571" stroke="#011429" stroke-width="0.5" stroke-linecap="round"/>
<path d="M198.129 82.4844C198.323 82.3105 199.391 82.3346 199.581 82.9685C199.872 83.9367 201.175 83.3144 201.324 83.0653C201.615 82.581 201.13 81.8516 200.588 82.3944C200.2 82.7817 200.781 83.3627 200.878 83.3628C201.015 83.3628 201.905 83.9365 202.486 83.0653" stroke="#011429" stroke-width="0.5" stroke-linecap="round"/>
<path d="M202.52 95.669C206.877 94.168 212.511 95.7452 214.784 96.7215C216.34 96.7215 221.923 101.069 221.923 103.952C221.923 106.835 221.648 105.004 217.576 111.411C213.503 117.817 200.598 115.85 190.988 118.183C181.379 120.517 179.319 114.797 177.306 112.875C175.292 110.953 178.908 105.553 181.653 105.004C184.399 104.455 186.092 102.442 189.112 100.291C192.132 98.1401 197.075 97.5452 202.52 95.669Z" fill="#FEB3BD"/>
<path d="M180.068 109.664C179.926 110.272 180.023 109.788 179.926 110.272C179.895 110.425 179.698 110.694 179.635 110.757C179.539 110.853 179.539 110.853 179.248 110.853C178.757 110.853 179.083 110.828 178.482 110.77C177.21 110.647 175.854 111.078 174.764 110.967C173.967 110.887 173.377 110.786 170.156 110.611C169.126 110.555 168.695 110.379 168.232 110.121C167.488 109.708 166.753 109.307 165.994 108.762C165.52 108.422 164.958 107.992 164.504 107.226C164.238 106.778 164.021 106.338 164.127 105.85C164.151 105.737 164.19 105.634 164.31 105.587C164.591 105.475 164.92 105.393 165.069 105.557C165.547 106.081 166.133 106.886 166.85 107.24C166.777 107.192 166.707 107.145 166.641 107.096C166.279 106.833 165.914 106.483 164.399 104.735C163.507 103.707 162.794 102.652 162.981 101.994C163.005 101.907 163.052 101.818 163.139 101.778C163.319 101.695 163.545 101.63 163.725 101.723C163.893 101.81 164.035 101.968 164.19 102.154C164.49 102.511 164.522 103.018 165.348 103.683C166.435 104.56 169.431 107.029 168.913 106.573C167.97 105.743 167.324 105.03 166.606 104.287C165.955 103.614 165.225 102.906 164.892 102.177C164.557 101.446 163.932 100.185 164.029 99.5826C164.045 99.4839 164.091 99.3926 164.16 99.332C164.23 99.2713 164.325 99.2241 164.412 99.2512C164.587 99.3064 165.008 99.6445 165.468 100.218C165.974 100.847 166.267 102.058 167.286 102.979C167.881 103.516 172.585 107.211 170.503 105.559C170.269 105.373 168.996 103.864 167.738 102.467C166.771 101.391 166.124 100.636 165.989 100.385C165.653 99.7585 165.353 99.1022 165.513 98.7673C165.552 98.687 165.62 98.6031 165.703 98.6058C165.873 98.6114 166.229 98.7938 166.561 99.133C167.293 99.8824 168.288 101.087 169.653 102.149C171.342 103.462 172.561 104.452 172.969 104.645C173.227 104.767 173.472 104.843 173.745 104.81C174.247 104.751 174.897 104.799 175.348 104.543C175.445 104.488 175.524 104.401 175.539 104.307C175.554 104.213 175.518 104.102 175.404 103.999C174.914 103.558 174.098 102.888 173.138 101.916C172.54 101.311 172.07 101.183 171.822 100.834C171.758 100.745 171.729 100.626 171.726 100.51C171.724 100.394 171.732 100.263 171.829 100.21C172.042 100.094 172.278 99.9801 172.477 100.024C173.408 100.233 175.274 100.761 176.331 101.613C177.225 102.333 177.723 102.886 178.785 103.942C179.278 104.431 180.211 104.76 180.707 105.236C181.054 105.569 181.278 105.933 181.331 106.331C181.388 106.756 181.296 107.171 181.039 107.614C180.559 108.445 180.203 109.089 180.068 109.664Z" fill="#6A4732"/>
<path d="M158.647 28.6009L163.088 28.233C165.326 30.9659 177.018 32.4391 176.883 24.384C176.83 21.1916 169.734 18.0018 165.902 17.7052C164.38 17.5874 157.517 18.9562 155.173 21.7914C153.297 24.0596 157.226 28.1601 158.647 28.6009Z" fill="#011429"/>
</svg>
