<svg width="369" height="170" viewBox="0 0 369 170" fill="none" xmlns="http://www.w3.org/2000/svg">
<path d="M0.0699606 62.2554C0.971824 33.5157 36.6075 20.6296 51.9392 11.0497C63.0698 4.09482 96.8104 1.56204 112.85 0.488848C143.585 -3.02279 209.649 13.2108 238.448 22.7907C267.248 32.3706 282.578 65.0616 277.166 109.768C271.755 154.474 188.152 156.621 162.9 167.194C137.648 177.768 59.123 154.348 32.9689 139.516C6.81486 124.685 -0.831903 90.9951 0.0699606 62.2554Z" fill="#AACEF5"/>
<path d="M144.303 60.4096C182.705 53.1078 306.339 87.5658 363.356 105.708C364.708 117.539 346.792 105.708 322.453 109.764C302.981 113.009 267.464 108.412 252.139 105.708L138.556 85.4249C124.471 80.1289 105.901 67.7113 144.303 60.4096Z" fill="#FCFFFD"/>
<path d="M128.415 64.8046C132.133 62.7763 138.218 61.4241 142.613 60.748L156.811 70.5513C154.895 72.0162 149.036 73.9318 146.669 74.2698C143.148 74.7729 132.809 67.7343 128.415 64.8046Z" fill="#D9D9D9"/>
<path d="M365.722 99.6258L363.018 107.063L315.354 94.5551L318.734 90.4985C321.551 87.3435 330.904 77.8557 345.778 65.1453C360.652 52.4348 367.075 57.3703 368.427 61.4268C362.793 71.9062 352.268 93.203 355.243 94.5551C358.218 95.9073 363.469 98.499 365.722 99.6258Z" fill="#88AEFF"/>
<path d="M195.684 105.033C193.52 103.681 196.925 98.2726 198.728 95.9062C215.067 98.4979 247.337 104.222 247.067 105.033C246.729 106.048 240.306 108.752 238.616 109.766C236.925 110.78 220.699 110.442 219.009 109.766C217.319 109.09 198.388 106.724 195.684 105.033Z" fill="#88AEFF"/>
<path d="M277.155 67.1709L199.405 96.2427L246.055 105.032C260.14 107.511 289.528 112.401 294.396 112.131C300.481 111.793 326.235 109.426 331.58 109.426C336.313 109.426 355.243 113.483 361.328 111.117C366.196 109.224 362.794 99.7358 361.329 98.9471L315.692 94.2144C314.453 96.13 311.704 102.598 305.213 105.032C298.723 107.466 266.225 100.187 250.788 96.2427L258.225 89.4818H271.409L264.648 85.7633L271.409 80.0166L280.536 83.397L277.155 76.9742L294.396 67.1709H277.155Z" fill="#88AEFF"/>
<path d="M138.555 77.9893L218.672 90.1589L199.741 96.9198C180.473 93.4267 140.719 85.4263 138.555 85.4263C135.851 85.4263 126.386 80.6937 122.667 75.961C119.692 72.1749 122.104 69.2002 123.343 68.186C123.681 67.848 124.155 67.6452 123.343 69.5382C122.532 71.4313 133.147 75.9611 138.555 77.9893Z" fill="#88AEFF"/>
</svg>
