<svg width="227" height="287" viewBox="0 0 227 287" fill="none" xmlns="http://www.w3.org/2000/svg">
<path d="M69.856 282.226L2.59051 45.6945L145.88 4.86717L217.435 239.06L69.856 282.226Z" fill="#86ADFF"/>
<path d="M74.4378 261.826L14.1551 53.7996L144.132 20.2869L210.094 224.74L74.4378 261.826Z" fill="#AACEF5"/>
<path d="M84.0029 253.744L19.4992 59.4321L155.596 20.7247L222.588 208.05L84.0029 253.744Z" fill="#FCFFFD"/>
<path d="M49.4182 55.5471L40.3685 25.9139L105.224 7.90332L118.444 35.7621L49.4182 55.5471Z" fill="#FFB2BD"/>
<path d="M62.6514 5.21743C58.1406 8.58639 61.5054 20.3239 63.7517 25.7715L87.8911 18.6152C86.4952 16.8833 85.6124 10.3035 80.9021 4.24044C76.1309 -1.90113 68.29 1.00622 62.6514 5.21743Z" fill="#FFB2BD"/>
</svg>
