<svg width="265" height="152" viewBox="0 0 265 152" fill="none" xmlns="http://www.w3.org/2000/svg">
<path d="M264.302 105.88C251.001 6.06553 179.636 -5.38989 142.684 1.70497C136.815 52.1898 138.611 120.523 146.659 130.471C156.719 142.906 264.302 127.257 264.302 105.88Z" fill="#FEB3BD"/>
<path d="M79.6976 144.928C71.3963 149.452 59.3951 150.308 41.2861 143.309C-9.19519 123.798 -2.44836 90.1024 5.51576 64.6737C13.4799 39.245 35.1022 27.5873 47.4943 22.3998C85.6292 6.43604 83.8497 3.95207 162.786 0.228516C171.309 8.89116 204.88 131.271 214.52 140.353C208.326 144.591 181.444 143.537 162.786 147.152C115.487 156.316 108.392 147.152 89.4726 147.152C86.5527 147.152 83.2294 146.316 79.6976 144.928Z" fill="#FEB3BD"/>
<path d="M219.012 69.8618C219.012 79.4744 206.251 85.5102 199.87 87.3266C192.186 98.7835 168.154 103.115 137.556 117.366C106.958 131.617 82.9262 114.152 73.5651 103.115C64.204 92.077 76.9183 81.8776 82.9262 69.8618C88.9341 57.846 120.091 49.6026 137.556 39.2635C155.021 28.9244 184.103 26.6598 207.555 33.6748C226.486 39.3376 219.012 57.846 219.012 69.8618Z" fill="#DFFC8E"/>
<path d="M180.499 36.2902C188.783 35.5076 192.796 37.9201 194.737 40.203C203.15 47.7026 195.977 58.6069 193.443 63.0292C190.976 67.3334 178.212 64.8149 170.553 59.1981C161.685 52.6945 165.344 45.8952 167.232 41.8337C168.779 38.5045 170.144 37.2685 180.499 36.2902Z" fill="#704E3A"/>
<path d="M175.5 42.9386C176.978 42.2489 179.048 42.3475 179.639 44.7124" stroke="#011429" stroke-width="1.5" stroke-linecap="round"/>
<path d="M177.274 47.3732C178.457 47.0777 179.343 47.3733 179.639 48.5553M172.544 51.8074C173.431 53.5812 174.614 54.468 177.274 55.0593" stroke="#B28972" stroke-width="1.5" stroke-linecap="round"/>
<path d="M186.143 47.9638C187.621 47.274 189.986 48.2584 190.577 50.6243" stroke="#011429" stroke-width="1.5" stroke-linecap="round"/>
<path d="M192.351 38.8012C192.942 38.2702 196.205 38.3439 196.785 40.2792C197.672 43.2354 201.65 41.3353 202.106 40.5748C202.993 39.0962 201.515 36.8693 199.858 38.5265C198.675 39.7089 200.449 41.483 200.744 41.4831C201.163 41.4833 203.88 43.2348 205.654 40.5748" stroke="#011429" stroke-width="1.5" stroke-linecap="round"/>
<path d="M205.76 79.0506C219.061 74.4679 236.265 79.2835 243.204 82.2641C247.955 82.2641 265 95.5375 265 104.34C265 113.142 264.162 107.553 251.727 127.114C239.292 146.674 199.891 140.666 170.55 147.792C141.21 154.918 134.922 137.453 128.775 131.585C122.627 125.717 133.665 109.23 142.048 107.553C150.431 105.877 155.601 99.729 164.822 93.1623C174.044 86.5955 189.133 84.7791 205.76 79.0506Z" fill="#FEB3BD"/>
<path d="M137.209 121.781C136.774 123.64 137.07 122.162 136.774 123.64C136.681 124.105 136.079 124.926 135.887 125.118C135.591 125.413 135.591 125.413 134.705 125.413C133.205 125.413 134.2 125.335 132.366 125.158C128.481 124.784 124.341 126.098 121.014 125.761C118.58 125.515 116.78 125.207 106.944 124.673C103.798 124.502 102.485 123.965 101.069 123.178C98.7993 121.916 96.5529 120.691 94.2377 119.029C92.7905 117.99 91.0749 116.677 89.6878 114.339C88.875 112.969 88.213 111.626 88.5358 110.136C88.6102 109.792 88.7285 109.478 89.0953 109.333C89.9526 108.993 90.9574 108.743 91.4121 109.241C92.8731 110.843 94.6622 113.301 96.8512 114.381C96.6271 114.236 96.4129 114.09 96.2108 113.943C95.1063 113.139 93.9934 112.068 89.3669 106.734C86.6445 103.595 84.4664 100.372 85.036 98.3652C85.1117 98.0988 85.2556 97.8272 85.5203 97.7047C86.0702 97.4502 86.7604 97.2535 87.3083 97.536C87.8226 97.8011 88.2547 98.2851 88.7298 98.8514C89.646 99.9436 89.7427 101.491 92.2638 103.522C95.5846 106.198 104.732 113.738 103.149 112.344C100.271 109.809 98.2962 107.633 96.1045 105.365C94.1178 103.309 91.8887 101.148 90.8708 98.9227C89.8499 96.6908 87.9402 92.8418 88.2383 91.0011C88.287 90.6999 88.4251 90.4212 88.638 90.2359C88.851 90.0507 89.1417 89.9067 89.4052 89.9894C89.9422 90.1579 91.2261 91.1904 92.6314 92.9403C93.1581 93.5962 93.6096 94.459 94.0994 95.4228C93.1291 93.4061 92.3008 89.4883 92.7693 88.512C92.8871 88.2666 93.0939 88.0107 93.3474 88.0189C93.8675 88.0358 94.9545 88.5928 95.9671 89.6285C98.2042 91.9167 100.675 96.9042 104.845 100.147C109.999 104.156 114.287 105.868 115.533 106.458C116.32 106.831 117.068 107.062 117.903 106.963C119.435 106.78 121.421 106.929 122.797 106.147C123.093 105.979 123.334 105.714 123.38 105.426C123.427 105.137 123.317 104.801 122.968 104.487C121.471 103.138 118.979 101.092 116.049 98.1251C114.224 96.277 112.79 95.8879 112.03 94.8218C111.837 94.5511 111.746 94.1855 111.739 93.832C111.731 93.4785 111.755 93.0781 112.051 92.9171C112.702 92.5623 113.424 92.2147 114.03 92.3503C116.872 92.9861 122.57 94.6004 125.799 97.2008C128.527 99.3978 130.048 101.088 133.292 104.312C134.795 105.806 137.645 106.808 139.16 108.263C140.219 109.28 140.901 110.389 141.064 111.607C141.237 112.902 140.957 114.17 140.174 115.524C138.706 118.06 137.619 120.025 137.209 121.781Z" fill="#6A4732"/>
<path d="M184.14 97.5604C185.099 99.2118 184.385 97.8842 185.099 99.2118C185.324 99.6299 186.139 100.239 186.378 100.367C186.747 100.563 186.747 100.563 187.596 100.305C189.03 99.867 188.055 100.083 189.758 99.3785C193.365 97.8864 197.708 97.9357 200.792 96.6431C203.049 95.6971 204.681 94.8778 213.933 91.4968C216.891 90.4157 217.991 89.5186 219.115 88.3528C220.918 86.4834 222.71 84.6567 224.439 82.3915C225.52 80.9755 225.884 79.2216 226.529 76.5806C226.907 75.0333 227.088 72.5066 226.345 71.1752C226.213 70.9398 225.604 70.3144 225.149 70.0214C225.266 69.7604 225.386 69.4902 225.511 69.2104C227.199 65.4139 228.342 61.6956 227.212 59.9421C227.062 59.7093 226.845 59.4916 226.556 59.4516C225.956 59.3686 225.238 59.3818 224.796 59.8119C224.382 60.2155 224.11 60.8045 223.82 61.4848C223.263 62.7968 220.823 66.5319 219.004 69.2104C220.215 66.8582 221.497 64.3957 221.793 62.1777C222.119 59.745 222.822 55.5063 222 53.8326C221.866 53.5588 221.652 53.3325 221.395 53.2174C221.137 53.1023 220.817 53.0494 220.589 53.2054C220.124 53.5232 219.198 54.8854 218.364 56.9692C217.449 59.2571 216.971 63.1443 214.816 66.7409C214.308 67.5881 212.42 70.5146 210.65 73.268C211.719 71.3469 213.013 68.8948 214.207 66.337C216.075 62.3347 216.822 58.7738 216.992 57.9216C217.416 55.7924 217.708 53.6085 216.94 52.7738C216.756 52.5735 216.483 52.389 216.243 52.4708C215.751 52.6387 214.874 53.4886 214.207 54.7747C212.735 57.616 210.903 62.0189 207.862 66.337C204.101 71.6753 203.123 74.6819 202.104 75.6095C201.459 76.196 199.11 77.6063 198.283 77.7547C196.765 78.0271 194.908 78.7486 193.365 78.4027C193.032 78.3282 192.724 78.1447 192.596 77.8825C192.467 77.6204 192.474 77.2669 192.716 76.864C193.754 75.1376 192.716 72.9489 197.478 68.7607C199.428 67.0453 199.943 65.6698 200.359 64.4284C200.464 64.1133 200.444 63.7371 200.348 63.3968C200.252 63.0565 200.112 62.6805 199.783 62.6128C199.056 62.4635 198.264 62.3416 197.724 62.6481C195.191 64.0855 190.212 67.2918 187.882 70.7212C185.914 73.6187 184.953 75.6789 182.79 79.7089C181.788 81.5764 179.355 83.3669 178.33 85.2C177.614 86.4821 177.285 87.7419 177.485 88.9539C177.697 90.2431 178.335 91.3744 179.479 92.4408C181.623 94.4383 183.236 96.0011 184.14 97.5604Z" fill="#6A4732"/>
</svg>
